{
DisplayStrings = (
"/Che-cy"
);
classes = (
{
automatic = 1;
code = "A AE AEacute Aacute Abreve Acircumflex Adieresis Agrave Amacron Aogonek Aring Aringacute Atilde B C Cacute Ccaron Ccedilla Ccircumflex Cdotaccent D Dcaron Dcroat E Eacute Ebreve Ecaron Ecircumflex Edieresis Edotaccent Egrave Emacron Eng Eogonek Eth Etilde F G G.alt Gbreve Gcircumflex Gcommaaccent Gdotaccent H Hbar Hcircumflex I IJ J Iacute Ibreve Icircumflex Idieresis Idotaccent Igrave Imacron Iogonek Itilde Jcircumflex K Kcommaaccent L Lacute Lcaron Lcommaaccent Ldot Lslash M N Nacute Ncaron Ncommaaccent Ndotaccent Ntilde O OE Oacute Obreve Ocircumflex Odieresis Ograve Ohungarumlaut Omacron Oogonek Oslash Oslashacute Otilde P Q R Racute Rcaron Rcommaaccent S Sacute Scaron Scircumflex T Tbar Tcaron Thorn U Uacute Ubreve Ucircumflex Udieresis Ugrave Uhungarumlaut Umacron Uogonek Uring Utilde V W Wacute Wcircumflex Wdieresis Wgrave X Y Yacute Ycircumflex Ydieresis Ygrave Ytilde Z Zacute Zcaron Zdotaccent uni015E uni0162 uni0218 uni021A W.ss02 A-cy Be-cy Ve-cy Ge-cy De-cy Ie-cy Zhe-cy Ze-cy Ii-cy Ka-cy El-cy Em-cy En-cy O-cy Pe-cy Er-cy Es-cy Te-cy Ha-cy Che-cy Tse-cy Sha-cy Shcha-cy Dzhe-cy Ia-cy Softsign-cy Hardsign-cy Yeru-cy Lje-cy Nje-cy Dze-cy E-cy I-cy Je-cy Tshe-cy Iu-cy Ustrait-cy";
name = Uppercase;
}
);
copyright = "It is a display face that features both old style and lining numerals, standard and discretionary ligatures, a pretty complete set of diacritics, as well as a stylistic alternate inspired by more geometric sans-serif typefaces than it's neo-grotesque inspired default character set.";
customParameters = (
{
name = description;
value = "It is a display face that features both old style and lining numerals, standard and discretionary ligatures, a pretty complete set of diacritics, as well as a stylistic alternate inspired by more geometric sans-serif typefaces than it's neo-grotesque inspired default character set.";
},
{
name = license;

glyphs = (
{
glyphname = A;
layers = (
{
layerId = "AE853CD8-C74C-4F9A-A7CF-4083D549EAB1";
name = Bold;
paths = (
{
closed = 1;
nodes = (
"199 0 LINE",
"241 139 LINE",
"430 139 LINE",
"473 0 LINE",
"679 0 LINE",
"415 710 LINE",
"257 710 LINE",
"-8 0 LINE"
);
},
{
closed = 1;
nodes = (
"399 269 LINE",
"270 269 LINE",
"336 507 LINE"
);
}
);
width = 671;
}
);
leftKerningGroup = A;
rightKerningGroup = A;
unicode = 0041;
},
{
glyphname = A.sc;
layers = (
{
layerId = "AE853CD8-C74C-4F9A-A7CF-4083D549EAB1";
name = Bold;
paths = (
{
closed = 1;
nodes = (
"172 0 LINE",
"212 102 LINE",
"387 102 LINE",
"428 0 LINE",
"608 0 LINE",
"369 568 LINE",
"231 568 LINE",
"-9 0 LINE"
);
},
{
closed = 1;
nodes = (
"349 250 LINE",
"248 250 LINE",
"300 363 LINE"
);
}
);
width = 600;
}
);
rightKerningGroup = A.sc;
},
{
glyphname = AE;
layers = (
{
layerId = "AE853CD8-C74C-4F9A-A7CF-4083D549EAB1";
name = Bold;
paths = (
{
closed = 1;
nodes = (
"-24 0 LINE",
"182 0 LINE",
"257 139 LINE",
"458 139 LINE",
"458 0 LINE",
"943 0 LINE",
"943 170 LINE",
"652 170 LINE",
"652 276 LINE",
"880 276 LINE",
"880 446 LINE",
"652 446 LINE",
"652 540 LINE",
"934 540 LINE",
"934 710 LINE",
"407 710 LINE"
);
},
{
closed = 1;
nodes = (
"339 309 LINE",
"443 495 LINE",
"443 309 LINE"
);
}
);
width = 972;
}
);
leftKerningGroup = AE;
rightKerningGroup = AE;
unicode = 00C6;
},
{
glyphname = AEacute;
layers = (
{
layerId = "AE853CD8-C74C-4F9A-A7CF-4083D549EAB1";
name = Bold;
paths = (
{
closed = 1;
nodes = (
"-24 0 LINE",
"182 0 LINE",
"257 139 LINE",
"458 139 LINE",
"458 0 LINE",
"943 0 LINE",
"943 170 LINE",
"652 170 LINE",
"652 276 LINE",
"880 276 LINE",
"880 446 LINE",
"652 446 LINE",
"652 540 LINE",
"934 540 LINE",
"934 710 LINE",
"407 710 LINE"
);
},
{
closed = 1;
nodes = (
"339 309 LINE",
"443 495 LINE",
"443 309 LINE"
);
},
{
closed = 1;
nodes = (
"784 914 LINE",
"615 914 LINE",
"565 772 LINE",
"685 740 LINE"
);
}
);
width = 972;
}
);
leftKerningGroup = AE;
rightKerningGroup = AE;
unicode = 01FC;
},
{
glyphname = acute;
layers = (
{
layerId = "AE853CD8-C74C-4F9A-A7CF-4083D549EAB1";
name = Bold;
paths = (
{
closed = 1;
nodes = (
"264 730 LINE",
"95 730 LINE",
"45 588 LINE",
"165 556 LINE"
);
}
);
width = 284;
}
);
rightKerningGroup = A.sc;
unicode = 00B4;
},
{
glyphname = Aacute;
layers = (
{
layerId = "AE853CD8-C74C-4F9A-A7CF-4083D549EAB1";
name = Bold;
paths = (
{
closed = 1;
nodes = (
"199 0 LINE",
"241 139 LINE",
"430 139 LINE",
"473 0 LINE",
"679 0 LINE",
"415 710 LINE",
"257 710 LINE",
"-8 0 LINE"
);
},
{
closed = 1;
nodes = (
"399 269 LINE",
"270 269 LINE",
"336 507 LINE"
);
},
{
closed = 1;
nodes = (
"493 914 LINE",
"324 914 LINE",
"274 772 LINE",
"394 740 LINE"
);
}
);
width = 671;
}
);
leftKerningGroup = A;
rightKerningGroup = A;
unicode = 00C1;
},
{
glyphname = Abreve;
layers = (
{
layerId = "AE853CD8-C74C-4F9A-A7CF-4083D549EAB1";
name = Bold;
paths = (
{
closed = 1;
nodes = (
"199 0 LINE",
"241 139 LINE",
"430 139 LINE",
"473 0 LINE",
"679 0 LINE",
"415 710 LINE",
"257 710 LINE",
"-8 0 LINE"
);
},
{
closed = 1;
nodes = (
"399 269 LINE",
"270 269 LINE",
"336 507 LINE"
);
},
{
closed = 1;
nodes = (
"303 833 OFFCURVE",
"275 870 OFFCURVE",
"275 914 CURVE",
"177 914 LINE",
"177 819 OFFCURVE",
"242 752 OFFCURVE",
"336 752 CURVE SMOOTH",
"430 752 OFFCURVE",
"495 819 OFFCURVE",
"495 914 CURVE",
"397 914 LINE",
"393 867 OFFCURVE",
"367 833 OFFCURVE",
"336 833 CURVE SMOOTH"
);
}
);
width = 671;
}
);
leftKerningGroup = A;
rightKerningGroup = A;
unicode = 0102;
},
{
glyphname = breve;
layers = (
{
layerId = "AE853CD8-C74C-4F9A-A7CF-4083D549EAB1";
name = Bold;
paths = (
{
closed = 1;
nodes = (
"151 649 OFFCURVE",
"123 686 OFFCURVE",
"123 730 CURVE",
"25 730 LINE",
"25 635 OFFCURVE",
"90 568 OFFCURVE",
"184 568 CURVE SMOOTH",
"278 568 OFFCURVE",
"343 635 OFFCURVE",
"343 730 CURVE",
"245 730 LINE",
"241 683 OFFCURVE",
"215 649 OFFCURVE",
"184 649 CURVE SMOOTH"
);
}
);
width = 368;
}
);
rightKerningGroup = A.sc;
unicode = 02D8;
},
{
glyphname = Acircumflex;
layers = (
{
layerId = "AE853CD8-C74C-4F9A-A7CF-4083D549EAB1";
name = Bold;
paths = (
{
closed = 1;
nodes = (
"199 0 LINE",
"241 139 LINE",
"430 139 LINE",
"473 0 LINE",
"679 0 LINE",
"415 710 LINE",
"257 710 LINE",
"-8 0 LINE"
);
},
{
closed = 1;
nodes = (
"399 269 LINE",
"270 269 LINE",
"336 507 LINE"
);
},
{
closed = 1;
nodes = (
"251 757 LINE",
"336 820 LINE",
"421 757 LINE",
"517 799 LINE",
"404 914 LINE",
"268 914 LINE",
"155 799 LINE"
);
}
);
width = 671;
}
);
leftKerningGroup = A;
rightKerningGroup = A;
unicode = 00C2;
},
{
glyphname = circumflex;
layers = (
{
layerId = "AE853CD8-C74C-4F9A-A7CF-4083D549EAB1";
name = Bold;
paths = (
{
closed = 1;
nodes = (
"116 573 LINE",
"201 636 LINE",
"286 573 LINE",
"382 615 LINE",
"269 730 LINE",
"133 730 LINE",
"20 615 LINE"
);
}
);
width = 402;
}
);
rightKerningGroup = A.sc;
unicode = 02C6;
},
{
glyphname = Adieresis;
layers = (
{
layerId = "AE853CD8-C74C-4F9A-A7CF-4083D549EAB1";
name = Bold;
paths = (
{
closed = 1;
nodes = (
"199 0 LINE",
"241 139 LINE",
"430 139 LINE",
"473 0 LINE",
"679 0 LINE",
"415 710 LINE",
"257 710 LINE",
"-8 0 LINE"
);
},
{
closed = 1;
nodes = (
"399 269 LINE",
"270 269 LINE",
"336 507 LINE"
);
},
{
closed = 1;
nodes = (
"299 765 LINE",
"299 905 LINE",
"143 905 LINE",
"143 765 LINE"
);
},
{
closed = 1;
nodes = (
"529 765 LINE",
"529 905 LINE",
"373 905 LINE",
"373 765 LINE"
);
}
);
width = 671;
}
);
leftKerningGroup = A;
rightKerningGroup = A;
unicode = 00C4;
},
{
glyphname = dieresis;
layers = (
{
layerId = "AE853CD8-C74C-4F9A-A7CF-4083D549EAB1";
name = Bold;
paths = (
{
closed = 1;
nodes = (
"246 580 LINE",
"246 720 LINE",
"90 720 LINE",
"90 580 LINE"
);
},
{
closed = 1;
nodes = (
"476 580 LINE",
"476 720 LINE",
"320 720 LINE",
"320 580 LINE"
);
}
);
width = 566;
}
);
rightKerningGroup = A.sc;
unicode = 00A8;
},
{
glyphname = Agrave;
layers = (
{
layerId = "AE853CD8-C74C-4F9A-A7CF-4083D549EAB1";
name = Bold;
paths = (
{
closed = 1;
nodes = (
"199 0 LINE",
"241 139 LINE",
"430 139 LINE",
"473 0 LINE",
"679 0 LINE",
"415 710 LINE",
"257 710 LINE",
"-8 0 LINE"
);
},
{
closed = 1;
nodes = (
"399 269 LINE",
"270 269 LINE",
"336 507 LINE"
);
},
{
closed = 1;
nodes = (
"278 741 LINE",
"398 773 LINE",
"348 915 LINE",
"179 915 LINE"
);
}
);
width = 671;
}
);
leftKerningGroup = A;
rightKerningGroup = A;
unicode = 00C0;
},
{
glyphname = grave;
layers = (
{
layerId = "AE853CD8-C74C-4F9A-A7CF-4083D549EAB1";
name = Bold;
paths = (
{
closed = 1;
nodes = (
"144 556 LINE",
"264 588 LINE",
"214 730 LINE",
"45 730 LINE"
);
}
);
width = 284;
}
);
rightKerningGroup = A.sc;
unicode = 0060;
},
{
glyphname = Amacron;
layers = (
{
layerId = "AE853CD8-C74C-4F9A-A7CF-4083D549EAB1";
name = Bold;
paths = (
{
closed = 1;
nodes = (
"199 0 LINE",
"241 139 LINE",
"430 139 LINE",
"473 0 LINE",
"679 0 LINE",
"415 710 LINE",
"257 710 LINE",
"-8 0 LINE"
);
},
{
closed = 1;
nodes = (
"399 269 LINE",
"270 269 LINE",
"336 507 LINE"
);
},
{
closed = 1;
nodes = (
"492 791 LINE",
"492 904 LINE",
"182 904 LINE",
"182 791 LINE"
);
}
);
width = 671;
}
);
leftKerningGroup = A;
rightKerningGroup = A;
unicode = 0100;
},
{
glyphname = macron;
layers = (
{
layerId = "AE853CD8-C74C-4F9A-A7CF-4083D549EAB1";
name = Bold;
paths = (
{
closed = 1;
nodes = (
"374 607 LINE",
"374 720 LINE",
"64 720 LINE",
"64 607 LINE"
);
}
);
width = 438;
}
);
rightKerningGroup = A.sc;
unicode = 00AF;
},
{
glyphname = Aogonek;
layers = (
{
layerId = "AE853CD8-C74C-4F9A-A7CF-4083D549EAB1";
name = Bold;
paths = (
{
closed = 1;
nodes = (
"667 -125 LINE",
"619 -125 OFFCURVE",
"597 -110 OFFCURVE",
"597 -88 CURVE SMOOTH",
"597 -62 OFFCURVE",
"626 -30 OFFCURVE",
"679 0 CURVE",
"415 710 LINE",
"257 710 LINE",
"-8 0 LINE",
"199 0 LINE",
"241 139 LINE",
"430 139 LINE",
"473 0 LINE",
"586 0 LINE",
"529 -34 OFFCURVE",
"500 -76 OFFCURVE",
"500 -115 CURVE SMOOTH",
"500 -162 OFFCURVE",
"543 -203 OFFCURVE",
"632 -215 CURVE"
);
},
{
closed = 1;
nodes = (
"399 269 LINE",
"270 269 LINE",
"336 507 LINE"
);
}
);
width = 671;
}
);
leftKerningGroup = A;
rightKerningGroup = A;
unicode = 0104;
},
{
glyphname = ogonek;
layers = (
{
layerId = "AE853CD8-C74C-4F9A-A7CF-4083D549EAB1";
name = Bold;
paths = (
{
closed = 1;
nodes = (
"241 -124 LINE",
"193 -124 OFFCURVE",
"171 -109 OFFCURVE",
"171 -87 CURVE SMOOTH",
"171 -61 OFFCURVE",
"200 -29 OFFCURVE",
"253 1 CURVE",
"207 25 LINE",
"119 -13 OFFCURVE",
"74 -66 OFFCURVE",
"74 -114 CURVE SMOOTH",
"74 -161 OFFCURVE",
"117 -202 OFFCURVE",
"206 -214 CURVE"
);
}
);
width = 332;
}
);
rightKerningGroup = A.sc;
unicode = 02DB;
},
{
glyphname = Aring;
layers = (
{
layerId = "AE853CD8-C74C-4F9A-A7CF-4083D549EAB1";
name = Bold;
paths = (
{
closed = 1;
nodes = (
"199 0 LINE",
"241 139 LINE",
"430 139 LINE",
"473 0 LINE",
"679 0 LINE",
"415 710 LINE",
"257 710 LINE",
"-8 0 LINE"
);
},
{
closed = 1;
nodes = (
"399 269 LINE",
"270 269 LINE",
"336 507 LINE"
);
},
{
closed = 1;
nodes = (
"219 769 OFFCURVE",
"265 740 OFFCURVE",
"336 740 CURVE SMOOTH",
"407 740 OFFCURVE",
"453 769 OFFCURVE",
"453 827 CURVE SMOOTH",
"453 885 OFFCURVE",
"407 914 OFFCURVE",
"336 914 CURVE SMOOTH",
"265 914 OFFCURVE",
"219 885 OFFCURVE",
"219 827 CURVE SMOOTH"
);
},
{
closed = 1;
nodes = (
"359 860 OFFCURVE",
"376 847 OFFCURVE",
"376 828 CURVE SMOOTH",
"376 808 OFFCURVE",
"358 794 OFFCURVE",
"336 794 CURVE SMOOTH",
"313 794 OFFCURVE",
"296 808 OFFCURVE",
"296 828 CURVE SMOOTH",
"296 847 OFFCURVE",
"313 860 OFFCURVE",
"336 860 CURVE SMOOTH"
);
}
);
width = 671;
}
);
leftKerningGroup = A;
rightKerningGroup = A;
unicode = 00C5;
},
{
glyphname = ring;
layers = (
{
layerId = "AE853CD8-C74C-4F9A-A7CF-4083D549EAB1";
name = Bold;
paths = (
{
closed = 1;
nodes = (
"20 585 OFFCURVE",
"66 556 OFFCURVE",
"137 556 CURVE SMOOTH",
"208 556 OFFCURVE",
"254 585 OFFCURVE",
"254 643 CURVE SMOOTH",
"254 701 OFFCURVE",
"208 730 OFFCURVE",
"137 730 CURVE SMOOTH",
"66 730 OFFCURVE",
"20 701 OFFCURVE",
"20 643 CURVE SMOOTH"
);
},
{
closed = 1;
nodes = (
"160 676 OFFCURVE",
"177 663 OFFCURVE",
"177 644 CURVE SMOOTH",
"177 624 OFFCURVE",
"159 610 OFFCURVE",
"137 610 CURVE SMOOTH",
"114 610 OFFCURVE",
"97 624 OFFCURVE",
"97 644 CURVE SMOOTH",
"97 663 OFFCURVE",
"114 676 OFFCURVE",
"137 676 CURVE SMOOTH"
);
}
);
width = 274;
}
);
rightKerningGroup = A.sc;
unicode = 02DA;
},
{
glyphname = Aringacute;
layers = (
{
layerId = "AE853CD8-C74C-4F9A-A7CF-4083D549EAB1";
name = Bold;
paths = (
{
closed = 1;
nodes = (
"509 918 LINE",
"340 918 LINE",
"303 828 LINE",
"251 820 OFFCURVE",
"219 791 OFFCURVE",
"219 743 CURVE SMOOTH",
"219 716 OFFCURVE",
"229 696 OFFCURVE",
"246 681 CURVE",
"-8 0 LINE",
"199 0 LINE",
"241 139 LINE",
"430 139 LINE",
"473 0 LINE",
"679 0 LINE",
"425 681 LINE",
"443 696 OFFCURVE",
"453 716 OFFCURVE",
"453 743 CURVE SMOOTH",
"453 767 OFFCURVE",
"445 785 OFFCURVE",
"431 799 CURVE"
);
},
{
closed = 1;
nodes = (
"399 269 LINE",
"270 269 LINE",
"336 507 LINE"
);
},
{
closed = 1;
nodes = (
"359 776 OFFCURVE",
"376 763 OFFCURVE",
"376 744 CURVE SMOOTH",
"376 724 OFFCURVE",
"358 710 OFFCURVE",
"336 710 CURVE SMOOTH",
"313 710 OFFCURVE",
"296 724 OFFCURVE",
"296 744 CURVE SMOOTH",
"296 763 OFFCURVE",
"313 776 OFFCURVE",
"336 776 CURVE SMOOTH"
);
}
);
width = 671;
}
);
leftKerningGroup = A;
rightKerningGroup = A;
unicode = 01FA;
},
{
glyphname = Atilde;
layers = (
{
layerId = "AE853CD8-C74C-4F9A-A7CF-4083D549EAB1";
name = Bold;
paths = (
{
closed = 1;
nodes = (
"199 0 LINE",
"241 139 LINE",
"430 139 LINE",
"473 0 LINE",
"679 0 LINE",
"415 710 LINE",
"257 710 LINE",
"-8 0 LINE"
);
},
{
closed = 1;
nodes = (
"399 269 LINE",
"270 269 LINE",
"336 507 LINE"
);
},
{
closed = 1;
nodes = (
"503 756 OFFCURVE",
"543 891 OFFCURVE",
"543 914 CURVE",
"443 914 LINE",
"443 911 OFFCURVE",
"437 863 OFFCURVE",
"393 863 CURVE SMOOTH",
"347 863 OFFCURVE",
"323 914 OFFCURVE",
"258 914 CURVE SMOOTH",
"158 914 OFFCURVE",
"119 791 OFFCURVE",
"119 756 CURVE",
"220 756 LINE",
"220 758 OFFCURVE",
"221 804 OFFCURVE",
"266 804 CURVE SMOOTH",
"311 804 OFFCURVE",
"339 756 OFFCURVE",
"400 756 CURVE SMOOTH"
);
}
);
width = 671;
}
);
leftKerningGroup = A;
rightKerningGroup = A;
unicode = 00C3;
},
{
glyphname = tilde;
layers = (
{
layerId = "AE853CD8-C74C-4F9A-A7CF-4083D549EAB1";
name = Bold;
paths = (
{
closed = 1;
nodes = (
"404 572 OFFCURVE",
"444 707 OFFCURVE",
"444 730 CURVE",
"344 730 LINE",
"344 727 OFFCURVE",
"338 679 OFFCURVE",
"294 679 CURVE SMOOTH",
"248 679 OFFCURVE",
"224 730 OFFCURVE",
"159 730 CURVE SMOOTH",
"59 730 OFFCURVE",
"20 607 OFFCURVE",
"20 572 CURVE",
"121 572 LINE",
"121 574 OFFCURVE",
"122 620 OFFCURVE",
"167 620 CURVE SMOOTH",
"212 620 OFFCURVE",
"240 572 OFFCURVE",
"301 572 CURVE SMOOTH"
);
}
);
width = 464;
}
);
rightKerningGroup = A.sc;
unicode = 02DC;
},
{
glyphname = B;
layers = (
{
layerId = "AE853CD8-C74C-4F9A-A7CF-4083D549EAB1";
name = Bold;
paths = (
{
closed = 1;
nodes = (
"665 281 OFFCURVE",
"614 340 OFFCURVE",
"533 364 CURVE",
"601 394 OFFCURVE",
"635 462 OFFCURVE",
"635 528 CURVE SMOOTH",
"635 618 OFFCURVE",
"573 710 OFFCURVE",
"473 710 CURVE SMOOTH",
"61 710 LINE",
"61 0 LINE",
"410 0 LINE SMOOTH",
"550 0 OFFCURVE",
"665 54 OFFCURVE",
"665 182 CURVE SMOOTH"
);
},
{
closed = 1;
nodes = (
"467 185 OFFCURVE",
"442 164 OFFCURVE",
"410 164 CURVE SMOOTH",
"256 164 LINE",
"256 283 LINE",
"417 283 LINE SMOOTH",
"446 283 OFFCURVE",
"467 257 OFFCURVE",
"467 222 CURVE SMOOTH"
);
},
{
closed = 1;
nodes = (
"395 544 LINE SMOOTH",
"420 544 OFFCURVE",
"442 529 OFFCURVE",
"442 490 CURVE SMOOTH",
"442 446 OFFCURVE",
"415 435 OFFCURVE",
"389 435 CURVE SMOOTH",
"256 435 LINE",
"256 544 LINE"
);
}
);
width = 689;
}
);
leftKerningGroup = B;
rightKerningGroup = B;
unicode = 0042;
},
{
glyphname = B.sc;
layers = (
{
layerId = "AE853CD8-C74C-4F9A-A7CF-4083D549EAB1";
name = Bold;
paths = (
{
closed = 1;
nodes = (
"587 226 OFFCURVE",
"542 272 OFFCURVE",
"470 291 CURVE",
"530 315 OFFCURVE",
"560 370 OFFCURVE",
"560 422 CURVE SMOOTH",
"560 494 OFFCURVE",
"505 568 OFFCURVE",
"417 568 CURVE SMOOTH",
"55 568 LINE",
"55 0 LINE",
"363 0 LINE SMOOTH",
"485 0 OFFCURVE",
"587 41 OFFCURVE",
"587 145 CURVE SMOOTH"
);
},
{
closed = 1;
nodes = (
"414 155 OFFCURVE",
"391 143 OFFCURVE",
"363 143 CURVE SMOOTH",
"225 143 LINE",
"225 221 LINE",
"369 221 LINE SMOOTH",
"395 221 OFFCURVE",
"414 205 OFFCURVE",
"414 181 CURVE SMOOTH"
);
},
{
closed = 1;
nodes = (
"349 423 LINE SMOOTH",
"371 423 OFFCURVE",
"391 416 OFFCURVE",
"391 389 CURVE SMOOTH",
"391 356 OFFCURVE",
"368 354 OFFCURVE",
"344 354 CURVE SMOOTH",
"225 354 LINE",
"225 423 LINE"
);
}
);
width = 611;
}
);
rightKerningGroup = A.sc;
},
{
glyphname = C;
layers = (
{
layerId = "AE853CD8-C74C-4F9A-A7CF-4083D549EAB1";
name = Bold;
paths = (
{
closed = 1;
nodes = (
"22 179 OFFCURVE",
"161 -6 OFFCURVE",
"359 -6 CURVE SMOOTH",
"472 -6 OFFCURVE",
"603 54 OFFCURVE",
"643 159 CURVE",
"484 254 LINE",
"464 190 OFFCURVE",
"408 167 OFFCURVE",
"363 167 CURVE SMOOTH",
"273 167 OFFCURVE",
"220 256 OFFCURVE",
"220 355 CURVE SMOOTH",
"220 444 OFFCURVE",
"263 541 OFFCURVE",
"361 541 CURVE SMOOTH",
"405 541 OFFCURVE",
"464 522 OFFCURVE",
"487 453 CURVE",
"636 559 LINE",
"591 652 OFFCURVE",
"491 714 OFFCURVE",
"365 714 CURVE SMOOTH",
"149 714 OFFCURVE",
"22 534 OFFCURVE",
"22 361 CURVE SMOOTH"
);
}
);
width = 655;
}
);
leftKerningGroup = C;
rightKerningGroup = C;
unicode = 0043;
},
{
glyphname = C.sc;
layers = (
{
layerId = "AE853CD8-C74C-4F9A-A7CF-4083D549EAB1";
name = Bold;
paths = (
{
closed = 1;
nodes = (
"22 143 OFFCURVE",
"147 -5 OFFCURVE",
"325 -5 CURVE SMOOTH",
"427 -5 OFFCURVE",
"544 43 OFFCURVE",
"581 127 CURVE",
"442 211 LINE",
"423 163 OFFCURVE",
"371 146 OFFCURVE",
"329 146 CURVE SMOOTH",
"245 146 OFFCURVE",
"195 211 OFFCURVE",
"195 284 CURVE SMOOTH",
"195 349 OFFCURVE",
"236 420 OFFCURVE",
"327 420 CURVE SMOOTH",
"368 420 OFFCURVE",
"422 406 OFFCURVE",
"444 354 CURVE",
"574 447 LINE",
"534 522 OFFCURVE",
"444 571 OFFCURVE",
"330 571 CURVE SMOOTH",
"136 571 OFFCURVE",
"22 428 OFFCURVE",
"22 289 CURVE SMOOTH"
);
}
);
width = 594;
}
);
rightKerningGroup = A.sc;
},
{
glyphname = Cacute;
layers = (
{
layerId = "AE853CD8-C74C-4F9A-A7CF-4083D549EAB1";
name = Bold;
paths = (
{
closed = 1;
nodes = (
"22 179 OFFCURVE",
"161 -6 OFFCURVE",
"359 -6 CURVE SMOOTH",
"472 -6 OFFCURVE",
"603 54 OFFCURVE",
"643 159 CURVE",
"484 254 LINE",
"464 190 OFFCURVE",
"408 167 OFFCURVE",
"363 167 CURVE SMOOTH",
"273 167 OFFCURVE",
"220 256 OFFCURVE",
"220 355 CURVE SMOOTH",
"220 444 OFFCURVE",
"263 541 OFFCURVE",
"361 541 CURVE SMOOTH",
"405 541 OFFCURVE",
"464 522 OFFCURVE",
"487 453 CURVE",
"636 559 LINE",
"591 652 OFFCURVE",
"491 714 OFFCURVE",
"365 714 CURVE SMOOTH",
"149 714 OFFCURVE",
"22 534 OFFCURVE",
"22 361 CURVE SMOOTH"
);
},
{
closed = 1;
nodes = (
"522 914 LINE",
"353 914 LINE",
"303 772 LINE",
"423 740 LINE"
);
}
);
width = 655;
}
);
leftKerningGroup = C;
rightKerningGroup = C;
unicode = 0106;
},
{
glyphname = Ccaron;
layers = (
{
layerId = "AE853CD8-C74C-4F9A-A7CF-4083D549EAB1";
name = Bold;
paths = (
{
closed = 1;
nodes = (
"22 179 OFFCURVE",
"161 -6 OFFCURVE",
"359 -6 CURVE SMOOTH",
"472 -6 OFFCURVE",
"603 54 OFFCURVE",
"643 159 CURVE",
"484 254 LINE",
"464 190 OFFCURVE",
"408 167 OFFCURVE",
"363 167 CURVE SMOOTH",
"273 167 OFFCURVE",
"220 256 OFFCURVE",
"220 355 CURVE SMOOTH",
"220 444 OFFCURVE",
"263 541 OFFCURVE",
"361 541 CURVE SMOOTH",
"405 541 OFFCURVE",
"464 522 OFFCURVE",
"487 453 CURVE",
"636 559 LINE",
"591 652 OFFCURVE",
"491 714 OFFCURVE",
"365 714 CURVE SMOOTH",
"149 714 OFFCURVE",
"22 534 OFFCURVE",
"22 361 CURVE SMOOTH"
);
},
{
closed = 1;
nodes = (
"184 872 LINE",
"297 757 LINE",
"433 757 LINE",
"546 872 LINE",
"450 914 LINE",
"365 851 LINE",
"280 914 LINE"
);
}
);
width = 655;
}
);
leftKerningGroup = C;
rightKerningGroup = C;
unicode = 010C;
},
{
glyphname = caron;
layers = (
{
layerId = "AE853CD8-C74C-4F9A-A7CF-4083D549EAB1";
name = Bold;
paths = (
{
closed = 1;
nodes = (
"20 688 LINE",
"133 573 LINE",
"269 573 LINE",
"382 688 LINE",
"286 730 LINE",
"201 667 LINE",
"116 730 LINE"
);
}
);
width = 402;
}
);
rightKerningGroup = A.sc;
unicode = 02C7;
},
{
glyphname = Ccedilla;
layers = (
{
layerId = "AE853CD8-C74C-4F9A-A7CF-4083D549EAB1";
name = Bold;
paths = (
{
closed = 1;
nodes = (
"243 -192 LINE",
"270 -203 OFFCURVE",
"308 -213 OFFCURVE",
"356 -213 CURVE SMOOTH",
"461 -213 OFFCURVE",
"508 -166 OFFCURVE",
"508 -110 CURVE SMOOTH",
"508 -54 OFFCURVE",
"462 -32 OFFCURVE",
"414 -32 CURVE SMOOTH",
"404 -32 OFFCURVE",
"395 -33 OFFCURVE",
"387 -34 CURVE",
"409 -2 LINE",
"508 12 OFFCURVE",
"610 69 OFFCURVE",
"644 159 CURVE",
"485 254 LINE",
"465 190 OFFCURVE",
"409 167 OFFCURVE",
"364 167 CURVE SMOOTH",
"274 167 OFFCURVE",
"221 256 OFFCURVE",
"221 355 CURVE SMOOTH",
"221 444 OFFCURVE",
"264 541 OFFCURVE",
"362 541 CURVE SMOOTH",
"406 541 OFFCURVE",
"465 522 OFFCURVE",
"488 453 CURVE",
"637 559 LINE",
"592 652 OFFCURVE",
"492 714 OFFCURVE",
"366 714 CURVE SMOOTH",
"150 714 OFFCURVE",
"23 534 OFFCURVE",
"23 361 CURVE SMOOTH",
"23 187 OFFCURVE",
"150 10 OFFCURVE",
"334 -4 CURVE",
"290 -96 LINE",
"305 -93 OFFCURVE",
"341 -87 OFFCURVE",
"369 -87 CURVE SMOOTH",
"402 -87 OFFCURVE",
"424 -95 OFFCURVE",
"424 -117 CURVE SMOOTH",
"424 -140 OFFCURVE",
"399 -148 OFFCURVE",
"368 -148 CURVE SMOOTH",
"332 -148 OFFCURVE",
"292 -137 OFFCURVE",
"278 -128 CURVE"
);
}
);
width = 656;
}
);
leftKerningGroup = C;
rightKerningGroup = C;
unicode = 00C7;
},
{
glyphname = cedilla;
layers = (
{
layerId = "AE853CD8-C74C-4F9A-A7CF-4083D549EAB1";
name = Bold;
paths = (
{
closed = 1;
nodes = (
"20 -192 LINE",
"47 -203 OFFCURVE",
"85 -213 OFFCURVE",
"133 -213 CURVE SMOOTH",
"238 -213 OFFCURVE",
"285 -166 OFFCURVE",
"285 -110 CURVE SMOOTH",
"285 -54 OFFCURVE",
"239 -32 OFFCURVE",
"191 -32 CURVE SMOOTH",
"181 -32 OFFCURVE",
"172 -33 OFFCURVE",
"164 -34 CURVE",
"200 17 LINE",
"131 36 LINE",
"67 -96 LINE",
"82 -93 OFFCURVE",
"118 -87 OFFCURVE",
"146 -87 CURVE SMOOTH",
"179 -87 OFFCURVE",
"201 -95 OFFCURVE",
"201 -117 CURVE SMOOTH",
"201 -140 OFFCURVE",
"176 -148 OFFCURVE",
"145 -148 CURVE SMOOTH",
"109 -148 OFFCURVE",
"69 -137 OFFCURVE",
"55 -128 CURVE"
);
}
);
width = 362;
}
);
rightKerningGroup = A.sc;
unicode = 00B8;
},
{
glyphname = Ccircumflex;
layers = (
{
layerId = "AE853CD8-C74C-4F9A-A7CF-4083D549EAB1";
name = Bold;
paths = (
{
closed = 1;
nodes = (
"22 179 OFFCURVE",
"161 -6 OFFCURVE",
"359 -6 CURVE SMOOTH",
"472 -6 OFFCURVE",
"603 54 OFFCURVE",
"643 159 CURVE",
"484 254 LINE",
"464 190 OFFCURVE",
"408 167 OFFCURVE",
"363 167 CURVE SMOOTH",
"273 167 OFFCURVE",
"220 256 OFFCURVE",
"220 355 CURVE SMOOTH",
"220 444 OFFCURVE",
"263 541 OFFCURVE",
"361 541 CURVE SMOOTH",
"405 541 OFFCURVE",
"464 522 OFFCURVE",
"487 453 CURVE",
"636 559 LINE",
"591 652 OFFCURVE",
"491 714 OFFCURVE",
"365 714 CURVE SMOOTH",
"149 714 OFFCURVE",
"22 534 OFFCURVE",
"22 361 CURVE SMOOTH"
);
},
{
closed = 1;
nodes = (
"280 757 LINE",
"365 820 LINE",
"450 757 LINE",
"546 799 LINE",
"433 914 LINE",
"297 914 LINE",
"184 799 LINE"
);
}
);
width = 655;
}
);
leftKerningGroup = C;
rightKerningGroup = C;
unicode = 0108;
},
{
glyphname = Cdotaccent;
layers = (
{
layerId = "AE853CD8-C74C-4F9A-A7CF-4083D549EAB1";
name = Bold;
paths = (
{
closed = 1;
nodes = (
"22 179 OFFCURVE",
"161 -6 OFFCURVE",
"359 -6 CURVE SMOOTH",
"472 -6 OFFCURVE",
"603 54 OFFCURVE",
"643 159 CURVE",
"484 254 LINE",
"464 190 OFFCURVE",
"408 167 OFFCURVE",
"363 167 CURVE SMOOTH",
"273 167 OFFCURVE",
"220 256 OFFCURVE",
"220 355 CURVE SMOOTH",
"220 444 OFFCURVE",
"263 541 OFFCURVE",
"361 541 CURVE SMOOTH",
"405 541 OFFCURVE",
"464 522 OFFCURVE",
"487 453 CURVE",
"636 559 LINE",
"591 652 OFFCURVE",
"491 714 OFFCURVE",
"365 714 CURVE SMOOTH",
"149 714 OFFCURVE",
"22 534 OFFCURVE",
"22 361 CURVE SMOOTH"
);
},
{
closed = 1;
nodes = (
"450 764 LINE",
"450 914 LINE",
"280 914 LINE",
"280 764 LINE"
);
}
);
width = 655;
}
);
leftKerningGroup = C;
rightKerningGroup = C;
unicode = 010A;
},
{
glyphname = dotaccent;
layers = (
{
layerId = "AE853CD8-C74C-4F9A-A7CF-4083D549EAB1";
name = Bold;
paths = (
{
closed = 1;
nodes = (
"220 580 LINE",
"220 730 LINE",
"50 730 LINE",
"50 580 LINE"
);
}
);
width = 270;
}
);
rightKerningGroup = A.sc;
unicode = 02D9;
},
{
glyphname = D;
layers = (
{
layerId = "AE853CD8-C74C-4F9A-A7CF-4083D549EAB1";
name = Bold;
paths = (
{
closed = 1;
nodes = (
"334 0 LINE SMOOTH",
"550 0 OFFCURVE",
"692 141 OFFCURVE",
"692 356 CURVE SMOOTH",
"692 552 OFFCURVE",
"570 710 OFFCURVE",
"334 710 CURVE SMOOTH",
"61 710 LINE",
"61 0 LINE"
);
},
{
closed = 1;
nodes = (
"494 249 OFFCURVE",
"436 170 OFFCURVE",
"334 170 CURVE SMOOTH",
"256 170 LINE",
"256 540 LINE",
"334 540 LINE SMOOTH",
"434 540 OFFCURVE",
"494 466 OFFCURVE",
"494 356 CURVE SMOOTH"
);
}
);
width = 717;
}
);
leftKerningGroup = B;
rightKerningGroup = D;
unicode = 0044;
},
{
glyphname = D.sc;
layers = (
{
layerId = "AE853CD8-C74C-4F9A-A7CF-4083D549EAB1";
name = Bold;
paths = (
{
closed = 1;
nodes = (
"299 0 LINE SMOOTH",
"493 0 OFFCURVE",
"621 113 OFFCURVE",
"621 285 CURVE SMOOTH",
"621 442 OFFCURVE",
"511 568 OFFCURVE",
"299 568 CURVE SMOOTH",
"55 568 LINE",
"55 0 LINE"
);
},
{
closed = 1;
nodes = (
"448 206 OFFCURVE",
"394 148 OFFCURVE",
"299 148 CURVE SMOOTH",
"225 148 LINE",
"225 420 LINE",
"299 420 LINE SMOOTH",
"392 420 OFFCURVE",
"448 366 OFFCURVE",
"448 285 CURVE SMOOTH"
);
}
);
width = 645;
}
);
rightKerningGroup = A.sc;
},
{
glyphname = Dcaron;
layers = (
{
layerId = "AE853CD8-C74C-4F9A-A7CF-4083D549EAB1";
name = Bold;
paths = (
{
closed = 1;
nodes = (
"334 0 LINE SMOOTH",
"550 0 OFFCURVE",
"692 141 OFFCURVE",
"692 356 CURVE SMOOTH",
"692 552 OFFCURVE",
"570 710 OFFCURVE",
"334 710 CURVE SMOOTH",
"61 710 LINE",
"61 0 LINE"
);
},
{
closed = 1;
nodes = (
"494 249 OFFCURVE",
"436 170 OFFCURVE",
"334 170 CURVE SMOOTH",
"256 170 LINE",
"256 540 LINE",
"334 540 LINE SMOOTH",
"434 540 OFFCURVE",
"494 466 OFFCURVE",
"494 356 CURVE SMOOTH"
);
},
{
closed = 1;
nodes = (
"136 872 LINE",
"249 757 LINE",
"385 757 LINE",
"498 872 LINE",
"402 914 LINE",
"317 851 LINE",
"232 914 LINE"
);
}
);
width = 717;
}
);
leftKerningGroup = B;
rightKerningGroup = D;
unicode = 010E;
},
{
glyphname = Dcroat;
layers = (
{
layerId = "AE853CD8-C74C-4F9A-A7CF-4083D549EAB1";
name = Bold;
paths = (
{
closed = 1;
nodes = (
"338 0 LINE SMOOTH",
"554 0 OFFCURVE",
"696 141 OFFCURVE",
"696 356 CURVE SMOOTH",
"696 552 OFFCURVE",
"574 710 OFFCURVE",
"338 710 CURVE SMOOTH",
"65 710 LINE",
"65 427 LINE",
"28 427 LINE",
"28 287 LINE",
"65 287 LINE",
"65 0 LINE"
);
},
{
closed = 1;
nodes = (
"498 249 OFFCURVE",
"440 170 OFFCURVE",
"338 170 CURVE SMOOTH",
"260 170 LINE",
"260 287 LINE",
"374 287 LINE",
"374 427 LINE",
"260 427 LINE",
"260 540 LINE",
"338 540 LINE SMOOTH",
"438 540 OFFCURVE",
"498 466 OFFCURVE",
"498 356 CURVE SMOOTH"
);
}
);
width = 721;
}
);
leftKerningGroup = B;
rightKerningGroup = D;
unicode = 0110;
},
{
glyphname = E;
layers = (
{
layerId = "AE853CD8-C74C-4F9A-A7CF-4083D549EAB1";
name = Bold;
paths = (
{
closed = 1;
nodes = (
"256 170 LINE",
"256 282 LINE",
"514 282 LINE",
"514 440 LINE",
"256 440 LINE",
"256 540 LINE",
"558 540 LINE",
"558 710 LINE",
"61 710 LINE",
"61 0 LINE",
"567 0 LINE",
"567 170 LINE"
);
}
);
width = 597;
}
);
leftKerningGroup = B;
rightKerningGroup = AE;
unicode = 0045;
},
{
glyphname = E.sc;
layers = (
{
layerId = "AE853CD8-C74C-4F9A-A7CF-4083D549EAB1";
name = Bold;
paths = (
{
closed = 1;
nodes = (
"225 148 LINE",
"225 220 LINE",
"461 220 LINE",
"461 358 LINE",
"225 358 LINE",
"225 420 LINE",
"501 420 LINE",
"501 568 LINE",
"55 568 LINE",
"55 0 LINE",
"509 0 LINE",
"509 148 LINE"
);
}
);
width = 541;
}
);
rightKerningGroup = A.sc;
},
{
glyphname = Eacute;
layers = (
{
layerId = "AE853CD8-C74C-4F9A-A7CF-4083D549EAB1";
name = Bold;
paths = (
{
closed = 1;
nodes = (
"256 170 LINE",
"256 282 LINE",
"514 282 LINE",
"514 440 LINE",
"256 440 LINE",
"256 540 LINE",
"558 540 LINE",
"558 710 LINE",
"61 710 LINE",
"61 0 LINE",
"567 0 LINE",
"567 170 LINE"
);
},
{
closed = 1;
nodes = (
"473 914 LINE",
"304 914 LINE",
"254 772 LINE",
"374 740 LINE"
);
}
);
width = 597;
}
);
leftKerningGroup = B;
rightKerningGroup = AE;
unicode = 00C9;
},
{
glyphname = Ebreve;
layers = (
{
layerId = "AE853CD8-C74C-4F9A-A7CF-4083D549EAB1";
name = Bold;
paths = (
{
closed = 1;
nodes = (
"256 170 LINE",
"256 282 LINE",
"514 282 LINE",
"514 440 LINE",
"256 440 LINE",
"256 540 LINE",
"558 540 LINE",
"558 710 LINE",
"61 710 LINE",
"61 0 LINE",
"567 0 LINE",
"567 170 LINE"
);
},
{
closed = 1;
nodes = (
"283 833 OFFCURVE",
"255 870 OFFCURVE",
"255 914 CURVE",
"157 914 LINE",
"157 819 OFFCURVE",
"222 752 OFFCURVE",
"316 752 CURVE SMOOTH",
"410 752 OFFCURVE",
"475 819 OFFCURVE",
"475 914 CURVE",
"377 914 LINE",
"373 867 OFFCURVE",
"347 833 OFFCURVE",
"316 833 CURVE SMOOTH"
);
}
);
width = 597;
}
);
leftKerningGroup = B;
rightKerningGroup = AE;
unicode = 0114;
},
{
glyphname = Ecaron;
layers = (
{
layerId = "AE853CD8-C74C-4F9A-A7CF-4083D549EAB1";
name = Bold;
paths = (
{
closed = 1;
nodes = (
"256 170 LINE",
"256 282 LINE",
"514 282 LINE",
"514 440 LINE",
"256 440 LINE",
"256 540 LINE",
"558 540 LINE",
"558 710 LINE",
"61 710 LINE",
"61 0 LINE",
"567 0 LINE",
"567 170 LINE"
);
},
{
closed = 1;
nodes = (
"135 872 LINE",
"248 757 LINE",
"384 757 LINE",
"497 872 LINE",
"401 914 LINE",
"316 851 LINE",
"231 914 LINE"
);
}
);
width = 597;
}
);
leftKerningGroup = B;
rightKerningGroup = AE;
unicode = 011A;
},
{
glyphname = Ecircumflex;
layers = (
{
layerId = "AE853CD8-C74C-4F9A-A7CF-4083D549EAB1";
name = Bold;
paths = (
{
closed = 1;
nodes = (
"256 170 LINE",
"256 282 LINE",
"514 282 LINE",
"514 440 LINE",
"256 440 LINE",
"256 540 LINE",
"558 540 LINE",
"558 710 LINE",
"61 710 LINE",
"61 0 LINE",
"567 0 LINE",
"567 170 LINE"
);
},
{
closed = 1;
nodes = (
"231 757 LINE",
"316 820 LINE",
"401 757 LINE",
"497 799 LINE",
"384 914 LINE",
"248 914 LINE",
"135 799 LINE"
);
}
);
width = 597;
}
);
leftKerningGroup = B;
rightKerningGroup = AE;
unicode = 00CA;
},
{
glyphname = Edieresis;
layers = (
{
layerId = "AE853CD8-C74C-4F9A-A7CF-4083D549EAB1";
name = Bold;
paths = (
{
closed = 1;
nodes = (
"256 170 LINE",
"256 282 LINE",
"514 282 LINE",
"514 440 LINE",
"256 440 LINE",
"256 540 LINE",
"558 540 LINE",
"558 710 LINE",
"61 710 LINE",
"61 0 LINE",
"567 0 LINE",
"567 170 LINE"
);
},
{
closed = 1;
nodes = (
"279 765 LINE",
"279 905 LINE",
"123 905 LINE",
"123 765 LINE"
);
},
{
closed = 1;
nodes = (
"509 765 LINE",
"509 905 LINE",
"353 905 LINE",
"353 765 LINE"
);
}
);
width = 597;
}
);
leftKerningGroup = B;
rightKerningGroup = AE;
unicode = 00CB;
},
{
glyphname = Edotaccent;
layers = (
{
layerId = "AE853CD8-C74C-4F9A-A7CF-4083D549EAB1";
name = Bold;
paths = (
{
closed = 1;
nodes = (
"256 170 LINE",
"256 282 LINE",
"514 282 LINE",
"514 440 LINE",
"256 440 LINE",
"256 540 LINE",
"558 540 LINE",
"558 710 LINE",
"61 710 LINE",
"61 0 LINE",
"567 0 LINE",
"567 170 LINE"
);
},
{
closed = 1;
nodes = (
"401 764 LINE",
"401 914 LINE",
"231 914 LINE",
"231 764 LINE"
);
}
);
width = 597;
}
);
leftKerningGroup = B;
rightKerningGroup = AE;
unicode = 0116;
},
{
glyphname = Egrave;
layers = (
{
layerId = "AE853CD8-C74C-4F9A-A7CF-4083D549EAB1";
name = Bold;
paths = (
{
closed = 1;
nodes = (
"256 170 LINE",
"256 282 LINE",
"514 282 LINE",
"514 440 LINE",
"256 440 LINE",
"256 540 LINE",
"558 540 LINE",
"558 710 LINE",
"61 710 LINE",
"61 0 LINE",
"567 0 LINE",
"567 170 LINE"
);
},
{
closed = 1;
nodes = (
"258 741 LINE",
"378 773 LINE",
"328 915 LINE",
"159 915 LINE"
);
}
);
width = 597;
}
);
leftKerningGroup = B;
rightKerningGroup = AE;
unicode = 00C8;
},
{
glyphname = Emacron;
layers = (
{
layerId = "AE853CD8-C74C-4F9A-A7CF-4083D549EAB1";
name = Bold;
paths = (
{
closed = 1;
nodes = (
"256 170 LINE",
"256 282 LINE",
"514 282 LINE",
"514 440 LINE",
"256 440 LINE",
"256 540 LINE",
"558 540 LINE",
"558 710 LINE",
"61 710 LINE",
"61 0 LINE",
"567 0 LINE",
"567 170 LINE"
);
},
{
closed = 1;
nodes = (
"472 791 LINE",
"472 904 LINE",
"162 904 LINE",
"162 791 LINE"
);
}
);
width = 597;
}
);
leftKerningGroup = B;
rightKerningGroup = AE;
unicode = 0112;
},
{
glyphname = Eng;
layers = (
{
layerId = "AE853CD8-C74C-4F9A-A7CF-4083D549EAB1";
name = Bold;
paths = (
{
closed = 1;
nodes = (
"483 44 LINE",
"483 -3 LINE SMOOTH",
"483 -30 OFFCURVE",
"468 -46 OFFCURVE",
"443 -46 CURVE SMOOTH",
"425 -46 OFFCURVE",
"407 -38 OFFCURVE",
"396 -26 CURVE",
"318 -155 LINE",
"359 -190 OFFCURVE",
"412 -209 OFFCURVE",
"467 -209 CURVE SMOOTH",
"584 -209 OFFCURVE",
"673 -125 OFFCURVE",
"673 5 CURVE SMOOTH",
"673 709 LINE",
"478 709 LINE",
"478 359 LINE",
"211 710 LINE",
"61 710 LINE",
"61 0 LINE",
"256 0 LINE",
"256 343 LINE"
);
}
);
width = 734;
}
);
leftKerningGroup = B;
rightKerningGroup = Eng;
unicode = 014A;
},
{
glyphname = Eogonek;
layers = (
{
layerId = "AE853CD8-C74C-4F9A-A7CF-4083D549EAB1";
name = Bold;
paths = (
{
closed = 1;
nodes = (
"345 -124 LINE",
"297 -124 OFFCURVE",
"275 -109 OFFCURVE",
"275 -87 CURVE SMOOTH",
"275 -61 OFFCURVE",
"303 -29 OFFCURVE",
"355 0 CURVE",
"567 0 LINE",
"567 170 LINE",
"256 170 LINE",
"256 282 LINE",
"514 282 LINE",
"514 440 LINE",
"256 440 LINE",
"256 540 LINE",
"558 540 LINE",
"558 710 LINE",
"61 710 LINE",
"61 0 LINE",
"262 0 LINE",
"206 -34 OFFCURVE",
"178 -76 OFFCURVE",
"178 -114 CURVE SMOOTH",
"178 -161 OFFCURVE",
"221 -202 OFFCURVE",
"310 -214 CURVE"
);
}
);
width = 597;
}
);
leftKerningGroup = B;
rightKerningGroup = AE;
unicode = 0118;
},
{
glyphname = Eth;
layers = (
{
layerId = "AE853CD8-C74C-4F9A-A7CF-4083D549EAB1";
name = Bold;
paths = (
{
closed = 1;
nodes = (
"338 0 LINE SMOOTH",
"554 0 OFFCURVE",
"696 141 OFFCURVE",
"696 356 CURVE SMOOTH",
"696 552 OFFCURVE",
"574 710 OFFCURVE",
"338 710 CURVE SMOOTH",
"65 710 LINE",
"65 427 LINE",
"28 427 LINE",
"28 287 LINE",
"65 287 LINE",
"65 0 LINE"
);
},
{
closed = 1;
nodes = (
"498 249 OFFCURVE",
"440 170 OFFCURVE",
"338 170 CURVE SMOOTH",
"260 170 LINE",
"260 287 LINE",
"374 287 LINE",
"374 427 LINE",
"260 427 LINE",
"260 540 LINE",
"338 540 LINE SMOOTH",
"438 540 OFFCURVE",
"498 466 OFFCURVE",
"498 356 CURVE SMOOTH"
);
}
);
width = 721;
}
);
leftKerningGroup = B;
rightKerningGroup = D;
unicode = 00D0;
},
{
glyphname = Etilde;
layers = (
{
layerId = "AE853CD8-C74C-4F9A-A7CF-4083D549EAB1";
name = Bold;
paths = (
{
closed = 1;
nodes = (
"256 170 LINE",
"256 282 LINE",
"514 282 LINE",
"514 440 LINE",
"256 440 LINE",
"256 540 LINE",
"558 540 LINE",
"558 710 LINE",
"61 710 LINE",
"61 0 LINE",
"567 0 LINE",
"567 170 LINE"
);
},
{
closed = 1;
nodes = (
"483 756 OFFCURVE",
"523 891 OFFCURVE",
"523 914 CURVE",
"423 914 LINE",
"423 911 OFFCURVE",
"417 863 OFFCURVE",
"373 863 CURVE SMOOTH",
"327 863 OFFCURVE",
"303 914 OFFCURVE",
"238 914 CURVE SMOOTH",
"138 914 OFFCURVE",
"99 791 OFFCURVE",
"99 756 CURVE",
"200 756 LINE",
"200 758 OFFCURVE",
"201 804 OFFCURVE",
"246 804 CURVE SMOOTH",
"291 804 OFFCURVE",
"319 756 OFFCURVE",
"380 756 CURVE SMOOTH"
);
}
);
width = 597;
}
);
leftKerningGroup = B;
rightKerningGroup = AE;
unicode = 1EBC;
},
{
glyphname = Euro;
layers = (
{
layerId = "AE853CD8-C74C-4F9A-A7CF-4083D549EAB1";
name = Bold;
paths = (
{
closed = 1;
nodes = (
"74 454 LINE",
"34 354 LINE",
"102 354 LINE",
"103 339 OFFCURVE",
"103 325 OFFCURVE",
"105 311 CURVE",
"74 311 LINE",
"34 211 LINE",
"133 211 LINE",
"185 89 OFFCURVE",
"296 -6 OFFCURVE",
"439 -6 CURVE SMOOTH",
"552 -6 OFFCURVE",
"683 54 OFFCURVE",
"723 159 CURVE",
"564 254 LINE",
"544 190 OFFCURVE",
"488 167 OFFCURVE",
"443 167 CURVE SMOOTH",
"404 167 OFFCURVE",
"372 184 OFFCURVE",
"348 211 CURVE",
"439 211 LINE",
"479 311 LINE",
"303 311 LINE",
"301 325 OFFCURVE",
"300 339 OFFCURVE",
"300 354 CURVE",
"467 354 LINE",
"507 454 LINE",
"319 454 LINE",
"341 503 OFFCURVE",
"380 541 OFFCURVE",
"441 541 CURVE SMOOTH",
"485 541 OFFCURVE",
"544 522 OFFCURVE",
"567 453 CURVE",
"716 559 LINE",
"671 652 OFFCURVE",
"571 714 OFFCURVE",
"445 714 CURVE SMOOTH",
"268 714 OFFCURVE",
"150 593 OFFCURVE",
"114 454 CURVE"
);
}
);
width = 761;
}
);
rightKerningGroup = A.sc;
unicode = 20AC;
},
{
glyphname = F;
layers = (
{
layerId = "AE853CD8-C74C-4F9A-A7CF-4083D549EAB1";
name = Bold;
paths = (
{
closed = 1;
nodes = (
"256 0 LINE",
"256 264 LINE",
"494 264 LINE",
"494 422 LINE",
"256 422 LINE",
"256 540 LINE",
"548 540 LINE",
"548 710 LINE",
"61 710 LINE",
"61 0 LINE"
);
}
);
width = 559;
}
);
leftKerningGroup = B;
rightKerningGroup = F;
unicode = 0046;
},
{
glyphname = F.sc;
layers = (
{
layerId = "AE853CD8-C74C-4F9A-A7CF-4083D549EAB1";
name = Bold;
paths = (
{
closed = 1;
nodes = (
"225 0 LINE",
"225 204 LINE",
"444 204 LINE",
"444 342 LINE",
"225 342 LINE",
"225 420 LINE",
"492 420 LINE",
"492 568 LINE",
"55 568 LINE",
"55 0 LINE"
);
}
);
width = 505;
}
);
rightKerningGroup = A.sc;
},
{
glyphname = G;
layers = (
{
layerId = "AE853CD8-C74C-4F9A-A7CF-4083D549EAB1";
name = Bold;
paths = (
{
closed = 1;
nodes = (
"503 0 LINE",
"664 0 LINE",
"664 378 LINE",
"372 378 LINE",
"372 238 LINE",
"497 238 LINE",
"459 193 OFFCURVE",
"413 168 OFFCURVE",
"365 168 CURVE SMOOTH",
"279 168 OFFCURVE",
"221 243 OFFCURVE",
"221 354 CURVE SMOOTH",
"221 464 OFFCURVE",
"279 542 OFFCURVE",
"360 542 CURVE SMOOTH",
"414 542 OFFCURVE",
"468 505 OFFCURVE",
"492 449 CURVE",
"637 560 LINE",
"590 656 OFFCURVE",
"487 715 OFFCURVE",
"367 715 CURVE SMOOTH",
"174 715 OFFCURVE",
"23 560 OFFCURVE",
"23 361 CURVE SMOOTH",
"23 164 OFFCURVE",
"173 -5 OFFCURVE",
"348 -5 CURVE SMOOTH",
"407 -5 OFFCURVE",
"457 15 OFFCURVE",
"503 58 CURVE"
);
}
);
width = 699;
}
);
leftKerningGroup = C;
rightKerningGroup = G;
unicode = 0047;
},
{
glyphname = G.alt;
layers = (
{
layerId = "AE853CD8-C74C-4F9A-A7CF-4083D549EAB1";
name = Bold;
paths = (
{
closed = 1;
nodes = (
"571 -5 OFFCURVE",
"693 137 OFFCURVE",
"693 309 CURVE SMOOTH",
"693 398 LINE",
"371 398 LINE",
"371 228 LINE",
"482 228 LINE",
"464 197 OFFCURVE",
"416 168 OFFCURVE",
"361 168 CURVE SMOOTH",
"256 168 OFFCURVE",
"220 273 OFFCURVE",
"220 356 CURVE SMOOTH",
"220 448 OFFCURVE",
"265 542 OFFCURVE",
"362 542 CURVE SMOOTH",
"450 542 OFFCURVE",
"485 463 OFFCURVE",
"491 449 CURVE",
"646 570 LINE",
"593 664 OFFCURVE",
"496 715 OFFCURVE",
"374 715 CURVE SMOOTH",
"153 715 OFFCURVE",
"22 541 OFFCURVE",
"22 361 CURVE SMOOTH",
"22 171 OFFCURVE",
"169 -5 OFFCURVE",
"381 -5 CURVE SMOOTH"
);
}
);
width = 711;
}
);
rightKerningGroup = G.alt;
},
{
glyphname = G.sc;
layers = (
{
layerId = "AE853CD8-C74C-4F9A-A7CF-4083D549EAB1";
name = Bold;
paths = (
{
closed = 1;
nodes = (
"449 0 LINE",
"590 0 LINE",
"590 306 LINE",
"332 306 LINE",
"332 184 LINE",
"426 184 LINE",
"395 160 OFFCURVE",
"361 147 OFFCURVE",
"326 147 CURVE SMOOTH",
"249 147 OFFCURVE",
"196 200 OFFCURVE",
"196 283 CURVE SMOOTH",
"196 366 OFFCURVE",
"248 421 OFFCURVE",
"321 421 CURVE SMOOTH",
"369 421 OFFCURVE",
"418 392 OFFCURVE",
"439 351 CURVE",
"566 448 LINE",
"525 525 OFFCURVE",
"434 572 OFFCURVE",
"327 572 CURVE SMOOTH",
"156 572 OFFCURVE",
"23 450 OFFCURVE",
"23 289 CURVE SMOOTH",
"23 130 OFFCURVE",
"156 -4 OFFCURVE",
"311 -4 CURVE SMOOTH",
"364 -4 OFFCURVE",
"407 9 OFFCURVE",
"449 41 CURVE"
);
}
);
width = 624;
}
);
rightKerningGroup = A.sc;
},
{
glyphname = Gbreve;
layers = (
{
layerId = "AE853CD8-C74C-4F9A-A7CF-4083D549EAB1";
name = Bold;
paths = (
{
closed = 1;
nodes = (
"503 0 LINE",
"664 0 LINE",
"664 378 LINE",
"372 378 LINE",
"372 238 LINE",
"497 238 LINE",
"459 193 OFFCURVE",
"413 168 OFFCURVE",
"365 168 CURVE SMOOTH",
"279 168 OFFCURVE",
"221 243 OFFCURVE",
"221 354 CURVE SMOOTH",
"221 464 OFFCURVE",
"279 542 OFFCURVE",
"360 542 CURVE SMOOTH",
"414 542 OFFCURVE",
"468 505 OFFCURVE",
"492 449 CURVE",
"637 560 LINE",
"590 656 OFFCURVE",
"487 715 OFFCURVE",
"367 715 CURVE SMOOTH",
"174 715 OFFCURVE",
"23 560 OFFCURVE",
"23 361 CURVE SMOOTH",
"23 164 OFFCURVE",
"173 -5 OFFCURVE",
"348 -5 CURVE SMOOTH",
"407 -5 OFFCURVE",
"457 15 OFFCURVE",
"503 58 CURVE"
);
},
{
closed = 1;
nodes = (
"333 833 OFFCURVE",
"305 870 OFFCURVE",
"305 914 CURVE",
"207 914 LINE",
"207 819 OFFCURVE",
"272 752 OFFCURVE",
"366 752 CURVE SMOOTH",
"460 752 OFFCURVE",
"525 819 OFFCURVE",
"525 914 CURVE",
"427 914 LINE",
"423 867 OFFCURVE",
"397 833 OFFCURVE",
"366 833 CURVE SMOOTH"
);
}
);
width = 699;
}
);
leftKerningGroup = C;
rightKerningGroup = G;
unicode = 011E;
},
{
glyphname = Gcircumflex;
layers = (
{
layerId = "AE853CD8-C74C-4F9A-A7CF-4083D549EAB1";
name = Bold;
paths = (
{
closed = 1;
nodes = (
"503 0 LINE",
"664 0 LINE",
"664 378 LINE",
"372 378 LINE",
"372 238 LINE",
"497 238 LINE",
"459 193 OFFCURVE",
"413 168 OFFCURVE",
"365 168 CURVE SMOOTH",
"279 168 OFFCURVE",
"221 243 OFFCURVE",
"221 354 CURVE SMOOTH",
"221 464 OFFCURVE",
"279 542 OFFCURVE",
"360 542 CURVE SMOOTH",
"414 542 OFFCURVE",
"468 505 OFFCURVE",
"492 449 CURVE",
"637 560 LINE",
"590 656 OFFCURVE",
"487 715 OFFCURVE",
"367 715 CURVE SMOOTH",
"174 715 OFFCURVE",
"23 560 OFFCURVE",
"23 361 CURVE SMOOTH",
"23 164 OFFCURVE",
"173 -5 OFFCURVE",
"348 -5 CURVE SMOOTH",
"407 -5 OFFCURVE",
"457 15 OFFCURVE",
"503 58 CURVE"
);
},
{
closed = 1;
nodes = (
"281 757 LINE",
"366 820 LINE",
"451 757 LINE",
"547 799 LINE",
"434 914 LINE",
"298 914 LINE",
"185 799 LINE"
);
}
);
width = 699;
}
);
leftKerningGroup = C;
rightKerningGroup = G;
unicode = 011C;
},
{
glyphname = Gcommaaccent;
layers = (
{
layerId = "AE853CD8-C74C-4F9A-A7CF-4083D549EAB1";
name = Bold;
paths = (
{
closed = 1;
nodes = (
"503 0 LINE",
"664 0 LINE",
"664 378 LINE",
"372 378 LINE",
"372 238 LINE",
"497 238 LINE",
"459 193 OFFCURVE",
"413 168 OFFCURVE",
"365 168 CURVE SMOOTH",
"279 168 OFFCURVE",
"221 243 OFFCURVE",
"221 354 CURVE SMOOTH",
"221 464 OFFCURVE",
"279 542 OFFCURVE",
"360 542 CURVE SMOOTH",
"414 542 OFFCURVE",
"468 505 OFFCURVE",
"492 449 CURVE",
"637 560 LINE",
"590 656 OFFCURVE",
"487 715 OFFCURVE",
"367 715 CURVE SMOOTH",
"174 715 OFFCURVE",
"23 560 OFFCURVE",
"23 361 CURVE SMOOTH",
"23 164 OFFCURVE",
"173 -5 OFFCURVE",
"348 -5 CURVE SMOOTH",
"407 -5 OFFCURVE",
"457 15 OFFCURVE",
"503 58 CURVE"
);
},
{
closed = 1;
nodes = (
"239 -213 LINE",
"350 -213 OFFCURVE",
"436 -206 OFFCURVE",
"436 -118 CURVE SMOOTH",
"436 -46 LINE",
"282 -46 LINE",
"282 -110 LINE SMOOTH",
"282 -131 OFFCURVE",
"267 -140 OFFCURVE",
"239 -140 CURVE"
);
}
);
width = 699;
}
);
leftKerningGroup = C;
rightKerningGroup = G;
unicode = 0122;
},
{
glyphname = commaaccent;
layers = (
{
layerId = "AE853CD8-C74C-4F9A-A7CF-4083D549EAB1";
name = Bold;
paths = (
{
closed = 1;
nodes = (
"24 -213 LINE",
"135 -213 OFFCURVE",
"221 -206 OFFCURVE",
"221 -118 CURVE SMOOTH",
"221 -46 LINE",
"67 -46 LINE",
"67 -110 LINE SMOOTH",
"67 -131 OFFCURVE",
"52 -140 OFFCURVE",
"24 -140 CURVE"
);
}
);
width = 241;
}
);
rightKerningGroup = A.sc;
unicode = F6C3;
},
{
glyphname = Gdotaccent;
layers = (
{
layerId = "AE853CD8-C74C-4F9A-A7CF-4083D549EAB1";
name = Bold;
paths = (
{
closed = 1;
nodes = (
"503 0 LINE",
"664 0 LINE",
"664 378 LINE",
"372 378 LINE",
"372 238 LINE",
"497 238 LINE",
"459 193 OFFCURVE",
"413 168 OFFCURVE",
"365 168 CURVE SMOOTH",
"279 168 OFFCURVE",
"221 243 OFFCURVE",
"221 354 CURVE SMOOTH",
"221 464 OFFCURVE",
"279 542 OFFCURVE",
"360 542 CURVE SMOOTH",
"414 542 OFFCURVE",
"468 505 OFFCURVE",
"492 449 CURVE",
"637 560 LINE",
"590 656 OFFCURVE",
"487 715 OFFCURVE",
"367 715 CURVE SMOOTH",
"174 715 OFFCURVE",
"23 560 OFFCURVE",
"23 361 CURVE SMOOTH",
"23 164 OFFCURVE",
"173 -5 OFFCURVE",
"348 -5 CURVE SMOOTH",
"407 -5 OFFCURVE",
"457 15 OFFCURVE",
"503 58 CURVE"
);
},
{
closed = 1;
nodes = (
"451 764 LINE",
"451 914 LINE",
"281 914 LINE",
"281 764 LINE"
);
}
);
width = 699;
}
);
leftKerningGroup = C;
rightKerningGroup = G;
unicode = 0120;
},
{
glyphname = H;
lastChange = "2014-08-22 10:32:31 +0100";
layers = (
{
layerId = "AE853CD8-C74C-4F9A-A7CF-4083D549EAB1";
name = Bold;
paths = (
{
closed = 1;
nodes = (
"494 710 LINE",
"494 448 LINE SMOOTH",
"256 448 LINE",
"256 710 LINE",
"61 710 LINE",
"61 0 LINE",
"256 0 LINE",
"256 278 LINE",
"494 278 LINE",
"494 0 LINE",
"689 0 LINE",
"689 710 LINE"
);
}
);
width = 750;
}
);
leftKerningGroup = B;
rightKerningGroup = Eng;
unicode = 0048;
},
{
glyphname = H.sc;
layers = (
{
layerId = "AE853CD8-C74C-4F9A-A7CF-4083D549EAB1";
name = Bold;
paths = (
{
closed = 1;
nodes = (
"447 568 LINE",
"447 365 LINE",
"225 365 LINE",
"225 568 LINE",
"55 568 LINE",
"55 0 LINE",
"225 0 LINE",
"225 216 LINE",
"447 216 LINE",
"447 0 LINE",
"617 0 LINE",
"617 568 LINE"
);
}
);
width = 672;
}
);
rightKerningGroup = A.sc;
},
{
glyphname = Hbar;
layers = (
{
layerId = "AE853CD8-C74C-4F9A-A7CF-4083D549EAB1";
name = Bold;
paths = (
{
closed = 1;
nodes = (
"497 710 LINE",
"497 626 LINE",
"259 626 LINE",
"259 710 LINE",
"64 710 LINE",
"64 626 LINE",
"14 626 LINE",
"14 538 LINE",
"64 538 LINE",
"64 0 LINE",
"259 0 LINE",
"259 278 LINE",
"497 278 LINE",
"497 0 LINE",
"692 0 LINE",
"692 538 LINE",
"742 538 LINE",
"742 626 LINE",
"692 626 LINE",
"692 710 LINE"
);
},
{
closed = 1;
nodes = (
"259 448 LINE",
"259 538 LINE",
"497 538 LINE",
"497 448 LINE"
);
}
);
width = 756;
}
);
leftKerningGroup = B;
rightKerningGroup = Eng;
unicode = 0126;
},
{
glyphname = Hcircumflex;
layers = (
{
layerId = "AE853CD8-C74C-4F9A-A7CF-4083D549EAB1";
name = Bold;
paths = (
{
closed = 1;
nodes = (
"494 710 LINE",
"494 448 LINE",
"256 448 LINE",
"256 710 LINE",
"61 710 LINE",
"61 0 LINE",
"256 0 LINE",
"256 278 LINE",
"494 278 LINE",
"494 0 LINE",
"689 0 LINE",
"689 710 LINE"
);
},
{
closed = 1;
nodes = (
"293 756 LINE",
"378 819 LINE",
"463 756 LINE",
"559 798 LINE",
"446 913 LINE",
"310 913 LINE",
"197 798 LINE"
);
}
);
width = 750;
}
);
leftKerningGroup = B;
rightKerningGroup = Eng;
unicode = 0124;
},
{
glyphname = I;
lastChange = "2014-08-22 10:29:38 +0100";
layers = (
{
layerId = "AE853CD8-C74C-4F9A-A7CF-4083D549EAB1";
name = Bold;
paths = (
{
closed = 1;
nodes = (
"256 0 LINE",
"256 710 LINE",
"61 710 LINE SMOOTH",
"61 0 LINE"
);
}
);
width = 317;
}
);
leftKerningGroup = B;
rightKerningGroup = Eng;
unicode = 0049;
},
{
glyphname = I.sc;
layers = (
{
layerId = "AE853CD8-C74C-4F9A-A7CF-4083D549EAB1";
name = Bold;
paths = (
{
closed = 1;
nodes = (
"225 0 LINE",
"225 568 LINE",
"55 568 LINE",
"55 0 LINE"
);
}
);
width = 280;
}
);
rightKerningGroup = A.sc;
},
{
glyphname = IJ;
layers = (
{
layerId = "AE853CD8-C74C-4F9A-A7CF-4083D549EAB1";
name = Bold;
paths = (
{
closed = 1;
nodes = (
"256 0 LINE",
"256 710 LINE",
"61 710 LINE",
"61 0 LINE"
);
},
{
closed = 1;
nodes = (
"322 33 LINE",
"364 4 OFFCURVE",
"415 -11 OFFCURVE",
"476 -11 CURVE SMOOTH",
"734 -11 OFFCURVE",
"766 133 OFFCURVE",
"766 349 CURVE SMOOTH",
"766 710 LINE",
"571 710 LINE",
"571 349 LINE SMOOTH",
"571 214 OFFCURVE",
"559 162 OFFCURVE",
"476 162 CURVE SMOOTH",
"419 162 OFFCURVE",
"371 186 OFFCURVE",
"363 192 CURVE"
);
}
);
width = 819;
}
);
leftKerningGroup = B;
rightKerningGroup = IJ;
unicode = 0132;
},
{
glyphname = J;
layers = (
{
layerId = "AE853CD8-C74C-4F9A-A7CF-4083D549EAB1";
name = Bold;
paths = (
{
closed = 1;
nodes = (
"5 33 LINE",
"47 4 OFFCURVE",
"98 -11 OFFCURVE",
"159 -11 CURVE SMOOTH",
"417 -11 OFFCURVE",
"449 133 OFFCURVE",
"449 349 CURVE SMOOTH",
"449 710 LINE",
"254 710 LINE",
"254 349 LINE SMOOTH",
"254 214 OFFCURVE",
"242 162 OFFCURVE",
"159 162 CURVE SMOOTH",
"102 162 OFFCURVE",
"54 186 OFFCURVE",
"46 192 CURVE"
);
}
);
width = 502;
}
);
leftKerningGroup = J;
rightKerningGroup = IJ;
unicode = 004A;
},
{
glyphname = Iacute;
layers = (
{
layerId = "AE853CD8-C74C-4F9A-A7CF-4083D549EAB1";
name = Bold;
paths = (
{
closed = 1;
nodes = (
"256 0 LINE",
"256 710 LINE",
"61 710 LINE",
"61 0 LINE"
);
},
{
closed = 1;
nodes = (
"315 914 LINE",
"146 914 LINE",
"96 772 LINE",
"216 740 LINE"
);
}
);
width = 317;
}
);
leftKerningGroup = B;
rightKerningGroup = Eng;
unicode = 00CD;
},
{
glyphname = Ibreve;
layers = (
{
layerId = "AE853CD8-C74C-4F9A-A7CF-4083D549EAB1";
name = Bold;
paths = (
{
closed = 1;
nodes = (
"256 0 LINE",
"256 710 LINE",
"61 710 LINE",
"61 0 LINE"
);
},
{
closed = 1;
nodes = (
"125 833 OFFCURVE",
"97 870 OFFCURVE",
"97 914 CURVE",
"-1 914 LINE",
"-1 819 OFFCURVE",
"64 752 OFFCURVE",
"158 752 CURVE SMOOTH",
"252 752 OFFCURVE",
"317 819 OFFCURVE",
"317 914 CURVE",
"219 914 LINE",
"215 867 OFFCURVE",
"189 833 OFFCURVE",
"158 833 CURVE SMOOTH"
);
}
);
width = 317;
}
);
leftKerningGroup = B;
rightKerningGroup = Eng;
unicode = 012C;
},
{
glyphname = Icircumflex;
layers = (
{
layerId = "AE853CD8-C74C-4F9A-A7CF-4083D549EAB1";
name = Bold;
paths = (
{
closed = 1;
nodes = (
"256 0 LINE",
"256 710 LINE",
"61 710 LINE",
"61 0 LINE"
);
},
{
closed = 1;
nodes = (
"73 757 LINE",
"158 820 LINE",
"243 757 LINE",
"339 799 LINE",
"226 914 LINE",
"90 914 LINE",
"-23 799 LINE"
);
}
);
width = 317;
}
);
leftKerningGroup = B;
rightKerningGroup = Eng;
unicode = 00CE;
},
{
glyphname = Idieresis;
layers = (
{
layerId = "AE853CD8-C74C-4F9A-A7CF-4083D549EAB1";
name = Bold;
paths = (
{
closed = 1;
nodes = (
"256 0 LINE",
"256 710 LINE",
"61 710 LINE",
"61 0 LINE"
);
},
{
closed = 1;
nodes = (
"121 765 LINE",
"121 905 LINE",
"-35 905 LINE",
"-35 765 LINE"
);
},
{
closed = 1;
nodes = (
"351 765 LINE",
"351 905 LINE",
"195 905 LINE",
"195 765 LINE"
);
}
);
width = 317;
}
);
leftKerningGroup = B;
rightKerningGroup = Eng;
unicode = 00CF;
},
{
glyphname = Idotaccent;
layers = (
{
layerId = "AE853CD8-C74C-4F9A-A7CF-4083D549EAB1";
name = Bold;
paths = (
{
closed = 1;
nodes = (
"256 0 LINE",
"256 710 LINE",
"61 710 LINE",
"61 0 LINE"
);
},
{
closed = 1;
nodes = (
"243 764 LINE",
"243 914 LINE",
"73 914 LINE",
"73 764 LINE"
);
}
);
width = 317;
}
);
leftKerningGroup = B;
rightKerningGroup = Eng;
unicode = 0130;
},
{
glyphname = Igrave;
layers = (
{
layerId = "AE853CD8-C74C-4F9A-A7CF-4083D549EAB1";
name = Bold;
paths = (
{
closed = 1;
nodes = (
"256 0 LINE",
"256 710 LINE",
"61 710 LINE",
"61 0 LINE"
);
},
{
closed = 1;
nodes = (
"100 741 LINE",
"220 773 LINE",
"170 915 LINE",
"1 915 LINE"
);
}
);
width = 317;
}
);
leftKerningGroup = B;
rightKerningGroup = Eng;
unicode = 00CC;
},
{
glyphname = Imacron;
layers = (
{
layerId = "AE853CD8-C74C-4F9A-A7CF-4083D549EAB1";
name = Bold;
paths = (
{
closed = 1;
nodes = (
"256 0 LINE",
"256 710 LINE",
"61 710 LINE",
"61 0 LINE"
);
},
{
closed = 1;
nodes = (
"314 791 LINE",
"314 904 LINE",
"4 904 LINE",
"4 791 LINE"
);
}
);
width = 317;
}
);
leftKerningGroup = B;
rightKerningGroup = Eng;
unicode = 012A;
},
{
glyphname = Iogonek;
layers = (
{
layerId = "AE853CD8-C74C-4F9A-A7CF-4083D549EAB1";
name = Bold;
paths = (
{
closed = 1;
nodes = (
"244 -125 LINE",
"196 -125 OFFCURVE",
"174 -110 OFFCURVE",
"174 -88 CURVE SMOOTH",
"174 -62 OFFCURVE",
"203 -30 OFFCURVE",
"256 0 CURVE",
"256 710 LINE",
"61 710 LINE",
"61 0 LINE",
"163 0 LINE",
"106 -34 OFFCURVE",
"77 -76 OFFCURVE",
"77 -115 CURVE SMOOTH",
"77 -162 OFFCURVE",
"120 -203 OFFCURVE",
"209 -215 CURVE"
);
}
);
width = 317;
}
);
leftKerningGroup = B;
rightKerningGroup = Eng;
unicode = 012E;
},
{
glyphname = Itilde;
layers = (
{
layerId = "AE853CD8-C74C-4F9A-A7CF-4083D549EAB1";
name = Bold;
paths = (
{
closed = 1;
nodes = (
"256 0 LINE",
"256 710 LINE",
"61 710 LINE",
"61 0 LINE"
);
},
{
closed = 1;
nodes = (
"325 756 OFFCURVE",
"365 891 OFFCURVE",
"365 914 CURVE",
"265 914 LINE",
"265 911 OFFCURVE",
"259 863 OFFCURVE",
"215 863 CURVE SMOOTH",
"169 863 OFFCURVE",
"145 914 OFFCURVE",
"80 914 CURVE SMOOTH",
"-20 914 OFFCURVE",
"-59 791 OFFCURVE",
"-59 756 CURVE",
"42 756 LINE",
"42 758 OFFCURVE",
"43 804 OFFCURVE",
"88 804 CURVE SMOOTH",
"133 804 OFFCURVE",
"161 756 OFFCURVE",
"222 756 CURVE SMOOTH"
);
}
);
width = 317;
}
);
leftKerningGroup = B;
rightKerningGroup = Eng;
unicode = 0128;
},
{
glyphname = J.sc;
layers = (
{
layerId = "AE853CD8-C74C-4F9A-A7CF-4083D549EAB1";
name = Bold;
paths = (
{
closed = 1;
nodes = (
"6 26 LINE",
"44 3 OFFCURVE",
"90 -9 OFFCURVE",
"145 -9 CURVE SMOOTH",
"375 -9 OFFCURVE",
"403 106 OFFCURVE",
"403 279 CURVE SMOOTH",
"403 568 LINE",
"233 568 LINE",
"233 279 LINE SMOOTH",
"233 178 OFFCURVE",
"222 142 OFFCURVE",
"145 142 CURVE SMOOTH",
"93 142 OFFCURVE",
"50 162 OFFCURVE",
"42 165 CURVE"
);
}
);
width = 452;
}
);
rightKerningGroup = A.sc;
},
{
glyphname = Jcircumflex;
layers = (
{
layerId = "AE853CD8-C74C-4F9A-A7CF-4083D549EAB1";
name = Bold;
paths = (
{
closed = 1;
nodes = (
"5 33 LINE",
"47 4 OFFCURVE",
"98 -11 OFFCURVE",
"159 -11 CURVE SMOOTH",
"417 -11 OFFCURVE",
"449 133 OFFCURVE",
"449 349 CURVE SMOOTH",
"449 710 LINE",
"254 710 LINE",
"254 349 LINE SMOOTH",
"254 214 OFFCURVE",
"242 162 OFFCURVE",
"159 162 CURVE SMOOTH",
"102 162 OFFCURVE",
"54 186 OFFCURVE",
"46 192 CURVE"
);
},
{
closed = 1;
nodes = (
"269 757 LINE",
"354 820 LINE",
"439 757 LINE",
"535 799 LINE",
"422 914 LINE",
"286 914 LINE",
"173 799 LINE"
);
}
);
width = 502;
}
);
leftKerningGroup = J;
rightKerningGroup = IJ;
unicode = 0134;
},
{
glyphname = K;
layers = (
{
layerId = "AE853CD8-C74C-4F9A-A7CF-4083D549EAB1";
name = Bold;
paths = (
{
closed = 1;
nodes = (
"256 0 LINE",
"256 211 LINE",
"319 283 LINE",
"506 0 LINE",
"710 0 LINE",
"434 392 LINE",
"692 710 LINE",
"492 710 LINE",
"256 420 LINE",
"256 710 LINE",
"61 710 LINE",
"61 0 LINE"
);
}
);
width = 689;
}
);
leftKerningGroup = B;
rightKerningGroup = K;
unicode = 004B;
},
{
glyphname = K.sc;
layers = (
{
layerId = "AE853CD8-C74C-4F9A-A7CF-4083D549EAB1";
name = Bold;
paths = (
{
closed = 1;
nodes = (
"225 0 LINE",
"225 168 LINE",
"285 218 LINE",
"457 0 LINE",
"635 0 LINE",
"386 313 LINE",
"619 568 LINE",
"444 568 LINE",
"225 350 LINE",
"225 568 LINE",
"55 568 LINE",
"55 0 LINE"
);
}
);
width = 622;
}
);
rightKerningGroup = A.sc;
},
{
glyphname = Kcommaaccent;
layers = (
{
layerId = "AE853CD8-C74C-4F9A-A7CF-4083D549EAB1";
name = Bold;
paths = (
{
closed = 1;
nodes = (
"256 0 LINE",
"256 211 LINE",
"319 283 LINE",
"506 0 LINE",
"710 0 LINE",
"434 392 LINE",
"692 710 LINE",
"492 710 LINE",
"256 420 LINE",
"256 710 LINE",
"61 710 LINE",
"61 0 LINE"
);
},
{
closed = 1;
nodes = (
"248 -213 LINE",
"359 -213 OFFCURVE",
"445 -206 OFFCURVE",
"445 -118 CURVE SMOOTH",
"445 -46 LINE",
"291 -46 LINE",
"291 -110 LINE SMOOTH",
"291 -131 OFFCURVE",
"276 -140 OFFCURVE",
"248 -140 CURVE"
);
}
);
width = 689;
}
);
leftKerningGroup = B;
rightKerningGroup = K;
unicode = 0136;
},
{
glyphname = L;
layers = (
{
layerId = "AE853CD8-C74C-4F9A-A7CF-4083D549EAB1";
name = Bold;
paths = (
{
closed = 1;
nodes = (
"578 0 LINE",
"578 170 LINE",
"256 170 LINE",
"256 710 LINE",
"61 710 LINE",
"61 0 LINE"
);
}
);
width = 588;
}
);
leftKerningGroup = B;
rightKerningGroup = L;
unicode = 004C;
},
{
glyphname = L.sc;
layers = (
{
layerId = "AE853CD8-C74C-4F9A-A7CF-4083D549EAB1";
name = Bold;
paths = (
{
closed = 1;
nodes = (
"473 0 LINE",
"473 148 LINE",
"225 148 LINE",
"225 568 LINE",
"55 568 LINE",
"55 0 LINE"
);
}
);
width = 483;
}
);
rightKerningGroup = A.sc;
},
{
glyphname = Lacute;
layers = (
{
layerId = "AE853CD8-C74C-4F9A-A7CF-4083D549EAB1";
name = Bold;
paths = (
{
closed = 1;
nodes = (
"578 0 LINE",
"578 170 LINE",
"256 170 LINE",
"256 710 LINE",
"61 710 LINE",
"61 0 LINE"
);
},
{
closed = 1;
nodes = (
"528 914 LINE",
"359 914 LINE",
"309 772 LINE",
"429 740 LINE"
);
}
);
width = 588;
}
);
leftKerningGroup = B;
rightKerningGroup = L;
unicode = 0139;
},
{
glyphname = Lcaron;
layers = (
{
layerId = "AE853CD8-C74C-4F9A-A7CF-4083D549EAB1";
name = Bold;
paths = (
{
closed = 1;
nodes = (
"578 0 LINE",
"578 170 LINE",
"256 170 LINE",
"256 710 LINE",
"61 710 LINE",
"61 0 LINE"
);
},
{
closed = 1;
nodes = (
"538 729 LINE",
"369 729 LINE",
"319 587 LINE",
"439 555 LINE"
);
}
);
width = 589;
}
);
leftKerningGroup = B;
rightKerningGroup = L;
unicode = 013D;
},
{
glyphname = Lcommaaccent;
layers = (
{
layerId = "AE853CD8-C74C-4F9A-A7CF-4083D549EAB1";
name = Bold;
paths = (
{
closed = 1;
nodes = (
"578 0 LINE",
"578 170 LINE",
"256 170 LINE",
"256 710 LINE",
"61 710 LINE",
"61 0 LINE"
);
},
{
closed = 1;
nodes = (
"215 -213 LINE",
"326 -213 OFFCURVE",
"412 -206 OFFCURVE",
"412 -118 CURVE SMOOTH",
"412 -46 LINE",
"258 -46 LINE",
"258 -110 LINE SMOOTH",
"258 -131 OFFCURVE",
"243 -140 OFFCURVE",
"215 -140 CURVE"
);
}
);
width = 588;
}
);
leftKerningGroup = B;
rightKerningGroup = L;
unicode = 013B;
},
{
glyphname = Ldot;
layers = (
{
layerId = "AE853CD8-C74C-4F9A-A7CF-4083D549EAB1";
name = Bold;
paths = (
{
closed = 1;
nodes = (
"578 0 LINE",
"578 170 LINE",
"256 170 LINE",
"256 710 LINE",
"61 710 LINE",
"61 0 LINE"
);
},
{
closed = 1;
nodes = (
"518 317 LINE",
"518 501 LINE",
"364 501 LINE",
"364 317 LINE"
);
}
);
width = 589;
}
);
rightKerningGroup = L;
unicode = 013F;
},
{
glyphname = periodcentered;
layers = (
{
layerId = "AE853CD8-C74C-4F9A-A7CF-4083D549EAB1";
name = Bold;
paths = (
{
closed = 1;
nodes = (
"204 238 LINE",
"204 422 LINE",
"50 422 LINE",
"50 238 LINE"
);
}
);
width = 254;
}
);
rightKerningGroup = A.sc;
unicode = 00B7;
},
{
glyphname = Lslash;
layers = (
{
layerId = "AE853CD8-C74C-4F9A-A7CF-4083D549EAB1";
name = Bold;
paths = (
{
closed = 1;
nodes = (
"590 0 LINE",
"590 170 LINE",
"268 170 LINE",
"268 370 LINE",
"382 426 LINE",
"339 527 LINE",
"268 492 LINE",
"268 710 LINE",
"73 710 LINE",
"73 397 LINE",
"-17 353 LINE",
"26 252 LINE",
"73 275 LINE",
"73 0 LINE"
);
}
);
width = 600;
}
);
leftKerningGroup = B;
rightKerningGroup = L;
unicode = 0141;
},
{
glyphname = M;
layers = (
{
layerId = "AE853CD8-C74C-4F9A-A7CF-4083D549EAB1";
name = Bold;
paths = (
{
closed = 1;
nodes = (
"793 0 LINE",
"793 710 LINE",
"581 710 LINE",
"427 376 LINE",
"274 710 LINE",
"61 710 LINE",
"61 0 LINE",
"256 0 LINE",
"256 374 LINE",
"375 111 LINE",
"479 111 LINE",
"598 374 LINE",
"598 0 LINE"
);
}
);
width = 854;
}
);
leftKerningGroup = B;
rightKerningGroup = Eng;
unicode = 004D;
},
{
glyphname = M.sc;
layers = (
{
layerId = "AE853CD8-C74C-4F9A-A7CF-4083D549EAB1";
name = Bold;
paths = (
{
closed = 1;
nodes = (
"712 0 LINE",
"712 568 LINE",
"527 568 LINE",
"384 318 LINE",
"241 568 LINE",
"55 568 LINE",
"55 0 LINE",
"225 0 LINE",
"225 275 LINE",
"338 86 LINE",
"429 86 LINE",
"542 275 LINE",
"542 0 LINE"
);
}
);
width = 767;
}
);
rightKerningGroup = A.sc;
},
{
glyphname = N;
layers = (
{
layerId = "AE853CD8-C74C-4F9A-A7CF-4083D549EAB1";
name = Bold;
paths = (
{
closed = 1;
nodes = (
"538 0 LINE",
"693 0 LINE",
"693 710 LINE",
"498 710 LINE",
"498 349 LINE",
"213 710 LINE",
"61 710 LINE",
"61 0 LINE",
"256 0 LINE",
"256 349 LINE"
);
}
);
width = 754;
}
);
leftKerningGroup = B;
rightKerningGroup = Eng;
unicode = 004E;
},
{
glyphname = N.sc;
layers = (
{
layerId = "AE853CD8-C74C-4F9A-A7CF-4083D549EAB1";
name = Bold;
paths = (
{
closed = 1;
nodes = (
"487 0 LINE",
"622 0 LINE",
"622 568 LINE",
"452 568 LINE",
"452 306 LINE",
"188 568 LINE",
"55 568 LINE",
"55 0 LINE",
"225 0 LINE",
"225 253 LINE"
);
}
);
width = 677;
}
);
rightKerningGroup = A.sc;
},
{
glyphname = Nacute;
layers = (
{
layerId = "AE853CD8-C74C-4F9A-A7CF-4083D549EAB1";
name = Bold;
paths = (
{
closed = 1;
nodes = (
"538 0 LINE",
"693 0 LINE",
"693 710 LINE",
"498 710 LINE",
"498 349 LINE",
"213 710 LINE",
"61 710 LINE",
"61 0 LINE",
"256 0 LINE",
"256 349 LINE"
);
},
{
closed = 1;
nodes = (
"531 913 LINE",
"362 913 LINE",
"312 771 LINE",
"432 739 LINE"
);
}
);
width = 754;
}
);
leftKerningGroup = B;
rightKerningGroup = Eng;
unicode = 0143;
},
{
glyphname = Ncaron;
layers = (
{
layerId = "AE853CD8-C74C-4F9A-A7CF-4083D549EAB1";
name = Bold;
paths = (
{
closed = 1;
nodes = (
"538 0 LINE",
"693 0 LINE",
"693 710 LINE",
"498 710 LINE",
"498 349 LINE",
"213 710 LINE",
"61 710 LINE",
"61 0 LINE",
"256 0 LINE",
"256 349 LINE"
);
},
{
closed = 1;
nodes = (
"193 871 LINE",
"306 756 LINE",
"442 756 LINE",
"555 871 LINE",
"459 913 LINE",
"374 850 LINE",
"289 913 LINE"
);
}
);
width = 754;
}
);
leftKerningGroup = B;
rightKerningGroup = Eng;
unicode = 0147;
},
{
glyphname = Ncommaaccent;
layers = (
{
layerId = "AE853CD8-C74C-4F9A-A7CF-4083D549EAB1";
name = Bold;
paths = (
{
closed = 1;
nodes = (
"538 0 LINE",
"693 0 LINE",
"693 710 LINE",
"498 710 LINE",
"498 349 LINE",
"213 710 LINE",
"61 710 LINE",
"61 0 LINE",
"256 0 LINE",
"256 349 LINE"
);
},
{
closed = 1;
nodes = (
"252 -213 LINE",
"363 -213 OFFCURVE",
"449 -206 OFFCURVE",
"449 -118 CURVE SMOOTH",
"449 -46 LINE",
"295 -46 LINE",
"295 -110 LINE SMOOTH",
"295 -131 OFFCURVE",
"280 -140 OFFCURVE",
"252 -140 CURVE"
);
}
);
width = 754;
}
);
leftKerningGroup = B;
rightKerningGroup = Eng;
unicode = 0145;
},
{
glyphname = Ndotaccent;
layers = (
{
layerId = "AE853CD8-C74C-4F9A-A7CF-4083D549EAB1";
name = Bold;
paths = (
{
closed = 1;
nodes = (
"538 0 LINE",
"693 0 LINE",
"693 710 LINE",
"498 710 LINE",
"498 349 LINE",
"213 710 LINE",
"61 710 LINE",
"61 0 LINE",
"256 0 LINE",
"256 349 LINE"
);
},
{
closed = 1;
nodes = (
"459 763 LINE",
"459 913 LINE",
"289 913 LINE",
"289 763 LINE"
);
}
);
width = 754;
}
);
leftKerningGroup = B;
rightKerningGroup = Eng;
unicode = 1E44;
},
{
glyphname = Ntilde;
layers = (
{
layerId = "AE853CD8-C74C-4F9A-A7CF-4083D549EAB1";
name = Bold;
paths = (
{
closed = 1;
nodes = (
"538 0 LINE",
"693 0 LINE",
"693 710 LINE",
"498 710 LINE",
"498 349 LINE",
"213 710 LINE",
"61 710 LINE",
"61 0 LINE",
"256 0 LINE",
"256 349 LINE"
);
},
{
closed = 1;
nodes = (
"541 755 OFFCURVE",
"581 890 OFFCURVE",
"581 913 CURVE",
"481 913 LINE",
"481 910 OFFCURVE",
"475 862 OFFCURVE",
"431 862 CURVE SMOOTH",
"385 862 OFFCURVE",
"361 913 OFFCURVE",
"296 913 CURVE SMOOTH",
"196 913 OFFCURVE",
"157 790 OFFCURVE",
"157 755 CURVE",
"258 755 LINE",
"258 757 OFFCURVE",
"259 803 OFFCURVE",
"304 803 CURVE SMOOTH",
"349 803 OFFCURVE",
"377 755 OFFCURVE",
"438 755 CURVE SMOOTH"
);
}
);
width = 754;
}
);
leftKerningGroup = B;
rightKerningGroup = Eng;
unicode = 00D1;
},
{
glyphname = O;
layers = (
{
layerId = "AE853CD8-C74C-4F9A-A7CF-4083D549EAB1";
name = Bold;
paths = (
{
closed = 1;
nodes = (
"562 -6 OFFCURVE",
"704 166 OFFCURVE",
"704 352 CURVE SMOOTH",
"704 533 OFFCURVE",
"570 714 OFFCURVE",
"366 714 CURVE SMOOTH",
"167 714 OFFCURVE",
"23 544 OFFCURVE",
"23 356 CURVE SMOOTH",
"23 173 OFFCURVE",
"159 -6 OFFCURVE",
"362 -6 CURVE SMOOTH"
);
},
{
closed = 1;
nodes = (
"221 447 OFFCURVE",
"265 541 OFFCURVE",
"363 541 CURVE SMOOTH",
"459 541 OFFCURVE",
"506 452 OFFCURVE",
"506 356 CURVE SMOOTH",
"506 263 OFFCURVE",
"463 167 OFFCURVE",
"364 167 CURVE SMOOTH",
"267 167 OFFCURVE",
"221 259 OFFCURVE",
"221 354 CURVE SMOOTH"
);
}
);
width = 727;
}
);
leftKerningGroup = C;
rightKerningGroup = O;
unicode = 004F;
},
{
glyphname = O.sc;
layers = (
{
layerId = "AE853CD8-C74C-4F9A-A7CF-4083D549EAB1";
name = Bold;
paths = (
{
closed = 1;
nodes = (
"507 -5 OFFCURVE",
"634 133 OFFCURVE",
"634 281 CURVE SMOOTH",
"634 426 OFFCURVE",
"514 571 OFFCURVE",
"330 571 CURVE SMOOTH",
"152 571 OFFCURVE",
"22 435 OFFCURVE",
"22 285 CURVE SMOOTH",
"22 138 OFFCURVE",
"145 -5 OFFCURVE",
"327 -5 CURVE SMOOTH"
);
},
{
closed = 1;
nodes = (
"195 351 OFFCURVE",
"237 420 OFFCURVE",
"328 420 CURVE SMOOTH",
"416 420 OFFCURVE",
"461 355 OFFCURVE",
"461 285 CURVE SMOOTH",
"461 217 OFFCURVE",
"420 146 OFFCURVE",
"329 146 CURVE SMOOTH",
"239 146 OFFCURVE",
"195 214 OFFCURVE",
"195 283 CURVE SMOOTH"
);
}
);
width = 656;
}
);
rightKerningGroup = A.sc;
},
{
glyphname = OE;
layers = (
{
layerId = "AE853CD8-C74C-4F9A-A7CF-4083D549EAB1";
name = Bold;
paths = (
{
closed = 1;
nodes = (
"710 170 LINE",
"710 276 LINE",
"938 276 LINE",
"938 446 LINE",
"710 446 LINE",
"710 540 LINE",
"992 540 LINE",
"992 710 LINE",
"515 710 LINE",
"515 670 LINE",
"471 698 OFFCURVE",
"421 715 OFFCURVE",
"366 715 CURVE SMOOTH",
"167 715 OFFCURVE",
"23 544 OFFCURVE",
"23 356 CURVE SMOOTH",
"23 173 OFFCURVE",
"159 -5 OFFCURVE",
"362 -5 CURVE SMOOTH",
"418 -5 OFFCURVE",
"470 13 OFFCURVE",
"515 41 CURVE",
"515 0 LINE",
"1001 0 LINE",
"1001 170 LINE"
);
},
{
closed = 1;
nodes = (
"267 168 OFFCURVE",
"221 259 OFFCURVE",
"221 354 CURVE SMOOTH",
"221 447 OFFCURVE",
"265 542 OFFCURVE",
"363 542 CURVE SMOOTH",
"459 542 OFFCURVE",
"506 452 OFFCURVE",
"506 356 CURVE SMOOTH",
"506 263 OFFCURVE",
"463 168 OFFCURVE",
"364 168 CURVE SMOOTH"
);
}
);
width = 1030;
}
);
leftKerningGroup = C;
rightKerningGroup = AE;
unicode = 0152;
},
{
glyphname = Oacute;
layers = (
{
layerId = "AE853CD8-C74C-4F9A-A7CF-4083D549EAB1";
name = Bold;
paths = (
{
closed = 1;
nodes = (
"562 -6 OFFCURVE",
"704 166 OFFCURVE",
"704 352 CURVE SMOOTH",
"704 533 OFFCURVE",
"570 714 OFFCURVE",
"366 714 CURVE SMOOTH",
"167 714 OFFCURVE",
"23 544 OFFCURVE",
"23 356 CURVE SMOOTH",
"23 173 OFFCURVE",
"159 -6 OFFCURVE",
"362 -6 CURVE SMOOTH"
);
},
{
closed = 1;
nodes = (
"221 447 OFFCURVE",
"265 541 OFFCURVE",
"363 541 CURVE SMOOTH",
"459 541 OFFCURVE",
"506 452 OFFCURVE",
"506 356 CURVE SMOOTH",
"506 263 OFFCURVE",
"463 167 OFFCURVE",
"364 167 CURVE SMOOTH",
"267 167 OFFCURVE",
"221 259 OFFCURVE",
"221 354 CURVE SMOOTH"
);
},
{
closed = 1;
nodes = (
"523 914 LINE",
"354 914 LINE",
"304 772 LINE",
"424 740 LINE"
);
}
);
width = 727;
}
);
leftKerningGroup = C;
rightKerningGroup = O;
unicode = 00D3;
},
{
glyphname = Obreve;
layers = (
{
layerId = "AE853CD8-C74C-4F9A-A7CF-4083D549EAB1";
name = Bold;
paths = (
{
closed = 1;
nodes = (
"562 -6 OFFCURVE",
"704 166 OFFCURVE",
"704 352 CURVE SMOOTH",
"704 533 OFFCURVE",
"570 714 OFFCURVE",
"366 714 CURVE SMOOTH",
"167 714 OFFCURVE",
"23 544 OFFCURVE",
"23 356 CURVE SMOOTH",
"23 173 OFFCURVE",
"159 -6 OFFCURVE",
"362 -6 CURVE SMOOTH"
);
},
{
closed = 1;
nodes = (
"221 447 OFFCURVE",
"265 541 OFFCURVE",
"363 541 CURVE SMOOTH",
"459 541 OFFCURVE",
"506 452 OFFCURVE",
"506 356 CURVE SMOOTH",
"506 263 OFFCURVE",
"463 167 OFFCURVE",
"364 167 CURVE SMOOTH",
"267 167 OFFCURVE",
"221 259 OFFCURVE",
"221 354 CURVE SMOOTH"
);
},
{
closed = 1;
nodes = (
"333 833 OFFCURVE",
"305 870 OFFCURVE",
"305 914 CURVE",
"207 914 LINE",
"207 819 OFFCURVE",
"272 752 OFFCURVE",
"366 752 CURVE SMOOTH",
"460 752 OFFCURVE",
"525 819 OFFCURVE",
"525 914 CURVE",
"427 914 LINE",
"423 867 OFFCURVE",
"397 833 OFFCURVE",
"366 833 CURVE SMOOTH"
);
}
);
width = 727;
}
);
leftKerningGroup = C;
rightKerningGroup = O;
unicode = 014E;
},
{
glyphname = Ocircumflex;
layers = (
{
layerId = "AE853CD8-C74C-4F9A-A7CF-4083D549EAB1";
name = Bold;
paths = (
{
closed = 1;
nodes = (
"562 -6 OFFCURVE",
"704 166 OFFCURVE",
"704 352 CURVE SMOOTH",
"704 533 OFFCURVE",
"570 714 OFFCURVE",
"366 714 CURVE SMOOTH",
"167 714 OFFCURVE",
"23 544 OFFCURVE",
"23 356 CURVE SMOOTH",
"23 173 OFFCURVE",
"159 -6 OFFCURVE",
"362 -6 CURVE SMOOTH"
);
},
{
closed = 1;
nodes = (
"221 447 OFFCURVE",
"265 541 OFFCURVE",
"363 541 CURVE SMOOTH",
"459 541 OFFCURVE",
"506 452 OFFCURVE",
"506 356 CURVE SMOOTH",
"506 263 OFFCURVE",
"463 167 OFFCURVE",
"364 167 CURVE SMOOTH",
"267 167 OFFCURVE",
"221 259 OFFCURVE",
"221 354 CURVE SMOOTH"
);
},
{
closed = 1;
nodes = (
"281 757 LINE",
"366 820 LINE",
"451 757 LINE",
"547 799 LINE",
"434 914 LINE",
"298 914 LINE",
"185 799 LINE"
);
}
);
width = 727;
}
);
leftKerningGroup = C;
rightKerningGroup = O;
unicode = 00D4;
},
{
glyphname = Odieresis;
layers = (
{
layerId = "AE853CD8-C74C-4F9A-A7CF-4083D549EAB1";
name = Bold;
paths = (
{
closed = 1;
nodes = (
"562 -6 OFFCURVE",
"704 166 OFFCURVE",
"704 352 CURVE SMOOTH",
"704 533 OFFCURVE",
"570 714 OFFCURVE",
"366 714 CURVE SMOOTH",
"167 714 OFFCURVE",
"23 544 OFFCURVE",
"23 356 CURVE SMOOTH",
"23 173 OFFCURVE",
"159 -6 OFFCURVE",
"362 -6 CURVE SMOOTH"
);
},
{
closed = 1;
nodes = (
"221 447 OFFCURVE",
"265 541 OFFCURVE",
"363 541 CURVE SMOOTH",
"459 541 OFFCURVE",
"506 452 OFFCURVE",
"506 356 CURVE SMOOTH",
"506 263 OFFCURVE",
"463 167 OFFCURVE",
"364 167 CURVE SMOOTH",
"267 167 OFFCURVE",
"221 259 OFFCURVE",
"221 354 CURVE SMOOTH"
);
},
{
closed = 1;
nodes = (
"329 765 LINE",
"329 905 LINE",
"173 905 LINE",
"173 765 LINE"
);
},
{
closed = 1;
nodes = (
"559 765 LINE",
"559 905 LINE",
"403 905 LINE",
"403 765 LINE"
);
}
);
width = 727;
}
);
leftKerningGroup = C;
rightKerningGroup = O;
unicode = 00D6;
},
{
glyphname = Ograve;
layers = (
{
layerId = "AE853CD8-C74C-4F9A-A7CF-4083D549EAB1";
name = Bold;
paths = (
{
closed = 1;
nodes = (
"562 -6 OFFCURVE",
"704 166 OFFCURVE",
"704 352 CURVE SMOOTH",
"704 533 OFFCURVE",
"570 714 OFFCURVE",
"366 714 CURVE SMOOTH",
"167 714 OFFCURVE",
"23 544 OFFCURVE",
"23 356 CURVE SMOOTH",
"23 173 OFFCURVE",
"159 -6 OFFCURVE",
"362 -6 CURVE SMOOTH"
);
},
{
closed = 1;
nodes = (
"221 447 OFFCURVE",
"265 541 OFFCURVE",
"363 541 CURVE SMOOTH",
"459 541 OFFCURVE",
"506 452 OFFCURVE",
"506 356 CURVE SMOOTH",
"506 263 OFFCURVE",
"463 167 OFFCURVE",
"364 167 CURVE SMOOTH",
"267 167 OFFCURVE",
"221 259 OFFCURVE",
"221 354 CURVE SMOOTH"
);
},
{
closed = 1;
nodes = (
"308 741 LINE",
"428 773 LINE",
"378 915 LINE",
"209 915 LINE"
);
}
);
width = 727;
}
);
leftKerningGroup = C;
rightKerningGroup = O;
unicode = 00D2;
},
{
glyphname = Ohungarumlaut;
layers = (
{
layerId = "AE853CD8-C74C-4F9A-A7CF-4083D549EAB1";
name = Bold;
paths = (
{
closed = 1;
nodes = (
"562 -6 OFFCURVE",
"704 166 OFFCURVE",
"704 352 CURVE SMOOTH",
"704 533 OFFCURVE",
"570 714 OFFCURVE",
"366 714 CURVE SMOOTH",
"167 714 OFFCURVE",
"23 544 OFFCURVE",
"23 356 CURVE SMOOTH",
"23 173 OFFCURVE",
"159 -6 OFFCURVE",
"362 -6 CURVE SMOOTH"
);
},
{
closed = 1;
nodes = (
"221 447 OFFCURVE",
"265 541 OFFCURVE",
"363 541 CURVE SMOOTH",
"459 541 OFFCURVE",
"506 452 OFFCURVE",
"506 356 CURVE SMOOTH",
"506 263 OFFCURVE",
"463 167 OFFCURVE",
"364 167 CURVE SMOOTH",
"267 167 OFFCURVE",
"221 259 OFFCURVE",
"221 354 CURVE SMOOTH"
);
},
{
closed = 1;
nodes = (
"392 915 LINE",
"253 915 LINE",
"213 773 LINE",
"303 741 LINE"
);
},
{
closed = 1;
nodes = (
"582 915 LINE",
"443 915 LINE",
"403 773 LINE",
"493 741 LINE"
);
}
);
width = 727;
}
);
leftKerningGroup = C;
rightKerningGroup = O;
unicode = 0150;
},
{
glyphname = hungarumlaut;
layers = (
{
layerId = "AE853CD8-C74C-4F9A-A7CF-4083D549EAB1";
name = Bold;
paths = (
{
closed = 1;
nodes = (
"204 730 LINE",
"65 730 LINE",
"25 588 LINE",
"115 556 LINE"
);
},
{
closed = 1;
nodes = (
"394 730 LINE",
"255 730 LINE",
"215 588 LINE",
"305 556 LINE"
);
}
);
width = 399;
}
);
rightKerningGroup = A.sc;
unicode = 02DD;
},
{
glyphname = Omacron;
layers = (
{
layerId = "AE853CD8-C74C-4F9A-A7CF-4083D549EAB1";
name = Bold;
paths = (
{
closed = 1;
nodes = (
"562 -6 OFFCURVE",
"704 166 OFFCURVE",
"704 352 CURVE SMOOTH",
"704 533 OFFCURVE",
"570 714 OFFCURVE",
"366 714 CURVE SMOOTH",
"167 714 OFFCURVE",
"23 544 OFFCURVE",
"23 356 CURVE SMOOTH",
"23 173 OFFCURVE",
"159 -6 OFFCURVE",
"362 -6 CURVE SMOOTH"
);
},
{
closed = 1;
nodes = (
"221 447 OFFCURVE",
"265 541 OFFCURVE",
"363 541 CURVE SMOOTH",
"459 541 OFFCURVE",
"506 452 OFFCURVE",
"506 356 CURVE SMOOTH",
"506 263 OFFCURVE",
"463 167 OFFCURVE",
"364 167 CURVE SMOOTH",
"267 167 OFFCURVE",
"221 259 OFFCURVE",
"221 354 CURVE SMOOTH"
);
},
{
closed = 1;
nodes = (
"522 791 LINE",
"522 904 LINE",
"212 904 LINE",
"212 791 LINE"
);
}
);
width = 727;
}
);
leftKerningGroup = C;
rightKerningGroup = O;
unicode = 014C;
},
{
glyphname = Oogonek;
layers = (
{
layerId = "AE853CD8-C74C-4F9A-A7CF-4083D549EAB1";
name = Bold;
paths = (
{
closed = 1;
nodes = (
"390 -124 LINE",
"342 -124 OFFCURVE",
"320 -109 OFFCURVE",
"320 -87 CURVE SMOOTH",
"320 -62 OFFCURVE",
"345 -33 OFFCURVE",
"392 -4 CURVE",
"576 12 OFFCURVE",
"704 175 OFFCURVE",
"704 352 CURVE SMOOTH",
"704 533 OFFCURVE",
"570 714 OFFCURVE",
"366 714 CURVE SMOOTH",
"167 714 OFFCURVE",
"23 544 OFFCURVE",
"23 356 CURVE SMOOTH",
"23 190 OFFCURVE",
"134 28 OFFCURVE",
"305 -1 CURVE",
"250 -35 OFFCURVE",
"223 -76 OFFCURVE",
"223 -114 CURVE SMOOTH",
"223 -161 OFFCURVE",
"266 -202 OFFCURVE",
"355 -214 CURVE"
);
},
{
closed = 1;
nodes = (
"221 447 OFFCURVE",
"265 541 OFFCURVE",
"363 541 CURVE SMOOTH",
"459 541 OFFCURVE",
"506 452 OFFCURVE",
"506 356 CURVE SMOOTH",
"506 263 OFFCURVE",
"463 167 OFFCURVE",
"364 167 CURVE SMOOTH",
"267 167 OFFCURVE",
"221 259 OFFCURVE",
"221 354 CURVE SMOOTH"
);
}
);
width = 727;
}
);
rightKerningGroup = A.sc;
unicode = 01EA;
},
{
glyphname = Oslash;
layers = (
{
layerId = "AE853CD8-C74C-4F9A-A7CF-4083D549EAB1";
name = Bold;
paths = (
{
closed = 1;
nodes = (
"517 710 LINE",
"499 686 LINE",
"460 704 OFFCURVE",
"415 714 OFFCURVE",
"367 714 CURVE SMOOTH",
"168 714 OFFCURVE",
"24 544 OFFCURVE",
"24 356 CURVE SMOOTH",
"24 275 OFFCURVE",
"50 195 OFFCURVE",
"97 131 CURVE",
"2 0 LINE",
"211 0 LINE",
"228 23 LINE",
"268 5 OFFCURVE",
"313 -6 OFFCURVE",
"363 -6 CURVE SMOOTH",
"563 -6 OFFCURVE",
"705 166 OFFCURVE",
"705 352 CURVE SMOOTH",
"705 432 OFFCURVE",
"678 513 OFFCURVE",
"631 578 CURVE",
"727 710 LINE"
);
},
{
closed = 1;
nodes = (
"507 263 OFFCURVE",
"464 167 OFFCURVE",
"365 167 CURVE SMOOTH",
"354 167 OFFCURVE",
"344 168 OFFCURVE",
"334 170 CURVE",
"503 402 LINE",
"506 387 OFFCURVE",
"507 371 OFFCURVE",
"507 356 CURVE SMOOTH"
);
},
{
closed = 1;
nodes = (
"222 447 OFFCURVE",
"266 541 OFFCURVE",
"364 541 CURVE SMOOTH",
"374 541 OFFCURVE",
"383 540 OFFCURVE",
"392 538 CURVE",
"225 308 LINE",
"223 323 OFFCURVE",
"222 338 OFFCURVE",
"222 354 CURVE SMOOTH"
);
}
);
width = 729;
}
);
leftKerningGroup = C;
rightKerningGroup = O;
unicode = 00D8;
},
{
glyphname = slash;
layers = (
{
layerId = "AE853CD8-C74C-4F9A-A7CF-4083D549EAB1";
name = Bold;
paths = (
{
closed = 1;
nodes = (
"542 710 LINE",
"27 0 LINE",
"236 0 LINE",
"752 710 LINE"
);
}
);
width = 776;
}
);
leftKerningGroup = slash;
rightKerningGroup = A.sc;
unicode = 002F;
},
{
glyphname = Oslashacute;
layers = (
{
layerId = "AE853CD8-C74C-4F9A-A7CF-4083D549EAB1";
name = Bold;
paths = (
{
closed = 1;
nodes = (
"517 710 LINE",
"499 686 LINE",
"460 704 OFFCURVE",
"415 714 OFFCURVE",
"367 714 CURVE SMOOTH",
"168 714 OFFCURVE",
"24 544 OFFCURVE",
"24 356 CURVE SMOOTH",
"24 275 OFFCURVE",
"50 195 OFFCURVE",
"97 131 CURVE",
"2 0 LINE",
"211 0 LINE",
"228 23 LINE",
"268 5 OFFCURVE",
"313 -6 OFFCURVE",
"363 -6 CURVE SMOOTH",
"563 -6 OFFCURVE",
"705 166 OFFCURVE",
"705 352 CURVE SMOOTH",
"705 432 OFFCURVE",
"678 513 OFFCURVE",
"631 578 CURVE",
"727 710 LINE"
);
},
{
closed = 1;
nodes = (
"524 914 LINE",
"355 914 LINE",
"305 772 LINE",
"425 740 LINE"
);
},
{
closed = 1;
nodes = (
"507 263 OFFCURVE",
"464 167 OFFCURVE",
"365 167 CURVE SMOOTH",
"354 167 OFFCURVE",
"344 168 OFFCURVE",
"334 170 CURVE",
"503 402 LINE",
"506 387 OFFCURVE",
"507 371 OFFCURVE",
"507 356 CURVE SMOOTH"
);
},
{
closed = 1;
nodes = (
"222 447 OFFCURVE",
"266 541 OFFCURVE",
"364 541 CURVE SMOOTH",
"374 541 OFFCURVE",
"383 540 OFFCURVE",
"392 538 CURVE",
"225 308 LINE",
"223 323 OFFCURVE",
"222 338 OFFCURVE",
"222 354 CURVE SMOOTH"
);
}
);
width = 729;
}
);
leftKerningGroup = C;
rightKerningGroup = O;
unicode = 01FE;
},
{
glyphname = Otilde;
layers = (
{
layerId = "AE853CD8-C74C-4F9A-A7CF-4083D549EAB1";
name = Bold;
paths = (
{
closed = 1;
nodes = (
"562 -6 OFFCURVE",
"704 166 OFFCURVE",
"704 352 CURVE SMOOTH",
"704 533 OFFCURVE",
"570 714 OFFCURVE",
"366 714 CURVE SMOOTH",
"167 714 OFFCURVE",
"23 544 OFFCURVE",
"23 356 CURVE SMOOTH",
"23 173 OFFCURVE",
"159 -6 OFFCURVE",
"362 -6 CURVE SMOOTH"
);
},
{
closed = 1;
nodes = (
"221 447 OFFCURVE",
"265 541 OFFCURVE",
"363 541 CURVE SMOOTH",
"459 541 OFFCURVE",
"506 452 OFFCURVE",
"506 356 CURVE SMOOTH",
"506 263 OFFCURVE",
"463 167 OFFCURVE",
"364 167 CURVE SMOOTH",
"267 167 OFFCURVE",
"221 259 OFFCURVE",
"221 354 CURVE SMOOTH"
);
},
{
closed = 1;
nodes = (
"533 756 OFFCURVE",
"573 891 OFFCURVE",
"573 914 CURVE",
"473 914 LINE",
"473 911 OFFCURVE",
"467 863 OFFCURVE",
"423 863 CURVE SMOOTH",
"377 863 OFFCURVE",
"353 914 OFFCURVE",
"288 914 CURVE SMOOTH",
"188 914 OFFCURVE",
"149 791 OFFCURVE",
"149 756 CURVE",
"250 756 LINE",
"250 758 OFFCURVE",
"251 804 OFFCURVE",
"296 804 CURVE SMOOTH",
"341 804 OFFCURVE",
"369 756 OFFCURVE",
"430 756 CURVE SMOOTH"
);
}
);
width = 727;
}
);
leftKerningGroup = C;
rightKerningGroup = O;
unicode = 00D5;
},
{
glyphname = P;
layers = (
{
layerId = "AE853CD8-C74C-4F9A-A7CF-4083D549EAB1";
name = Bold;
paths = (
{
closed = 1;
nodes = (
"256 0 LINE",
"256 218 LINE",
"372 218 LINE SMOOTH",
"512 218 OFFCURVE",
"606 338 OFFCURVE",
"606 464 CURVE SMOOTH",
"606 585 OFFCURVE",
"506 710 OFFCURVE",
"367 710 CURVE SMOOTH",
"61 710 LINE",
"61 0 LINE"
);
},
{
closed = 1;
nodes = (
"256 540 LINE",
"354 540 LINE SMOOTH",
"378 540 OFFCURVE",
"408 523 OFFCURVE",
"408 464 CURVE SMOOTH",
"408 407 OFFCURVE",
"383 388 OFFCURVE",
"359 388 CURVE SMOOTH",
"256 388 LINE"
);
}
);
width = 620;
}
);
leftKerningGroup = B;
rightKerningGroup = P;
unicode = 0050;
},
{
glyphname = P.sc;
layers = (
{
layerId = "AE853CD8-C74C-4F9A-A7CF-4083D549EAB1";
name = Bold;
paths = (
{
closed = 1;
nodes = (
"225 0 LINE",
"225 169 LINE",
"334 169 LINE SMOOTH",
"460 169 OFFCURVE",
"544 267 OFFCURVE",
"544 369 CURVE SMOOTH",
"544 467 OFFCURVE",
"454 568 OFFCURVE",
"330 568 CURVE SMOOTH",
"55 568 LINE",
"55 0 LINE"
);
},
{
closed = 1;
nodes = (
"225 420 LINE",
"319 420 LINE SMOOTH",
"342 420 OFFCURVE",
"371 412 OFFCURVE",
"371 369 CURVE SMOOTH",
"371 326 OFFCURVE",
"347 318 OFFCURVE",
"323 318 CURVE SMOOTH",
"225 318 LINE"
);
}
);
width = 558;
}
);
rightKerningGroup = A.sc;
},
{
glyphname = Q;
layers = (
{
layerId = "AE853CD8-C74C-4F9A-A7CF-4083D549EAB1";
name = Bold;
paths = (
{
closed = 1;
nodes = (
"560 0 LINE",
"742 0 LINE",
"626 125 LINE",
"675 188 OFFCURVE",
"704 269 OFFCURVE",
"704 352 CURVE SMOOTH",
"704 533 OFFCURVE",
"570 715 OFFCURVE",
"366 715 CURVE SMOOTH",
"167 715 OFFCURVE",
"23 544 OFFCURVE",
"23 356 CURVE SMOOTH",
"23 173 OFFCURVE",
"159 -5 OFFCURVE",
"362 -5 CURVE SMOOTH",
"422 -5 OFFCURVE",
"478 11 OFFCURVE",
"525 38 CURVE"
);
},
{
closed = 1;
nodes = (
"267 168 OFFCURVE",
"221 259 OFFCURVE",
"221 354 CURVE SMOOTH",
"221 447 OFFCURVE",
"265 542 OFFCURVE",
"363 542 CURVE SMOOTH",
"459 542 OFFCURVE",
"506 452 OFFCURVE",
"506 356 CURVE SMOOTH",
"506 327 OFFCURVE",
"502 297 OFFCURVE",
"493 271 CURVE",
"466 300 LINE",
"284 300 LINE",
"401 173 LINE",
"389 170 OFFCURVE",
"377 168 OFFCURVE",
"364 168 CURVE SMOOTH"
);
}
);
width = 730;
}
);
leftKerningGroup = C;
rightKerningGroup = O;
unicode = 0051;
},
{
glyphname = Q.sc;
layers = (
{
layerId = "AE853CD8-C74C-4F9A-A7CF-4083D549EAB1";
name = Bold;
paths = (
{
closed = 1;
nodes = (
"507 0 LINE",
"666 0 LINE",
"566 102 LINE",
"609 152 OFFCURVE",
"634 215 OFFCURVE",
"634 281 CURVE SMOOTH",
"634 426 OFFCURVE",
"514 572 OFFCURVE",
"330 572 CURVE SMOOTH",
"152 572 OFFCURVE",
"22 435 OFFCURVE",
"22 285 CURVE SMOOTH",
"22 138 OFFCURVE",
"145 -4 OFFCURVE",
"327 -4 CURVE SMOOTH",
"382 -4 OFFCURVE",
"432 9 OFFCURVE",
"476 31 CURVE"
);
},
{
closed = 1;
nodes = (
"239 147 OFFCURVE",
"195 214 OFFCURVE",
"195 283 CURVE SMOOTH",
"195 351 OFFCURVE",
"237 421 OFFCURVE",
"328 421 CURVE SMOOTH",
"416 421 OFFCURVE",
"461 355 OFFCURVE",
"461 285 CURVE SMOOTH",
"461 263 OFFCURVE",
"457 241 OFFCURVE",
"448 222 CURVE",
"422 249 LINE",
"262 249 LINE",
"359 150 LINE",
"350 148 OFFCURVE",
"340 147 OFFCURVE",
"329 147 CURVE SMOOTH"
);
}
);
width = 659;
}
);
rightKerningGroup = A.sc;
},
{
glyphname = R;
layers = (
{
layerId = "AE853CD8-C74C-4F9A-A7CF-4083D549EAB1";
name = Bold;
paths = (
{
closed = 1;
nodes = (
"256 0 LINE",
"256 218 LINE",
"329 218 LINE",
"464 0 LINE",
"684 0 LINE",
"524 261 LINE",
"588 306 OFFCURVE",
"626 382 OFFCURVE",
"626 464 CURVE SMOOTH",
"626 585 OFFCURVE",
"526 710 OFFCURVE",
"387 710 CURVE SMOOTH",
"61 710 LINE",
"61 0 LINE"
);
},
{
closed = 1;
nodes = (
"256 540 LINE",
"374 540 LINE SMOOTH",
"398 540 OFFCURVE",
"428 513 OFFCURVE",
"428 464 CURVE SMOOTH",
"428 416 OFFCURVE",
"403 388 OFFCURVE",
"379 388 CURVE SMOOTH",
"256 388 LINE"
);
}
);
width = 686;
}
);
leftKerningGroup = B;
rightKerningGroup = R;
unicode = 0052;
},
{
glyphname = R.sc;
layers = (
{
layerId = "AE853CD8-C74C-4F9A-A7CF-4083D549EAB1";
name = Bold;
paths = (
{
closed = 1;
nodes = (
"225 0 LINE",
"225 169 LINE",
"297 169 LINE",
"419 0 LINE",
"612 0 LINE",
"467 207 LINE",
"526 246 OFFCURVE",
"561 305 OFFCURVE",
"561 369 CURVE SMOOTH",
"561 467 OFFCURVE",
"472 568 OFFCURVE",
"347 568 CURVE SMOOTH",
"55 568 LINE",
"55 0 LINE"
);
},
{
closed = 1;
nodes = (
"225 420 LINE",
"336 420 LINE SMOOTH",
"360 420 OFFCURVE",
"388 404 OFFCURVE",
"388 369 CURVE SMOOTH",
"388 334 OFFCURVE",
"365 318 OFFCURVE",
"341 318 CURVE SMOOTH",
"225 318 LINE"
);
}
);
width = 616;
}
);
rightKerningGroup = A.sc;
},
{
glyphname = Racute;
layers = (
{
layerId = "AE853CD8-C74C-4F9A-A7CF-4083D549EAB1";
name = Bold;
paths = (
{
closed = 1;
nodes = (
"256 0 LINE",
"256 218 LINE",
"329 218 LINE",
"464 0 LINE",
"684 0 LINE",
"524 261 LINE",
"588 306 OFFCURVE",
"626 382 OFFCURVE",
"626 464 CURVE SMOOTH",
"626 585 OFFCURVE",
"526 710 OFFCURVE",
"387 710 CURVE SMOOTH",
"61 710 LINE",
"61 0 LINE"
);
},
{
closed = 1;
nodes = (
"256 540 LINE",
"374 540 LINE SMOOTH",
"398 540 OFFCURVE",
"428 513 OFFCURVE",
"428 464 CURVE SMOOTH",
"428 416 OFFCURVE",
"403 388 OFFCURVE",
"379 388 CURVE SMOOTH",
"256 388 LINE"
);
},
{
closed = 1;
nodes = (
"476 913 LINE",
"307 913 LINE",
"257 771 LINE",
"377 739 LINE"
);
}
);
width = 686;
}
);
leftKerningGroup = B;
rightKerningGroup = R;
unicode = 0154;
},
{
glyphname = Rcaron;
layers = (
{
layerId = "AE853CD8-C74C-4F9A-A7CF-4083D549EAB1";
name = Bold;
paths = (
{
closed = 1;
nodes = (
"256 0 LINE",
"256 218 LINE",
"329 218 LINE",
"464 0 LINE",
"684 0 LINE",
"524 261 LINE",
"588 306 OFFCURVE",
"626 382 OFFCURVE",
"626 464 CURVE SMOOTH",
"626 585 OFFCURVE",
"526 710 OFFCURVE",
"387 710 CURVE SMOOTH",
"61 710 LINE",
"61 0 LINE"
);
},
{
closed = 1;
nodes = (
"256 540 LINE",
"374 540 LINE SMOOTH",
"398 540 OFFCURVE",
"428 513 OFFCURVE",
"428 464 CURVE SMOOTH",
"428 416 OFFCURVE",
"403 388 OFFCURVE",
"379 388 CURVE SMOOTH",
"256 388 LINE"
);
},
{
closed = 1;
nodes = (
"138 871 LINE",
"251 756 LINE",
"387 756 LINE",
"500 871 LINE",
"404 913 LINE",
"319 850 LINE",
"234 913 LINE"
);
}
);
width = 686;
}
);
leftKerningGroup = B;
rightKerningGroup = R;
unicode = 0158;
},
{
glyphname = Rcommaaccent;
layers = (
{
layerId = "AE853CD8-C74C-4F9A-A7CF-4083D549EAB1";
name = Bold;
paths = (
{
closed = 1;
nodes = (
"256 0 LINE",
"256 218 LINE",
"329 218 LINE",
"464 0 LINE",
"684 0 LINE",
"524 261 LINE",
"588 306 OFFCURVE",
"626 382 OFFCURVE",
"626 464 CURVE SMOOTH",
"626 585 OFFCURVE",
"526 710 OFFCURVE",
"387 710 CURVE SMOOTH",
"61 710 LINE",
"61 0 LINE"
);
},
{
closed = 1;
nodes = (
"256 540 LINE",
"374 540 LINE SMOOTH",
"398 540 OFFCURVE",
"428 513 OFFCURVE",
"428 464 CURVE SMOOTH",
"428 416 OFFCURVE",
"403 388 OFFCURVE",
"379 388 CURVE SMOOTH",
"256 388 LINE"
);
},
{
closed = 1;
nodes = (
"232 -213 LINE",
"343 -213 OFFCURVE",
"429 -206 OFFCURVE",
"429 -118 CURVE SMOOTH",
"429 -46 LINE",
"275 -46 LINE",
"275 -110 LINE SMOOTH",
"275 -131 OFFCURVE",
"260 -140 OFFCURVE",
"232 -140 CURVE"
);
}
);
width = 686;
}
);
leftKerningGroup = B;
rightKerningGroup = R;
unicode = 0156;
},
{
glyphname = S;
layers = (
{
layerId = "AE853CD8-C74C-4F9A-A7CF-4083D549EAB1";
name = Bold;
paths = (
{
closed = 1;
nodes = (
"575 639 LINE",
"511 671 OFFCURVE",
"412 716 OFFCURVE",
"309 716 CURVE SMOOTH",
"169 716 OFFCURVE",
"44 633 OFFCURVE",
"44 476 CURVE SMOOTH",
"44 372 OFFCURVE",
"99 319 OFFCURVE",
"224 277 CURVE SMOOTH",
"309 248 OFFCURVE",
"382 239 OFFCURVE",
"382 198 CURVE SMOOTH",
"382 179 OFFCURVE",
"367 167 OFFCURVE",
"325 167 CURVE SMOOTH",
"216 167 OFFCURVE",
"97 245 OFFCURVE",
"97 245 CURVE",
"13 74 LINE",
"98 24 OFFCURVE",
"219 -9 OFFCURVE",
"322 -9 CURVE SMOOTH",
"454 -9 OFFCURVE",
"592 46 OFFCURVE",
"592 217 CURVE SMOOTH",
"592 350 OFFCURVE",
"509 396 OFFCURVE",
"378 437 CURVE SMOOTH",
"296 463 OFFCURVE",
"246 471 OFFCURVE",
"246 508 CURVE SMOOTH",
"246 533 OFFCURVE",
"269 543 OFFCURVE",
"303 543 CURVE SMOOTH",
"388 543 OFFCURVE",
"491 478 OFFCURVE",
"491 478 CURVE"
);
}
);
width = 617;
}
);
leftKerningGroup = S;
rightKerningGroup = S;
unicode = 0053;
},
{
glyphname = S.sc;
layers = (
{
layerId = "AE853CD8-C74C-4F9A-A7CF-4083D549EAB1";
name = Bold;
paths = (
{
closed = 1;
nodes = (
"500 512 LINE",
"445 537 OFFCURVE",
"360 573 OFFCURVE",
"271 573 CURVE SMOOTH",
"150 573 OFFCURVE",
"42 506 OFFCURVE",
"42 382 CURVE SMOOTH",
"42 296 OFFCURVE",
"89 250 OFFCURVE",
"197 216 CURVE SMOOTH",
"270 193 OFFCURVE",
"332 188 OFFCURVE",
"332 161 CURVE SMOOTH",
"332 153 OFFCURVE",
"319 146 OFFCURVE",
"285 146 CURVE SMOOTH",
"191 146 OFFCURVE",
"100 193 OFFCURVE",
"89 206 CURVE",
"15 57 LINE",
"88 19 OFFCURVE",
"193 -8 OFFCURVE",
"282 -8 CURVE SMOOTH",
"396 -8 OFFCURVE",
"516 36 OFFCURVE",
"516 177 CURVE SMOOTH",
"516 284 OFFCURVE",
"444 322 OFFCURVE",
"331 355 CURVE SMOOTH",
"261 376 OFFCURVE",
"218 381 OFFCURVE",
"218 405 CURVE SMOOTH",
"218 418 OFFCURVE",
"237 422 OFFCURVE",
"266 422 CURVE SMOOTH",
"338 422 OFFCURVE",
"418 377 OFFCURVE",
"427 371 CURVE"
);
}
);
width = 541;
}
);
rightKerningGroup = A.sc;
},
{
glyphname = Sacute;
layers = (
{
layerId = "AE853CD8-C74C-4F9A-A7CF-4083D549EAB1";
name = Bold;
paths = (
{
closed = 1;
nodes = (
"575 639 LINE",
"511 671 OFFCURVE",
"412 716 OFFCURVE",
"309 716 CURVE SMOOTH",
"169 716 OFFCURVE",
"44 633 OFFCURVE",
"44 476 CURVE SMOOTH",
"44 372 OFFCURVE",
"99 319 OFFCURVE",
"224 277 CURVE SMOOTH",
"309 248 OFFCURVE",
"382 239 OFFCURVE",
"382 198 CURVE SMOOTH",
"382 179 OFFCURVE",
"367 167 OFFCURVE",
"325 167 CURVE SMOOTH",
"216 167 OFFCURVE",
"97 245 OFFCURVE",
"97 245 CURVE",
"13 74 LINE",
"98 24 OFFCURVE",
"219 -9 OFFCURVE",
"322 -9 CURVE SMOOTH",
"454 -9 OFFCURVE",
"592 46 OFFCURVE",
"592 217 CURVE SMOOTH",
"592 350 OFFCURVE",
"509 396 OFFCURVE",
"378 437 CURVE SMOOTH",
"296 463 OFFCURVE",
"246 471 OFFCURVE",
"246 508 CURVE SMOOTH",
"246 533 OFFCURVE",
"269 543 OFFCURVE",
"303 543 CURVE SMOOTH",
"388 543 OFFCURVE",
"491 478 OFFCURVE",
"491 478 CURVE"
);
},
{
closed = 1;
nodes = (
"484 914 LINE",
"315 914 LINE",
"265 772 LINE",
"385 740 LINE"
);
}
);
width = 617;
}
);
leftKerningGroup = S;
rightKerningGroup = S;
unicode = 015A;
},
{
glyphname = Scaron;
layers = (
{
layerId = "AE853CD8-C74C-4F9A-A7CF-4083D549EAB1";
name = Bold;
paths = (
{
closed = 1;
nodes = (
"575 639 LINE",
"511 671 OFFCURVE",
"412 716 OFFCURVE",
"309 716 CURVE SMOOTH",
"169 716 OFFCURVE",
"44 633 OFFCURVE",
"44 476 CURVE SMOOTH",
"44 372 OFFCURVE",
"99 319 OFFCURVE",
"224 277 CURVE SMOOTH",
"309 248 OFFCURVE",
"382 239 OFFCURVE",
"382 198 CURVE SMOOTH",
"382 179 OFFCURVE",
"367 167 OFFCURVE",
"325 167 CURVE SMOOTH",
"216 167 OFFCURVE",
"97 245 OFFCURVE",
"97 245 CURVE",
"13 74 LINE",
"98 24 OFFCURVE",
"219 -9 OFFCURVE",
"322 -9 CURVE SMOOTH",
"454 -9 OFFCURVE",
"592 46 OFFCURVE",
"592 217 CURVE SMOOTH",
"592 350 OFFCURVE",
"509 396 OFFCURVE",
"378 437 CURVE SMOOTH",
"296 463 OFFCURVE",
"246 471 OFFCURVE",
"246 508 CURVE SMOOTH",
"246 533 OFFCURVE",
"269 543 OFFCURVE",
"303 543 CURVE SMOOTH",
"388 543 OFFCURVE",
"491 478 OFFCURVE",
"491 478 CURVE"
);
},
{
closed = 1;
nodes = (
"146 872 LINE",
"259 757 LINE",
"395 757 LINE",
"508 872 LINE",
"412 914 LINE",
"327 851 LINE",
"242 914 LINE"
);
}
);
width = 617;
}
);
leftKerningGroup = S;
rightKerningGroup = S;
unicode = 0160;
},
{
glyphname = Scircumflex;
layers = (
{
layerId = "AE853CD8-C74C-4F9A-A7CF-4083D549EAB1";
name = Bold;
paths = (
{
closed = 1;
nodes = (
"575 639 LINE",
"511 671 OFFCURVE",
"412 716 OFFCURVE",
"309 716 CURVE SMOOTH",
"169 716 OFFCURVE",
"44 633 OFFCURVE",
"44 476 CURVE SMOOTH",
"44 372 OFFCURVE",
"99 319 OFFCURVE",
"224 277 CURVE SMOOTH",
"309 248 OFFCURVE",
"382 239 OFFCURVE",
"382 198 CURVE SMOOTH",
"382 179 OFFCURVE",
"367 167 OFFCURVE",
"325 167 CURVE SMOOTH",
"216 167 OFFCURVE",
"97 245 OFFCURVE",
"97 245 CURVE",
"13 74 LINE",
"98 24 OFFCURVE",
"219 -9 OFFCURVE",
"322 -9 CURVE SMOOTH",
"454 -9 OFFCURVE",
"592 46 OFFCURVE",
"592 217 CURVE SMOOTH",
"592 350 OFFCURVE",
"509 396 OFFCURVE",
"378 437 CURVE SMOOTH",
"296 463 OFFCURVE",
"246 471 OFFCURVE",
"246 508 CURVE SMOOTH",
"246 533 OFFCURVE",
"269 543 OFFCURVE",
"303 543 CURVE SMOOTH",
"388 543 OFFCURVE",
"491 478 OFFCURVE",
"491 478 CURVE"
);
},
{
closed = 1;
nodes = (
"242 757 LINE",
"327 820 LINE",
"412 757 LINE",
"508 799 LINE",
"395 914 LINE",
"259 914 LINE",
"146 799 LINE"
);
}
);
width = 617;
}
);
leftKerningGroup = S;
rightKerningGroup = S;
unicode = 015C;
},
{
glyphname = T;
layers = (
{
layerId = "AE853CD8-C74C-4F9A-A7CF-4083D549EAB1";
name = Bold;
paths = (
{
closed = 1;
nodes = (
"614 710 LINE",
"10 710 LINE",
"10 540 LINE",
"215 540 LINE",
"215 0 LINE",
"410 0 LINE",
"410 540 LINE",
"614 540 LINE"
);
}
);
width = 624;
}
);
leftKerningGroup = T;
rightKerningGroup = T;
unicode = 0054;
},
{
glyphname = T.sc;
layers = (
{
layerId = "AE853CD8-C74C-4F9A-A7CF-4083D549EAB1";
name = Bold;
paths = (
{
closed = 1;
nodes = (
"554 568 LINE",
"12 568 LINE",
"12 420 LINE",
"198 420 LINE",
"198 0 LINE",
"369 0 LINE",
"369 420 LINE",
"554 420 LINE"
);
}
);
width = 566;
}
);
rightKerningGroup = A.sc;
},
{
glyphname = Tbar;
layers = (
{
layerId = "AE853CD8-C74C-4F9A-A7CF-4083D549EAB1";
name = Bold;
paths = (
{
closed = 1;
nodes = (
"626 710 LINE",
"22 710 LINE",
"22 540 LINE",
"227 540 LINE",
"227 356 LINE",
"62 356 LINE",
"62 268 LINE",
"227 268 LINE",
"227 0 LINE",
"422 0 LINE",
"422 268 LINE",
"586 268 LINE",
"586 356 LINE",
"422 356 LINE",
"422 540 LINE",
"626 540 LINE"
);
}
);
width = 648;
}
);
leftKerningGroup = T;
rightKerningGroup = T;
unicode = 0166;
},
{
glyphname = Tcaron;
layers = (
{
layerId = "AE853CD8-C74C-4F9A-A7CF-4083D549EAB1";
name = Bold;
paths = (
{
closed = 1;
nodes = (
"614 710 LINE",
"10 710 LINE",
"10 540 LINE",
"215 540 LINE",
"215 0 LINE",
"410 0 LINE",
"410 540 LINE",
"614 540 LINE"
);
},
{
closed = 1;
nodes = (
"139 872 LINE",
"252 757 LINE",
"388 757 LINE",
"501 872 LINE",
"405 914 LINE",
"320 851 LINE",
"235 914 LINE"
);
}
);
width = 624;
}
);
leftKerningGroup = T;
rightKerningGroup = T;
unicode = 0164;
},
{
glyphname = Thorn;
layers = (
{
layerId = "AE853CD8-C74C-4F9A-A7CF-4083D549EAB1";
name = Bold;
paths = (
{
closed = 1;
nodes = (
"256 592 LINE",
"256 710 LINE",
"61 710 LINE",
"61 0 LINE",
"256 0 LINE",
"256 101 LINE",
"357 101 LINE SMOOTH",
"497 101 OFFCURVE",
"591 220 OFFCURVE",
"591 347 CURVE SMOOTH",
"591 468 OFFCURVE",
"491 592 OFFCURVE",
"352 592 CURVE SMOOTH"
);
},
{
closed = 1;
nodes = (
"256 271 LINE",
"256 422 LINE",
"342 422 LINE SMOOTH",
"367 422 OFFCURVE",
"396 396 OFFCURVE",
"396 347 CURVE SMOOTH",
"396 300 OFFCURVE",
"372 271 OFFCURVE",
"347 271 CURVE SMOOTH"
);
}
);
width = 605;
}
);
leftKerningGroup = B;
rightKerningGroup = Thorn;
unicode = 00DE;
},
{
glyphname = U;
layers = (
{
layerId = "AE853CD8-C74C-4F9A-A7CF-4083D549EAB1";
name = Bold;
paths = (
{
closed = 1;
nodes = (
"280 167 OFFCURVE",
"245 251 OFFCURVE",
"245 345 CURVE SMOOTH",
"245 710 LINE",
"50 710 LINE",
"50 345 LINE SMOOTH",
"50 157 OFFCURVE",
"143 -6 OFFCURVE",
"370 -6 CURVE SMOOTH",
"590 -6 OFFCURVE",
"691 147 OFFCURVE",
"691 345 CURVE SMOOTH",
"691 710 LINE",
"496 710 LINE",
"496 345 LINE SMOOTH",
"496 253 OFFCURVE",
"462 167 OFFCURVE",
"370 167 CURVE SMOOTH"
);
}
);
width = 741;
}
);
leftKerningGroup = U;
rightKerningGroup = U;
unicode = 0055;
},
{
glyphname = U.sc;
layers = (
{
layerId = "AE853CD8-C74C-4F9A-A7CF-4083D549EAB1";
name = Bold;
paths = (
{
closed = 1;
nodes = (
"246 146 OFFCURVE",
"215 206 OFFCURVE",
"215 275 CURVE SMOOTH",
"215 568 LINE",
"45 568 LINE",
"45 275 LINE SMOOTH",
"45 124 OFFCURVE",
"126 -5 OFFCURVE",
"325 -5 CURVE SMOOTH",
"518 -5 OFFCURVE",
"606 116 OFFCURVE",
"606 275 CURVE SMOOTH",
"606 568 LINE",
"436 568 LINE",
"436 275 LINE SMOOTH",
"436 208 OFFCURVE",
"407 146 OFFCURVE",
"325 146 CURVE SMOOTH"
);
}
);
width = 651;
}
);
rightKerningGroup = A.sc;
},
{
glyphname = Uacute;
layers = (
{
layerId = "AE853CD8-C74C-4F9A-A7CF-4083D549EAB1";
name = Bold;
paths = (
{
closed = 1;
nodes = (
"280 167 OFFCURVE",
"245 251 OFFCURVE",
"245 345 CURVE SMOOTH",
"245 710 LINE",
"50 710 LINE",
"50 345 LINE SMOOTH",
"50 157 OFFCURVE",
"143 -6 OFFCURVE",
"370 -6 CURVE SMOOTH",
"590 -6 OFFCURVE",
"691 147 OFFCURVE",
"691 345 CURVE SMOOTH",
"691 710 LINE",
"496 710 LINE",
"496 345 LINE SMOOTH",
"496 253 OFFCURVE",
"462 167 OFFCURVE",
"370 167 CURVE SMOOTH"
);
},
{
closed = 1;
nodes = (
"527 914 LINE",
"358 914 LINE",
"308 772 LINE",
"428 740 LINE"
);
}
);
width = 741;
}
);
leftKerningGroup = U;
rightKerningGroup = U;
unicode = 00DA;
},
{
glyphname = Ubreve;
layers = (
{
layerId = "AE853CD8-C74C-4F9A-A7CF-4083D549EAB1";
name = Bold;
paths = (
{
closed = 1;
nodes = (
"280 167 OFFCURVE",
"245 251 OFFCURVE",
"245 345 CURVE SMOOTH",
"245 710 LINE",
"50 710 LINE",
"50 345 LINE SMOOTH",
"50 157 OFFCURVE",
"143 -6 OFFCURVE",
"370 -6 CURVE SMOOTH",
"590 -6 OFFCURVE",
"691 147 OFFCURVE",
"691 345 CURVE SMOOTH",
"691 710 LINE",
"496 710 LINE",
"496 345 LINE SMOOTH",
"496 253 OFFCURVE",
"462 167 OFFCURVE",
"370 167 CURVE SMOOTH"
);
},
{
closed = 1;
nodes = (
"337 833 OFFCURVE",
"309 870 OFFCURVE",
"309 914 CURVE",
"211 914 LINE",
"211 819 OFFCURVE",
"276 752 OFFCURVE",
"370 752 CURVE SMOOTH",
"464 752 OFFCURVE",
"529 819 OFFCURVE",
"529 914 CURVE",
"431 914 LINE",
"427 867 OFFCURVE",
"401 833 OFFCURVE",
"370 833 CURVE SMOOTH"
);
}
);
width = 741;
}
);
leftKerningGroup = U;
rightKerningGroup = U;
unicode = 016C;
},
{
glyphname = Ucircumflex;
layers = (
{
layerId = "AE853CD8-C74C-4F9A-A7CF-4083D549EAB1";
name = Bold;
paths = (
{
closed = 1;
nodes = (
"280 167 OFFCURVE",
"245 251 OFFCURVE",
"245 345 CURVE SMOOTH",
"245 710 LINE",
"50 710 LINE",
"50 345 LINE SMOOTH",
"50 157 OFFCURVE",
"143 -6 OFFCURVE",
"370 -6 CURVE SMOOTH",
"590 -6 OFFCURVE",
"691 147 OFFCURVE",
"691 345 CURVE SMOOTH",
"691 710 LINE",
"496 710 LINE",
"496 345 LINE SMOOTH",
"496 253 OFFCURVE",
"462 167 OFFCURVE",
"370 167 CURVE SMOOTH"
);
},
{
closed = 1;
nodes = (
"285 757 LINE",
"370 820 LINE",
"455 757 LINE",
"551 799 LINE",
"438 914 LINE",
"302 914 LINE",
"189 799 LINE"
);
}
);
width = 741;
}
);
leftKerningGroup = U;
rightKerningGroup = U;
unicode = 00DB;
},
{
glyphname = Udieresis;
layers = (
{
layerId = "AE853CD8-C74C-4F9A-A7CF-4083D549EAB1";
name = Bold;
paths = (
{
closed = 1;
nodes = (
"280 167 OFFCURVE",
"245 251 OFFCURVE",
"245 345 CURVE SMOOTH",
"245 710 LINE",
"50 710 LINE",
"50 345 LINE SMOOTH",
"50 157 OFFCURVE",
"143 -6 OFFCURVE",
"370 -6 CURVE SMOOTH",
"590 -6 OFFCURVE",
"691 147 OFFCURVE",
"691 345 CURVE SMOOTH",
"691 710 LINE",
"496 710 LINE",
"496 345 LINE SMOOTH",
"496 253 OFFCURVE",
"462 167 OFFCURVE",
"370 167 CURVE SMOOTH"
);
},
{
closed = 1;
nodes = (
"333 765 LINE",
"333 905 LINE",
"177 905 LINE",
"177 765 LINE"
);
},
{
closed = 1;
nodes = (
"563 765 LINE",
"563 905 LINE",
"407 905 LINE",
"407 765 LINE"
);
}
);
width = 741;
}
);
leftKerningGroup = U;
rightKerningGroup = U;
unicode = 00DC;
},
{
glyphname = Ugrave;
layers = (
{
layerId = "AE853CD8-C74C-4F9A-A7CF-4083D549EAB1";
name = Bold;
paths = (
{
closed = 1;
nodes = (
"280 167 OFFCURVE",
"245 251 OFFCURVE",
"245 345 CURVE SMOOTH",
"245 710 LINE",
"50 710 LINE",
"50 345 LINE SMOOTH",
"50 157 OFFCURVE",
"143 -6 OFFCURVE",
"370 -6 CURVE SMOOTH",
"590 -6 OFFCURVE",
"691 147 OFFCURVE",
"691 345 CURVE SMOOTH",
"691 710 LINE",
"496 710 LINE",
"496 345 LINE SMOOTH",
"496 253 OFFCURVE",
"462 167 OFFCURVE",
"370 167 CURVE SMOOTH"
);
},
{
closed = 1;
nodes = (
"312 741 LINE",
"432 773 LINE",
"382 915 LINE",
"213 915 LINE"
);
}
);
width = 741;
}
);
leftKerningGroup = U;
rightKerningGroup = U;
unicode = 00D9;
},
{
glyphname = Uhungarumlaut;
layers = (
{
layerId = "AE853CD8-C74C-4F9A-A7CF-4083D549EAB1";
name = Bold;
paths = (
{
closed = 1;
nodes = (
"280 167 OFFCURVE",
"245 251 OFFCURVE",
"245 345 CURVE SMOOTH",
"245 710 LINE",
"50 710 LINE",
"50 345 LINE SMOOTH",
"50 157 OFFCURVE",
"143 -6 OFFCURVE",
"370 -6 CURVE SMOOTH",
"590 -6 OFFCURVE",
"691 147 OFFCURVE",
"691 345 CURVE SMOOTH",
"691 710 LINE",
"496 710 LINE",
"496 345 LINE SMOOTH",
"496 253 OFFCURVE",
"462 167 OFFCURVE",
"370 167 CURVE SMOOTH"
);
},
{
closed = 1;
nodes = (
"396 915 LINE",
"257 915 LINE",
"217 773 LINE",
"307 741 LINE"
);
},
{
closed = 1;
nodes = (
"586 915 LINE",
"447 915 LINE",
"407 773 LINE",
"497 741 LINE"
);
}
);
width = 741;
}
);
leftKerningGroup = U;
rightKerningGroup = U;
unicode = 0170;
},
{
glyphname = Umacron;
layers = (
{
layerId = "AE853CD8-C74C-4F9A-A7CF-4083D549EAB1";
name = Bold;
paths = (
{
closed = 1;
nodes = (
"280 167 OFFCURVE",
"245 251 OFFCURVE",
"245 345 CURVE SMOOTH",
"245 710 LINE",
"50 710 LINE",
"50 345 LINE SMOOTH",
"50 157 OFFCURVE",
"143 -6 OFFCURVE",
"370 -6 CURVE SMOOTH",
"590 -6 OFFCURVE",
"691 147 OFFCURVE",
"691 345 CURVE SMOOTH",
"691 710 LINE",
"496 710 LINE",
"496 345 LINE SMOOTH",
"496 253 OFFCURVE",
"462 167 OFFCURVE",
"370 167 CURVE SMOOTH"
);
},
{
closed = 1;
nodes = (
"526 791 LINE",
"526 904 LINE",
"216 904 LINE",
"216 791 LINE"
);
}
);
width = 741;
}
);
leftKerningGroup = U;
rightKerningGroup = U;
unicode = 016A;
},
{
glyphname = Uogonek;
layers = (
{
layerId = "AE853CD8-C74C-4F9A-A7CF-4083D549EAB1";
name = Bold;
paths = (
{
closed = 1;
nodes = (
"399 -124 LINE",
"351 -124 OFFCURVE",
"329 -109 OFFCURVE",
"329 -87 CURVE SMOOTH",
"329 -63 OFFCURVE",
"354 -33 OFFCURVE",
"400 -5 CURVE",
"599 8 OFFCURVE",
"691 156 OFFCURVE",
"691 345 CURVE SMOOTH",
"691 710 LINE",
"496 710 LINE",
"496 345 LINE SMOOTH",
"496 253 OFFCURVE",
"462 167 OFFCURVE",
"370 167 CURVE SMOOTH",
"280 167 OFFCURVE",
"245 251 OFFCURVE",
"245 345 CURVE SMOOTH",
"245 710 LINE",
"50 710 LINE",
"50 345 LINE SMOOTH",
"50 174 OFFCURVE",
"127 23 OFFCURVE",
"312 -2 CURVE",
"259 -36 OFFCURVE",
"232 -76 OFFCURVE",
"232 -114 CURVE SMOOTH",
"232 -161 OFFCURVE",
"275 -202 OFFCURVE",
"364 -214 CURVE"
);
}
);
width = 741;
}
);
leftKerningGroup = U;
rightKerningGroup = U;
unicode = 0172;
},
{
glyphname = Uring;
layers = (
{
layerId = "AE853CD8-C74C-4F9A-A7CF-4083D549EAB1";
name = Bold;
paths = (
{
closed = 1;
nodes = (
"280 167 OFFCURVE",
"245 251 OFFCURVE",
"245 345 CURVE SMOOTH",
"245 710 LINE",
"50 710 LINE",
"50 345 LINE SMOOTH",
"50 157 OFFCURVE",
"143 -6 OFFCURVE",
"370 -6 CURVE SMOOTH",
"590 -6 OFFCURVE",
"691 147 OFFCURVE",
"691 345 CURVE SMOOTH",
"691 710 LINE",
"496 710 LINE",
"496 345 LINE SMOOTH",
"496 253 OFFCURVE",
"462 167 OFFCURVE",
"370 167 CURVE SMOOTH"
);
},
{
closed = 1;
nodes = (
"253 769 OFFCURVE",
"299 740 OFFCURVE",
"370 740 CURVE SMOOTH",
"441 740 OFFCURVE",
"487 769 OFFCURVE",
"487 827 CURVE SMOOTH",
"487 885 OFFCURVE",
"441 914 OFFCURVE",
"370 914 CURVE SMOOTH",
"299 914 OFFCURVE",
"253 885 OFFCURVE",
"253 827 CURVE SMOOTH"
);
},
{
closed = 1;
nodes = (
"393 860 OFFCURVE",
"410 847 OFFCURVE",
"410 828 CURVE SMOOTH",
"410 808 OFFCURVE",
"392 794 OFFCURVE",
"370 794 CURVE SMOOTH",
"347 794 OFFCURVE",
"330 808 OFFCURVE",
"330 828 CURVE SMOOTH",
"330 847 OFFCURVE",
"347 860 OFFCURVE",
"370 860 CURVE SMOOTH"
);
}
);
width = 741;
}
);
leftKerningGroup = U;
rightKerningGroup = U;
unicode = 016E;
},
{
glyphname = Utilde;
layers = (
{
layerId = "AE853CD8-C74C-4F9A-A7CF-4083D549EAB1";
name = Bold;
paths = (
{
closed = 1;
nodes = (
"280 167 OFFCURVE",
"245 251 OFFCURVE",
"245 345 CURVE SMOOTH",
"245 710 LINE",
"50 710 LINE",
"50 345 LINE SMOOTH",
"50 157 OFFCURVE",
"143 -6 OFFCURVE",
"370 -6 CURVE SMOOTH",
"590 -6 OFFCURVE",
"691 147 OFFCURVE",
"691 345 CURVE SMOOTH",
"691 710 LINE",
"496 710 LINE",
"496 345 LINE SMOOTH",
"496 253 OFFCURVE",
"462 167 OFFCURVE",
"370 167 CURVE SMOOTH"
);
},
{
closed = 1;
nodes = (
"537 756 OFFCURVE",
"577 891 OFFCURVE",
"577 914 CURVE",
"477 914 LINE",
"477 911 OFFCURVE",
"471 863 OFFCURVE",
"427 863 CURVE SMOOTH",
"381 863 OFFCURVE",
"357 914 OFFCURVE",
"292 914 CURVE SMOOTH",
"192 914 OFFCURVE",
"153 791 OFFCURVE",
"153 756 CURVE",
"254 756 LINE",
"254 758 OFFCURVE",
"255 804 OFFCURVE",
"300 804 CURVE SMOOTH",
"345 804 OFFCURVE",
"373 756 OFFCURVE",
"434 756 CURVE SMOOTH"
);
}
);
width = 741;
}
);
leftKerningGroup = U;
rightKerningGroup = U;
unicode = 0168;
},
{
glyphname = V;
layers = (
{
layerId = "AE853CD8-C74C-4F9A-A7CF-4083D549EAB1";
name = Bold;
paths = (
{
closed = 1;
nodes = (
"-9 710 LINE",
"255 0 LINE",
"417 0 LINE",
"678 710 LINE",
"473 710 LINE",
"336 245 LINE",
"197 710 LINE"
);
}
);
width = 670;
}
);
leftKerningGroup = V;
rightKerningGroup = V;
unicode = 0056;
},
{
glyphname = V.sc;
layers = (
{
layerId = "AE853CD8-C74C-4F9A-A7CF-4083D549EAB1";
name = Bold;
paths = (
{
closed = 1;
nodes = (
"-9 568 LINE",
"230 0 LINE",
"372 0 LINE",
"608 568 LINE",
"429 568 LINE",
"301 241 LINE",
"171 568 LINE"
);
}
);
width = 601;
}
);
rightKerningGroup = A.sc;
},
{
color = 4;
glyphname = W;
lastChange = "2014-10-27 22:09:52 +0100";
layers = (
{
layerId = "AE853CD8-C74C-4F9A-A7CF-4083D549EAB1";
name = Bold;
paths = (
{
closed = 1;
nodes = (
"922 711 LINE",
"804 296 LINE",
"675 710 LINE",
"463 710 LINE",
"335 295 LINE",
"216 710 LINE",
"-5 710 LINE",
"214 0 LINE",
"416 0 LINE",
"569 391 LINE",
"723 1 LINE",
"925 1 LINE",
"1144 711 LINE"
);
}
);
width = 1138;
}
);
leftKerningGroup = W;
rightKerningGroup = W;
unicode = 0057;
},
{
color = 4;
glyphname = W.sc;
lastChange = "2014-10-27 22:09:52 +0100";
layers = (
{
layerId = "AE853CD8-C74C-4F9A-A7CF-4083D549EAB1";
name = Bold;
paths = (
{
closed = 1;
nodes = (
"725 0 LINE",
"902 526 LINE",
"707 526 LINE",
"613 224 LINE",
"538 526 LINE",
"361 526 LINE",
"286 224 LINE",
"192 526 LINE",
"-3 526 LINE",
"174 0 LINE",
"381 0 LINE",
"449 229 LINE",
"518 0 LINE"
);
}
);
width = 900;
}
);
rightKerningGroup = A.sc;
},
{
color = 4;
glyphname = Wacute;
lastChange = "2014-10-27 22:09:52 +0100";
layers = (
{
layerId = "AE853CD8-C74C-4F9A-A7CF-4083D549EAB1";
name = Bold;
paths = (
{
closed = 1;
nodes = (
"686 914 LINE",
"517 914 LINE",
"467 772 LINE",
"587 740 LINE"
);
},
{
closed = 1;
nodes = (
"922 711 LINE",
"804 296 LINE",
"675 710 LINE",
"463 710 LINE",
"335 295 LINE",
"216 710 LINE",
"-5 710 LINE",
"214 0 LINE",
"416 0 LINE",
"569 391 LINE",
"723 1 LINE",
"925 1 LINE",
"1144 711 LINE"
);
}
);
width = 1138;
}
);
leftKerningGroup = W;
rightKerningGroup = W;
unicode = 1E82;
},
{
color = 4;
glyphname = Wcircumflex;
lastChange = "2014-10-27 22:09:52 +0100";
layers = (
{
layerId = "AE853CD8-C74C-4F9A-A7CF-4083D549EAB1";
name = Bold;
paths = (
{
closed = 1;
nodes = (
"484 757 LINE",
"569 820 LINE",
"654 757 LINE",
"750 799 LINE",
"637 914 LINE",
"501 914 LINE",
"388 799 LINE"
);
},
{
closed = 1;
nodes = (
"922 711 LINE",
"804 296 LINE",
"675 710 LINE",
"463 710 LINE",
"335 295 LINE",
"216 710 LINE",
"-5 710 LINE",
"214 0 LINE",
"416 0 LINE",
"569 391 LINE",
"723 1 LINE",
"925 1 LINE",
"1144 711 LINE"
);
}
);
width = 1138;
}
);
leftKerningGroup = W;
rightKerningGroup = W;
unicode = 0174;
},
{
color = 4;
glyphname = Wdieresis;
lastChange = "2014-10-27 22:09:52 +0100";
layers = (
{
layerId = "AE853CD8-C74C-4F9A-A7CF-4083D549EAB1";
name = Bold;
paths = (
{
closed = 1;
nodes = (
"525 765 LINE",
"525 905 LINE",
"369 905 LINE",
"369 765 LINE"
);
},
{
closed = 1;
nodes = (
"755 765 LINE",
"755 905 LINE",
"599 905 LINE",
"599 765 LINE"
);
},
{
closed = 1;
nodes = (
"922 711 LINE",
"804 296 LINE",
"675 710 LINE",
"463 710 LINE",
"335 295 LINE",
"216 710 LINE",
"-5 710 LINE",
"214 0 LINE",
"416 0 LINE",
"569 391 LINE",
"723 1 LINE",
"925 1 LINE",
"1144 711 LINE"
);
}
);
width = 1138;
}
);
leftKerningGroup = W;
rightKerningGroup = W;
unicode = 1E84;
},
{
color = 4;
glyphname = Wgrave;
lastChange = "2014-10-27 22:09:52 +0100";
layers = (
{
layerId = "AE853CD8-C74C-4F9A-A7CF-4083D549EAB1";
name = Bold;
paths = (
{
closed = 1;
nodes = (
"501 741 LINE",
"621 773 LINE",
"571 915 LINE",
"402 915 LINE"
);
},
{
closed = 1;
nodes = (
"922 711 LINE",
"804 296 LINE",
"675 710 LINE",
"463 710 LINE",
"335 295 LINE",
"216 710 LINE",
"-5 710 LINE",
"214 0 LINE",
"416 0 LINE",
"569 391 LINE",
"723 1 LINE",
"925 1 LINE",
"1144 711 LINE"
);
}
);
width = 1059;
}
);
leftKerningGroup = W;
rightKerningGroup = W;
unicode = 1E80;
},
{
color = 4;
glyphname = X;
lastChange = "2014-10-27 22:09:52 +0100";
layers = (
{
layerId = "AE853CD8-C74C-4F9A-A7CF-4083D549EAB1";
name = Bold;
paths = (
{
closed = 1;
nodes = (
"-12 710 LINE",
"225 350 LINE",
"-4 0 LINE",
"207 0 LINE",
"328 214 LINE",
"449 0 LINE",
"659 0 LINE",
"430 350 LINE",
"667 710 LINE",
"457 710 LINE",
"328 486 LINE",
"199 710 LINE"
);
}
);
width = 655;
}
);
leftKerningGroup = X;
rightKerningGroup = X;
unicode = 0058;
},
{
glyphname = X.sc;
layers = (
{
layerId = "AE853CD8-C74C-4F9A-A7CF-4083D549EAB1";
name = Bold;
paths = (
{
closed = 1;
nodes = (
"-6 568 LINE",
"209 280 LINE",
"1 0 LINE",
"186 0 LINE",
"299 161 LINE",
"412 0 LINE",
"596 0 LINE",
"388 280 LINE",
"603 568 LINE",
"419 568 LINE",
"299 399 LINE",
"178 568 LINE"
);
}
);
width = 597;
}
);
rightKerningGroup = A.sc;
},
{
glyphname = Y;
layers = (
{
layerId = "AE853CD8-C74C-4F9A-A7CF-4083D549EAB1";
name = Bold;
paths = (
{
closed = 1;
nodes = (
"-13 710 LINE",
"228 237 LINE",
"228 0 LINE",
"422 0 LINE",
"422 235 LINE",
"667 710 LINE",
"455 710 LINE",
"325 403 LINE",
"198 710 LINE"
);
}
);
width = 652;
}
);
leftKerningGroup = Y;
rightKerningGroup = Y;
unicode = 0059;
},
{
glyphname = Y.sc;
layers = (
{
layerId = "AE853CD8-C74C-4F9A-A7CF-4083D549EAB1";
name = Bold;
paths = (
{
closed = 1;
nodes = (
"-11 568 LINE",
"207 186 LINE",
"207 0 LINE",
"377 0 LINE",
"377 185 LINE",
"598 568 LINE",
"413 568 LINE",
"292 331 LINE",
"173 568 LINE"
);
}
);
width = 585;
}
);
rightKerningGroup = A.sc;
},
{
glyphname = Yacute;
layers = (
{
layerId = "AE853CD8-C74C-4F9A-A7CF-4083D549EAB1";
name = Bold;
paths = (
{
closed = 1;
nodes = (
"-13 710 LINE",
"228 237 LINE",
"228 0 LINE",
"422 0 LINE",
"422 235 LINE",
"667 710 LINE",
"455 710 LINE",
"325 403 LINE",
"198 710 LINE"
);
},
{
closed = 1;
nodes = (
"482 914 LINE",
"313 914 LINE",
"263 772 LINE",
"383 740 LINE"
);
}
);
width = 652;
}
);
leftKerningGroup = Y;
rightKerningGroup = Y;
unicode = 00DD;
},
{
glyphname = Ycircumflex;
layers = (
{
layerId = "AE853CD8-C74C-4F9A-A7CF-4083D549EAB1";
name = Bold;
paths = (
{
closed = 1;
nodes = (
"-13 710 LINE",
"228 237 LINE",
"228 0 LINE",
"422 0 LINE",
"422 235 LINE",
"667 710 LINE",
"455 710 LINE",
"325 403 LINE",
"198 710 LINE"
);
},
{
closed = 1;
nodes = (
"240 757 LINE",
"325 820 LINE",
"410 757 LINE",
"506 799 LINE",
"393 914 LINE",
"257 914 LINE",
"144 799 LINE"
);
}
);
width = 652;
}
);
leftKerningGroup = Y;
rightKerningGroup = Y;
unicode = 0176;
},
{
glyphname = Ydieresis;
layers = (
{
layerId = "AE853CD8-C74C-4F9A-A7CF-4083D549EAB1";
name = Bold;
paths = (
{
closed = 1;
nodes = (
"-13 710 LINE",
"228 237 LINE",
"228 0 LINE",
"422 0 LINE",
"422 235 LINE",
"667 710 LINE",
"455 710 LINE",
"325 403 LINE",
"198 710 LINE"
);
},
{
closed = 1;
nodes = (
"288 765 LINE",
"288 905 LINE",
"132 905 LINE",
"132 765 LINE"
);
},
{
closed = 1;
nodes = (
"518 765 LINE",
"518 905 LINE",
"362 905 LINE",
"362 765 LINE"
);
}
);
width = 652;
}
);
leftKerningGroup = Y;
rightKerningGroup = Y;
unicode = 0178;
},
{
glyphname = Ygrave;
layers = (
{
layerId = "AE853CD8-C74C-4F9A-A7CF-4083D549EAB1";
name = Bold;
paths = (
{
closed = 1;
nodes = (
"-13 710 LINE",
"228 237 LINE",
"228 0 LINE",
"422 0 LINE",
"422 235 LINE",
"667 710 LINE",
"455 710 LINE",
"325 403 LINE",
"198 710 LINE"
);
},
{
closed = 1;
nodes = (
"267 741 LINE",
"387 773 LINE",
"337 915 LINE",
"168 915 LINE"
);
}
);
width = 652;
}
);
leftKerningGroup = Y;
rightKerningGroup = Y;
unicode = 1EF2;
},
{
glyphname = Ytilde;
layers = (
{
layerId = "AE853CD8-C74C-4F9A-A7CF-4083D549EAB1";
name = Bold;
paths = (
{
closed = 1;
nodes = (
"-13 710 LINE",
"228 237 LINE",
"228 0 LINE",
"422 0 LINE",
"422 235 LINE",
"667 710 LINE",
"455 710 LINE",
"325 403 LINE",
"198 710 LINE"
);
},
{
closed = 1;
nodes = (
"492 756 OFFCURVE",
"532 891 OFFCURVE",
"532 914 CURVE",
"432 914 LINE",
"432 911 OFFCURVE",
"426 863 OFFCURVE",
"382 863 CURVE SMOOTH",
"336 863 OFFCURVE",
"312 914 OFFCURVE",
"247 914 CURVE SMOOTH",
"147 914 OFFCURVE",
"108 791 OFFCURVE",
"108 756 CURVE",
"209 756 LINE",
"209 758 OFFCURVE",
"210 804 OFFCURVE",
"255 804 CURVE SMOOTH",
"300 804 OFFCURVE",
"328 756 OFFCURVE",
"389 756 CURVE SMOOTH"
);
}
);
width = 652;
}
);
leftKerningGroup = Y;
rightKerningGroup = Y;
unicode = 1EF8;
},
{
glyphname = Z;
layers = (
{
layerId = "AE853CD8-C74C-4F9A-A7CF-4083D549EAB1";
name = Bold;
paths = (
{
closed = 1;
nodes = (
"27 0 LINE",
"590 0 LINE",
"590 170 LINE",
"272 170 LINE",
"584 565 LINE",
"584 710 LINE",
"42 710 LINE",
"42 540 LINE",
"359 540 LINE",
"27 145 LINE"
);
}
);
width = 622;
}
);
leftKerningGroup = Z;
rightKerningGroup = Z;
unicode = 005A;
},
{
glyphname = Z.sc;
layers = (
{
layerId = "AE853CD8-C74C-4F9A-A7CF-4083D549EAB1";
name = Bold;
paths = (
{
closed = 1;
nodes = (
"29 0 LINE",
"536 0 LINE",
"536 148 LINE",
"243 148 LINE",
"531 442 LINE",
"531 568 LINE",
"42 568 LINE",
"42 420 LINE",
"334 420 LINE",
"29 126 LINE"
);
}
);
width = 569;
}
);
rightKerningGroup = A.sc;
},
{
glyphname = Zacute;
layers = (
{
layerId = "AE853CD8-C74C-4F9A-A7CF-4083D549EAB1";
name = Bold;
paths = (
{
closed = 1;
nodes = (
"27 0 LINE",
"590 0 LINE",
"590 170 LINE",
"272 170 LINE",
"584 565 LINE",
"584 710 LINE",
"42 710 LINE",
"42 540 LINE",
"359 540 LINE",
"27 145 LINE"
);
},
{
closed = 1;
nodes = (
"477 914 LINE",
"308 914 LINE",
"258 772 LINE",
"378 740 LINE"
);
}
);
width = 622;
}
);
leftKerningGroup = Z;
rightKerningGroup = Z;
unicode = 0179;
},
{
glyphname = Zcaron;
layers = (
{
layerId = "AE853CD8-C74C-4F9A-A7CF-4083D549EAB1";
name = Bold;
paths = (
{
closed = 1;
nodes = (
"27 0 LINE",
"590 0 LINE",
"590 170 LINE",
"272 170 LINE",
"584 565 LINE",
"584 710 LINE",
"42 710 LINE",
"42 540 LINE",
"359 540 LINE",
"27 145 LINE"
);
},
{
closed = 1;
nodes = (
"139 872 LINE",
"252 757 LINE",
"388 757 LINE",
"501 872 LINE",
"405 914 LINE",
"320 851 LINE",
"235 914 LINE"
);
}
);
width = 622;
}
);
leftKerningGroup = Z;
rightKerningGroup = Z;
unicode = 017D;
},
{
glyphname = Zdotaccent;
layers = (
{
layerId = "AE853CD8-C74C-4F9A-A7CF-4083D549EAB1";
name = Bold;
paths = (
{
closed = 1;
nodes = (
"27 0 LINE",
"590 0 LINE",
"590 170 LINE",
"272 170 LINE",
"584 565 LINE",
"584 710 LINE",
"42 710 LINE",
"42 540 LINE",
"359 540 LINE",
"27 145 LINE"
);
},
{
closed = 1;
nodes = (
"405 764 LINE",
"405 914 LINE",
"235 914 LINE",
"235 764 LINE"
);
}
);
width = 622;
}
);
leftKerningGroup = Z;
rightKerningGroup = Z;
unicode = 017B;
},
{
color = 4;
glyphname = a;
lastChange = "2014-10-28 14:19:33 +0100";
layers = (
{
layerId = "AE853CD8-C74C-4F9A-A7CF-4083D549EAB1";
name = Bold;
paths = (
{
closed = 1;
nodes = (
"542 0 LINE",
"542 312 LINE SMOOTH",
"542 460 OFFCURVE",
"447 536 OFFCURVE",
"280 536 CURVE SMOOTH",
"190 536 OFFCURVE",
"113 514 OFFCURVE",
"43 469 CURVE",
"98 351 LINE",
"154 388 OFFCURVE",
"202 408 OFFCURVE",
"261 408 CURVE SMOOTH",
"325 408 OFFCURVE",
"352 384 OFFCURVE",
"352 335 CURVE SMOOTH",
"352 319 LINE",
"325 332 OFFCURVE",
"287 339 OFFCURVE",
"246 339 CURVE SMOOTH",
"113 339 OFFCURVE",
"19 265 OFFCURVE",
"19 159 CURVE SMOOTH",
"19 62 OFFCURVE",
"98 -10 OFFCURVE",
"203 -10 CURVE SMOOTH",
"272 -10 OFFCURVE",
"325 16 OFFCURVE",
"359 65 CURVE",
"359 0 LINE"
);
},
{
closed = 1;
nodes = (
"309 134 OFFCURVE",
"283 126 OFFCURVE",
"260 126 CURVE SMOOTH",
"224 126 OFFCURVE",
"198 147 OFFCURVE",
"198 176 CURVE SMOOTH",
"198 210 OFFCURVE",
"233 236 OFFCURVE",
"279 236 CURVE SMOOTH",
"300 236 OFFCURVE",
"330 230 OFFCURVE",
"352 222 CURVE",
"352 183 LINE SMOOTH",
"352 170 OFFCURVE",
"342 156 OFFCURVE",
"327 146 CURVE SMOOTH"
);
}
);
width = 584;
}
);
leftKerningGroup = a;
rightKerningGroup = a;
unicode = 0061;
},
{
color = 4;
glyphname = aacute;
lastChange = "2014-10-28 14:19:33 +0100";
layers = (
{
layerId = "AE853CD8-C74C-4F9A-A7CF-4083D549EAB1";
name = Bold;
paths = (
{
closed = 1;
nodes = (
"437 730 LINE",
"268 730 LINE",
"218 588 LINE",
"338 556 LINE"
);
},
{
closed = 1;
nodes = (
"542 0 LINE",
"542 312 LINE SMOOTH",
"542 460 OFFCURVE",
"447 536 OFFCURVE",
"280 536 CURVE SMOOTH",
"190 536 OFFCURVE",
"113 514 OFFCURVE",
"43 469 CURVE",
"98 351 LINE",
"154 388 OFFCURVE",
"202 408 OFFCURVE",
"261 408 CURVE SMOOTH",
"325 408 OFFCURVE",
"352 384 OFFCURVE",
"352 335 CURVE SMOOTH",
"352 319 LINE",
"325 332 OFFCURVE",
"287 339 OFFCURVE",
"246 339 CURVE SMOOTH",
"113 339 OFFCURVE",
"19 265 OFFCURVE",
"19 159 CURVE SMOOTH",
"19 62 OFFCURVE",
"98 -10 OFFCURVE",
"203 -10 CURVE SMOOTH",
"272 -10 OFFCURVE",
"325 16 OFFCURVE",
"359 65 CURVE",
"359 0 LINE"
);
},
{
closed = 1;
nodes = (
"309 134 OFFCURVE",
"283 126 OFFCURVE",
"260 126 CURVE SMOOTH",
"224 126 OFFCURVE",
"198 147 OFFCURVE",
"198 176 CURVE SMOOTH",
"198 210 OFFCURVE",
"233 236 OFFCURVE",
"279 236 CURVE SMOOTH",
"300 236 OFFCURVE",
"330 230 OFFCURVE",
"352 222 CURVE",
"352 183 LINE SMOOTH",
"352 170 OFFCURVE",
"342 156 OFFCURVE",
"327 146 CURVE SMOOTH"
);
}
);
width = 584;
}
);
leftKerningGroup = a;
rightKerningGroup = a;
unicode = 00E1;
},
{
color = 4;
glyphname = abreve;
lastChange = "2014-10-28 14:19:33 +0100";
layers = (
{
layerId = "AE853CD8-C74C-4F9A-A7CF-4083D549EAB1";
name = Bold;
paths = (
{
closed = 1;
nodes = (
"247 649 OFFCURVE",
"219 686 OFFCURVE",
"219 730 CURVE",
"121 730 LINE",
"121 635 OFFCURVE",
"186 568 OFFCURVE",
"280 568 CURVE SMOOTH",
"374 568 OFFCURVE",
"439 635 OFFCURVE",
"439 730 CURVE",
"341 730 LINE",
"337 683 OFFCURVE",
"311 649 OFFCURVE",
"280 649 CURVE SMOOTH"
);
},
{
closed = 1;
nodes = (
"542 0 LINE",
"542 312 LINE SMOOTH",
"542 460 OFFCURVE",
"447 536 OFFCURVE",
"280 536 CURVE SMOOTH",
"190 536 OFFCURVE",
"113 514 OFFCURVE",
"43 469 CURVE",
"98 351 LINE",
"154 388 OFFCURVE",
"202 408 OFFCURVE",
"261 408 CURVE SMOOTH",
"325 408 OFFCURVE",
"352 384 OFFCURVE",
"352 335 CURVE SMOOTH",
"352 319 LINE",
"325 332 OFFCURVE",
"287 339 OFFCURVE",
"246 339 CURVE SMOOTH",
"113 339 OFFCURVE",
"19 265 OFFCURVE",
"19 159 CURVE SMOOTH",
"19 62 OFFCURVE",
"98 -10 OFFCURVE",
"203 -10 CURVE SMOOTH",
"272 -10 OFFCURVE",
"325 16 OFFCURVE",
"359 65 CURVE",
"359 0 LINE"
);
},
{
closed = 1;
nodes = (
"309 134 OFFCURVE",
"283 126 OFFCURVE",
"260 126 CURVE SMOOTH",
"224 126 OFFCURVE",
"198 147 OFFCURVE",
"198 176 CURVE SMOOTH",
"198 210 OFFCURVE",
"233 236 OFFCURVE",
"279 236 CURVE SMOOTH",
"300 236 OFFCURVE",
"330 230 OFFCURVE",
"352 222 CURVE",
"352 183 LINE SMOOTH",
"352 170 OFFCURVE",
"342 156 OFFCURVE",
"327 146 CURVE SMOOTH"
);
}
);
width = 584;
}
);
leftKerningGroup = a;
rightKerningGroup = a;
unicode = 0103;
},
{
color = 4;
glyphname = acircumflex;
lastChange = "2014-10-28 14:19:33 +0100";
layers = (
{
layerId = "AE853CD8-C74C-4F9A-A7CF-4083D549EAB1";
name = Bold;
paths = (
{
closed = 1;
nodes = (
"195 573 LINE",
"280 636 LINE",
"365 573 LINE",
"461 615 LINE",
"348 730 LINE",
"212 730 LINE",
"99 615 LINE"
);
},
{
closed = 1;
nodes = (
"542 0 LINE",
"542 312 LINE SMOOTH",
"542 460 OFFCURVE",
"447 536 OFFCURVE",
"280 536 CURVE SMOOTH",
"190 536 OFFCURVE",
"113 514 OFFCURVE",
"43 469 CURVE",
"98 351 LINE",
"154 388 OFFCURVE",
"202 408 OFFCURVE",
"261 408 CURVE SMOOTH",
"325 408 OFFCURVE",
"352 384 OFFCURVE",
"352 335 CURVE SMOOTH",
"352 319 LINE",
"325 332 OFFCURVE",
"287 339 OFFCURVE",
"246 339 CURVE SMOOTH",
"113 339 OFFCURVE",
"19 265 OFFCURVE",
"19 159 CURVE SMOOTH",
"19 62 OFFCURVE",
"98 -10 OFFCURVE",
"203 -10 CURVE SMOOTH",
"272 -10 OFFCURVE",
"325 16 OFFCURVE",
"359 65 CURVE",
"359 0 LINE"
);
},
{
closed = 1;
nodes = (
"309 134 OFFCURVE",
"283 126 OFFCURVE",
"260 126 CURVE SMOOTH",
"224 126 OFFCURVE",
"198 147 OFFCURVE",
"198 176 CURVE SMOOTH",
"198 210 OFFCURVE",
"233 236 OFFCURVE",
"279 236 CURVE SMOOTH",
"300 236 OFFCURVE",
"330 230 OFFCURVE",
"352 222 CURVE",
"352 183 LINE SMOOTH",
"352 170 OFFCURVE",
"342 156 OFFCURVE",
"327 146 CURVE SMOOTH"
);
}
);
width = 584;
}
);
leftKerningGroup = a;
rightKerningGroup = a;
unicode = 00E2;
},
{
color = 4;
glyphname = adieresis;
lastChange = "2014-10-28 14:19:33 +0100";
layers = (
{
layerId = "AE853CD8-C74C-4F9A-A7CF-4083D549EAB1";
name = Bold;
paths = (
{
closed = 1;
nodes = (
"243 581 LINE",
"243 721 LINE",
"87 721 LINE",
"87 581 LINE"
);
},
{
closed = 1;
nodes = (
"473 581 LINE",
"473 721 LINE",
"317 721 LINE",
"317 581 LINE"
);
},
{
closed = 1;
nodes = (
"542 0 LINE",
"542 312 LINE SMOOTH",
"542 460 OFFCURVE",
"447 536 OFFCURVE",
"280 536 CURVE SMOOTH",
"190 536 OFFCURVE",
"113 514 OFFCURVE",
"43 469 CURVE",
"98 351 LINE",
"154 388 OFFCURVE",
"202 408 OFFCURVE",
"261 408 CURVE SMOOTH",
"325 408 OFFCURVE",
"352 384 OFFCURVE",
"352 335 CURVE SMOOTH",
"352 319 LINE",
"325 332 OFFCURVE",
"287 339 OFFCURVE",
"246 339 CURVE SMOOTH",
"113 339 OFFCURVE",
"19 265 OFFCURVE",
"19 159 CURVE SMOOTH",
"19 62 OFFCURVE",
"98 -10 OFFCURVE",
"203 -10 CURVE SMOOTH",
"272 -10 OFFCURVE",
"325 16 OFFCURVE",
"359 65 CURVE",
"359 0 LINE"
);
},
{
closed = 1;
nodes = (
"309 134 OFFCURVE",
"283 126 OFFCURVE",
"260 126 CURVE SMOOTH",
"224 126 OFFCURVE",
"198 147 OFFCURVE",
"198 176 CURVE SMOOTH",
"198 210 OFFCURVE",
"233 236 OFFCURVE",
"279 236 CURVE SMOOTH",
"300 236 OFFCURVE",
"330 230 OFFCURVE",
"352 222 CURVE",
"352 183 LINE SMOOTH",
"352 170 OFFCURVE",
"342 156 OFFCURVE",
"327 146 CURVE SMOOTH"
);
}
);
width = 584;
}
);
leftKerningGroup = a;
rightKerningGroup = a;
unicode = 00E4;
},
{
glyphname = ae;
layers = (
{
layerId = "AE853CD8-C74C-4F9A-A7CF-4083D549EAB1";
name = Bold;
paths = (
{
closed = 1;
nodes = (
"270 -10 OFFCURVE",
"356 20 OFFCURVE",
"407 92 CURVE",
"455 31 OFFCURVE",
"534 -10 OFFCURVE",
"640 -10 CURVE SMOOTH",
"768 -10 OFFCURVE",
"859 49 OFFCURVE",
"902 133 CURVE",
"741 179 LINE",
"729 146 OFFCURVE",
"687 126 OFFCURVE",
"646 126 CURVE SMOOTH",
"602 126 OFFCURVE",
"558 149 OFFCURVE",
"554 205 CURVE",
"923 205 LINE",
"926 221 OFFCURVE",
"928 243 OFFCURVE",
"928 263 CURVE SMOOTH",
"928 408 OFFCURVE",
"828 536 OFFCURVE",
"640 536 CURVE SMOOTH",
"568 536 OFFCURVE",
"510 517 OFFCURVE",
"465 486 CURVE",
"420 519 OFFCURVE",
"358 536 OFFCURVE",
"280 536 CURVE SMOOTH",
"190 536 OFFCURVE",
"113 514 OFFCURVE",
"43 469 CURVE",
"98 351 LINE",
"154 388 OFFCURVE",
"202 408 OFFCURVE",
"261 408 CURVE SMOOTH",
"325 408 OFFCURVE",
"351 384 OFFCURVE",
"352 335 CURVE SMOOTH",
"352 319 LINE",
"325 332 OFFCURVE",
"287 339 OFFCURVE",
"246 339 CURVE SMOOTH",
"113 339 OFFCURVE",
"19 265 OFFCURVE",
"19 159 CURVE SMOOTH",
"19 62 OFFCURVE",
"98 -10 OFFCURVE",
"203 -10 CURVE SMOOTH"
);
},
{
closed = 1;
nodes = (
"224 126 OFFCURVE",
"198 147 OFFCURVE",
"198 176 CURVE SMOOTH",
"198 210 OFFCURVE",
"233 236 OFFCURVE",
"279 236 CURVE SMOOTH",
"300 236 OFFCURVE",
"330 230 OFFCURVE",
"352 222 CURVE",
"352 183 LINE SMOOTH",
"352 170 OFFCURVE",
"342 156 OFFCURVE",
"327 146 CURVE SMOOTH",
"309 134 OFFCURVE",
"283 126 OFFCURVE",
"260 126 CURVE SMOOTH"
);
},
{
closed = 1;
nodes = (
"550 319 LINE",
"556 370 OFFCURVE",
"589 401 OFFCURVE",
"637 401 CURVE SMOOTH",
"685 401 OFFCURVE",
"718 370 OFFCURVE",
"724 319 CURVE"
);
}
);
width = 943;
}
);
leftKerningGroup = a;
rightKerningGroup = ae;
unicode = 00E6;
},
{
glyphname = aeacute;
layers = (
{
layerId = "AE853CD8-C74C-4F9A-A7CF-4083D549EAB1";
name = Bold;
paths = (
{
closed = 1;
nodes = (
"270 -10 OFFCURVE",
"356 20 OFFCURVE",
"407 92 CURVE",
"455 31 OFFCURVE",
"534 -10 OFFCURVE",
"640 -10 CURVE SMOOTH",
"768 -10 OFFCURVE",
"859 49 OFFCURVE",
"902 133 CURVE",
"741 179 LINE",
"729 146 OFFCURVE",
"687 126 OFFCURVE",
"646 126 CURVE SMOOTH",
"602 126 OFFCURVE",
"558 149 OFFCURVE",
"554 205 CURVE",
"923 205 LINE",
"926 221 OFFCURVE",
"928 243 OFFCURVE",
"928 263 CURVE SMOOTH",
"928 408 OFFCURVE",
"828 536 OFFCURVE",
"640 536 CURVE SMOOTH",
"568 536 OFFCURVE",
"510 517 OFFCURVE",
"465 486 CURVE",
"420 519 OFFCURVE",
"358 536 OFFCURVE",
"280 536 CURVE SMOOTH",
"190 536 OFFCURVE",
"113 514 OFFCURVE",
"43 469 CURVE",
"98 351 LINE",
"154 388 OFFCURVE",
"202 408 OFFCURVE",
"261 408 CURVE SMOOTH",
"325 408 OFFCURVE",
"351 384 OFFCURVE",
"352 335 CURVE SMOOTH",
"352 319 LINE",
"325 332 OFFCURVE",
"287 339 OFFCURVE",
"246 339 CURVE SMOOTH",
"113 339 OFFCURVE",
"19 265 OFFCURVE",
"19 159 CURVE SMOOTH",
"19 62 OFFCURVE",
"98 -10 OFFCURVE",
"203 -10 CURVE SMOOTH"
);
},
{
closed = 1;
nodes = (
"224 126 OFFCURVE",
"198 147 OFFCURVE",
"198 176 CURVE SMOOTH",
"198 210 OFFCURVE",
"233 236 OFFCURVE",
"279 236 CURVE SMOOTH",
"300 236 OFFCURVE",
"330 230 OFFCURVE",
"352 222 CURVE",
"352 183 LINE SMOOTH",
"352 170 OFFCURVE",
"342 156 OFFCURVE",
"327 146 CURVE SMOOTH",
"309 134 OFFCURVE",
"283 126 OFFCURVE",
"260 126 CURVE SMOOTH"
);
},
{
closed = 1;
nodes = (
"550 319 LINE",
"556 370 OFFCURVE",
"589 401 OFFCURVE",
"637 401 CURVE SMOOTH",
"685 401 OFFCURVE",
"718 370 OFFCURVE",
"724 319 CURVE"
);
},
{
closed = 1;
nodes = (
"622 730 LINE",
"453 730 LINE",
"403 588 LINE",
"523 556 LINE"
);
}
);
width = 943;
}
);
leftKerningGroup = a;
rightKerningGroup = ae;
unicode = 01FD;
},
{
color = 4;
glyphname = agrave;
lastChange = "2014-10-28 14:19:37 +0100";
layers = (
{
layerId = "AE853CD8-C74C-4F9A-A7CF-4083D549EAB1";
name = Bold;
paths = (
{
closed = 1;
nodes = (
"222 557 LINE",
"342 589 LINE",
"292 731 LINE",
"123 731 LINE"
);
},
{
closed = 1;
nodes = (
"542 0 LINE",
"542 312 LINE SMOOTH",
"542 460 OFFCURVE",
"447 536 OFFCURVE",
"280 536 CURVE SMOOTH",
"190 536 OFFCURVE",
"113 514 OFFCURVE",
"43 469 CURVE",
"98 351 LINE",
"154 388 OFFCURVE",
"202 408 OFFCURVE",
"261 408 CURVE SMOOTH",
"325 408 OFFCURVE",
"352 384 OFFCURVE",
"352 335 CURVE SMOOTH",
"352 319 LINE",
"325 332 OFFCURVE",
"287 339 OFFCURVE",
"246 339 CURVE SMOOTH",
"113 339 OFFCURVE",
"19 265 OFFCURVE",
"19 159 CURVE SMOOTH",
"19 62 OFFCURVE",
"98 -10 OFFCURVE",
"203 -10 CURVE SMOOTH",
"272 -10 OFFCURVE",
"325 16 OFFCURVE",
"359 65 CURVE",
"359 0 LINE"
);
},
{
closed = 1;
nodes = (
"309 134 OFFCURVE",
"283 126 OFFCURVE",
"260 126 CURVE SMOOTH",
"224 126 OFFCURVE",
"198 147 OFFCURVE",
"198 176 CURVE SMOOTH",
"198 210 OFFCURVE",
"233 236 OFFCURVE",
"279 236 CURVE SMOOTH",
"300 236 OFFCURVE",
"330 230 OFFCURVE",
"352 222 CURVE",
"352 183 LINE SMOOTH",
"352 170 OFFCURVE",
"342 156 OFFCURVE",
"327 146 CURVE SMOOTH"
);
}
);
width = 584;
}
);
leftKerningGroup = a;
rightKerningGroup = a;
unicode = 00E0;
},
{
color = 4;
glyphname = amacron;
lastChange = "2014-10-28 14:19:37 +0100";
layers = (
{
layerId = "AE853CD8-C74C-4F9A-A7CF-4083D549EAB1";
name = Bold;
paths = (
{
closed = 1;
nodes = (
"436 607 LINE",
"436 720 LINE",
"126 720 LINE",
"126 607 LINE"
);
},
{
closed = 1;
nodes = (
"542 0 LINE",
"542 312 LINE SMOOTH",
"542 460 OFFCURVE",
"447 536 OFFCURVE",
"280 536 CURVE SMOOTH",
"190 536 OFFCURVE",
"113 514 OFFCURVE",
"43 469 CURVE",
"98 351 LINE",
"154 388 OFFCURVE",
"202 408 OFFCURVE",
"261 408 CURVE SMOOTH",
"325 408 OFFCURVE",
"352 384 OFFCURVE",
"352 335 CURVE SMOOTH",
"352 319 LINE",
"325 332 OFFCURVE",
"287 339 OFFCURVE",
"246 339 CURVE SMOOTH",
"113 339 OFFCURVE",
"19 265 OFFCURVE",
"19 159 CURVE SMOOTH",
"19 62 OFFCURVE",
"98 -10 OFFCURVE",
"203 -10 CURVE SMOOTH",
"272 -10 OFFCURVE",
"325 16 OFFCURVE",
"359 65 CURVE",
"359 0 LINE"
);
},
{
closed = 1;
nodes = (
"309 134 OFFCURVE",
"283 126 OFFCURVE",
"260 126 CURVE SMOOTH",
"224 126 OFFCURVE",
"198 147 OFFCURVE",
"198 176 CURVE SMOOTH",
"198 210 OFFCURVE",
"233 236 OFFCURVE",
"279 236 CURVE SMOOTH",
"300 236 OFFCURVE",
"330 230 OFFCURVE",
"352 222 CURVE",
"352 183 LINE SMOOTH",
"352 170 OFFCURVE",
"342 156 OFFCURVE",
"327 146 CURVE SMOOTH"
);
}
);
width = 584;
}
);
leftKerningGroup = a;
rightKerningGroup = a;
unicode = 0101;
},
{
glyphname = ampersand;
layers = (
{
layerId = "AE853CD8-C74C-4F9A-A7CF-4083D549EAB1";
name = Bold;
paths = (
{
closed = 1;
nodes = (
"755 0 LINE",
"596 167 LINE",
"635 232 OFFCURVE",
"659 314 OFFCURVE",
"660 416 CURVE",
"507 416 LINE",
"507 366 OFFCURVE",
"498 322 OFFCURVE",
"484 285 CURVE",
"402 372 LINE",
"457 420 OFFCURVE",
"494 477 OFFCURVE",
"494 548 CURVE SMOOTH",
"494 670 OFFCURVE",
"388 719 OFFCURVE",
"285 719 CURVE SMOOTH",
"166 719 OFFCURVE",
"77 652 OFFCURVE",
"77 536 CURVE SMOOTH",
"77 487 OFFCURVE",
"93 451 OFFCURVE",
"135 399 CURVE",
"81 355 OFFCURVE",
"35 297 OFFCURVE",
"35 216 CURVE SMOOTH",
"35 106 OFFCURVE",
"120 -10 OFFCURVE",
"285 -10 CURVE SMOOTH",
"347 -10 OFFCURVE",
"411 6 OFFCURVE",
"468 40 CURVE",
"506 0 LINE"
);
},
{
closed = 1;
nodes = (
"240 138 OFFCURVE",
"217 188 OFFCURVE",
"217 216 CURVE SMOOTH",
"217 236 OFFCURVE",
"229 254 OFFCURVE",
"251 272 CURVE",
"364 151 LINE",
"344 142 OFFCURVE",
"324 138 OFFCURVE",
"305 138 CURVE SMOOTH"
);
},
{
closed = 1;
nodes = (
"249 565 OFFCURVE",
"262 581 OFFCURVE",
"285 581 CURVE SMOOTH",
"306 581 OFFCURVE",
"320 568 OFFCURVE",
"320 546 CURVE SMOOTH",
"320 525 OFFCURVE",
"309 513 OFFCURVE",
"282 495 CURVE",
"258 518 OFFCURVE",
"249 527 OFFCURVE",
"249 544 CURVE SMOOTH"
);
}
);
width = 753;
}
);
leftKerningGroup = ampersand;
rightKerningGroup = ampersand;
unicode = 0026;
},
{
color = 4;
glyphname = aogonek;
lastChange = "2014-10-28 14:19:40 +0100";
layers = (
{
components = (
{
name = ogonek;
transform = "{1, 0, 0, 1, 287, 0}";
}
);
layerId = "AE853CD8-C74C-4F9A-A7CF-4083D549EAB1";
name = Bold;
paths = (
{
closed = 1;
nodes = (
"542 0 LINE",
"542 312 LINE SMOOTH",
"542 460 OFFCURVE",
"447 536 OFFCURVE",
"280 536 CURVE SMOOTH",
"190 536 OFFCURVE",
"113 514 OFFCURVE",
"43 469 CURVE",
"98 351 LINE",
"154 388 OFFCURVE",
"202 408 OFFCURVE",
"261 408 CURVE SMOOTH",
"325 408 OFFCURVE",
"352 384 OFFCURVE",
"352 335 CURVE SMOOTH",
"352 319 LINE",
"325 332 OFFCURVE",
"287 339 OFFCURVE",
"246 339 CURVE SMOOTH",
"113 339 OFFCURVE",
"19 265 OFFCURVE",
"19 159 CURVE SMOOTH",
"19 62 OFFCURVE",
"98 -10 OFFCURVE",
"203 -10 CURVE SMOOTH",
"272 -10 OFFCURVE",
"325 16 OFFCURVE",
"359 65 CURVE",
"359 0 LINE"
);
},
{
closed = 1;
nodes = (
"309 134 OFFCURVE",
"283 126 OFFCURVE",
"260 126 CURVE SMOOTH",
"224 126 OFFCURVE",
"198 147 OFFCURVE",
"198 176 CURVE SMOOTH",
"198 210 OFFCURVE",
"233 236 OFFCURVE",
"279 236 CURVE SMOOTH",
"300 236 OFFCURVE",
"330 230 OFFCURVE",
"352 222 CURVE",
"352 183 LINE SMOOTH",
"352 170 OFFCURVE",
"342 156 OFFCURVE",
"327 146 CURVE SMOOTH"
);
}
);
width = 584;
}
);
leftKerningGroup = a;
rightKerningGroup = a;
unicode = 0105;
},
{
glyphname = apostrophe;
layers = (
{
layerId = "AE853CD8-C74C-4F9A-A7CF-4083D549EAB1";
name = Bold;
paths = (
{
closed = 1;
nodes = (
"317 730 LINE",
"118 730 LINE",
"129 675 LINE",
"98 588 LINE",
"218 556 LINE"
);
}
);
width = 384;
}
);
leftKerningGroup = apostrophe;
rightKerningGroup = apostrophe;
unicode = 02BC;
},
{
color = 4;
glyphname = aring;
lastChange = "2014-10-28 14:19:45 +0100";
layers = (
{
layerId = "AE853CD8-C74C-4F9A-A7CF-4083D549EAB1";
name = Bold;
paths = (
{
closed = 1;
nodes = (
"163 585 OFFCURVE",
"209 556 OFFCURVE",
"280 556 CURVE SMOOTH",
"351 556 OFFCURVE",
"397 585 OFFCURVE",
"397 643 CURVE SMOOTH",
"397 701 OFFCURVE",
"351 730 OFFCURVE",
"280 730 CURVE SMOOTH",
"209 730 OFFCURVE",
"163 701 OFFCURVE",
"163 643 CURVE SMOOTH"
);
},
{
closed = 1;
nodes = (
"303 676 OFFCURVE",
"320 663 OFFCURVE",
"320 644 CURVE SMOOTH",
"320 624 OFFCURVE",
"302 610 OFFCURVE",
"280 610 CURVE SMOOTH",
"257 610 OFFCURVE",
"240 624 OFFCURVE",
"240 644 CURVE SMOOTH",
"240 663 OFFCURVE",
"257 676 OFFCURVE",
"280 676 CURVE SMOOTH"
);
},
{
closed = 1;
nodes = (
"542 0 LINE",
"542 312 LINE SMOOTH",
"542 460 OFFCURVE",
"447 536 OFFCURVE",
"280 536 CURVE SMOOTH",
"190 536 OFFCURVE",
"113 514 OFFCURVE",
"43 469 CURVE",
"98 351 LINE",
"154 388 OFFCURVE",
"202 408 OFFCURVE",
"261 408 CURVE SMOOTH",
"325 408 OFFCURVE",
"352 384 OFFCURVE",
"352 335 CURVE SMOOTH",
"352 319 LINE",
"325 332 OFFCURVE",
"287 339 OFFCURVE",
"246 339 CURVE SMOOTH",
"113 339 OFFCURVE",
"19 265 OFFCURVE",
"19 159 CURVE SMOOTH",
"19 62 OFFCURVE",
"98 -10 OFFCURVE",
"203 -10 CURVE SMOOTH",
"272 -10 OFFCURVE",
"325 16 OFFCURVE",
"359 65 CURVE",
"359 0 LINE"
);
},
{
closed = 1;
nodes = (
"309 134 OFFCURVE",
"283 126 OFFCURVE",
"260 126 CURVE SMOOTH",
"224 126 OFFCURVE",
"198 147 OFFCURVE",
"198 176 CURVE SMOOTH",
"198 210 OFFCURVE",
"233 236 OFFCURVE",
"279 236 CURVE SMOOTH",
"300 236 OFFCURVE",
"330 230 OFFCURVE",
"352 222 CURVE",
"352 183 LINE SMOOTH",
"352 170 OFFCURVE",
"342 156 OFFCURVE",
"327 146 CURVE SMOOTH"
);
}
);
width = 584;
}
);
leftKerningGroup = a;
rightKerningGroup = a;
unicode = 00E5;
},
{
color = 4;
glyphname = aringacute;
lastChange = "2014-10-28 14:19:45 +0100";
layers = (
{
layerId = "AE853CD8-C74C-4F9A-A7CF-4083D549EAB1";
name = Bold;
paths = (
{
closed = 1;
nodes = (
"163 585 OFFCURVE",
"209 556 OFFCURVE",
"280 556 CURVE SMOOTH",
"351 556 OFFCURVE",
"397 585 OFFCURVE",
"397 643 CURVE SMOOTH",
"397 701 OFFCURVE",
"351 730 OFFCURVE",
"280 730 CURVE SMOOTH",
"209 730 OFFCURVE",
"163 701 OFFCURVE",
"163 643 CURVE SMOOTH"
);
},
{
closed = 1;
nodes = (
"303 676 OFFCURVE",
"320 663 OFFCURVE",
"320 644 CURVE SMOOTH",
"320 624 OFFCURVE",
"302 610 OFFCURVE",
"280 610 CURVE SMOOTH",
"257 610 OFFCURVE",
"240 624 OFFCURVE",
"240 644 CURVE SMOOTH",
"240 663 OFFCURVE",
"257 676 OFFCURVE",
"280 676 CURVE SMOOTH"
);
},
{
closed = 1;
nodes = (
"437 918 LINE",
"268 918 LINE",
"218 776 LINE",
"338 744 LINE"
);
},
{
closed = 1;
nodes = (
"542 0 LINE",
"542 312 LINE SMOOTH",
"542 460 OFFCURVE",
"447 536 OFFCURVE",
"280 536 CURVE SMOOTH",
"190 536 OFFCURVE",
"113 514 OFFCURVE",
"43 469 CURVE",
"98 351 LINE",
"154 388 OFFCURVE",
"202 408 OFFCURVE",
"261 408 CURVE SMOOTH",
"325 408 OFFCURVE",
"352 384 OFFCURVE",
"352 335 CURVE SMOOTH",
"352 319 LINE",
"325 332 OFFCURVE",
"287 339 OFFCURVE",
"246 339 CURVE SMOOTH",
"113 339 OFFCURVE",
"19 265 OFFCURVE",
"19 159 CURVE SMOOTH",
"19 62 OFFCURVE",
"98 -10 OFFCURVE",
"203 -10 CURVE SMOOTH",
"272 -10 OFFCURVE",
"325 16 OFFCURVE",
"359 65 CURVE",
"359 0 LINE"
);
},
{
closed = 1;
nodes = (
"309 134 OFFCURVE",
"283 126 OFFCURVE",
"260 126 CURVE SMOOTH",
"224 126 OFFCURVE",
"198 147 OFFCURVE",
"198 176 CURVE SMOOTH",
"198 210 OFFCURVE",
"233 236 OFFCURVE",
"279 236 CURVE SMOOTH",
"300 236 OFFCURVE",
"330 230 OFFCURVE",
"352 222 CURVE",
"352 183 LINE SMOOTH",
"352 170 OFFCURVE",
"342 156 OFFCURVE",
"327 146 CURVE SMOOTH"
);
}
);
width = 584;
}
);
leftKerningGroup = a;
rightKerningGroup = a;
unicode = 01FB;
},
{
glyphname = asciicircum;
layers = (
{
layerId = "AE853CD8-C74C-4F9A-A7CF-4083D549EAB1";
name = Bold;
paths = (
{
closed = 1;
nodes = (
"187 303 LINE",
"313 556 LINE",
"436 303 LINE",
"589 303 LINE",
"392 710 LINE",
"234 710 LINE",
"36 303 LINE"
);
}
);
width = 625;
}
);
rightKerningGroup = A.sc;
unicode = 005E;
},
{
glyphname = asciitilde;
layers = (
{
layerId = "AE853CD8-C74C-4F9A-A7CF-4083D549EAB1";
name = Bold;
paths = (
{
closed = 1;
nodes = (
"146 216 LINE",
"146 218 OFFCURVE",
"148 264 OFFCURVE",
"210 264 CURVE SMOOTH",
"274 264 OFFCURVE",
"322 216 OFFCURVE",
"399 216 CURVE SMOOTH",
"529 216 OFFCURVE",
"569 353 OFFCURVE",
"569 374 CURVE",
"469 374 LINE",
"469 370 OFFCURVE",
"460 323 OFFCURVE",
"400 323 CURVE SMOOTH",
"337 323 OFFCURVE",
"292 374 OFFCURVE",
"211 374 CURVE SMOOTH",
"84 374 OFFCURVE",
"45 249 OFFCURVE",
"45 216 CURVE"
);
}
);
width = 609;
}
);
rightKerningGroup = A.sc;
unicode = 007E;
},
{
glyphname = asterisk;
layers = (
{
layerId = "AE853CD8-C74C-4F9A-A7CF-4083D549EAB1";
name = Bold;
paths = (
{
closed = 1;
nodes = (
"134 454 LINE",
"182 537 LINE",
"230 454 LINE",
"299 499 LINE",
"250 577 LINE",
"322 598 LINE",
"298 675 LINE",
"223 639 LINE",
"230 721 LINE",
"134 721 LINE",
"141 639 LINE",
"66 675 LINE",
"42 598 LINE",
"114 577 LINE",
"65 499 LINE"
);
}
);
width = 364;
}
);
leftKerningGroup = asterisk;
rightKerningGroup = asterisk;
unicode = 002A;
},
{
glyphname = at;
layers = (
{
layerId = "AE853CD8-C74C-4F9A-A7CF-4083D549EAB1";
name = Bold;
paths = (
{
closed = 1;
nodes = (
"221 603 OFFCURVE",
"38 476 OFFCURVE",
"38 231 CURVE SMOOTH",
"38 0 OFFCURVE",
"201 -146 OFFCURVE",
"401 -146 CURVE SMOOTH",
"461 -146 OFFCURVE",
"525 -133 OFFCURVE",
"582 -106 CURVE",
"562 -38 LINE",
"512 -57 OFFCURVE",
"473 -76 OFFCURVE",
"404 -76 CURVE SMOOTH",
"218 -76 OFFCURVE",
"112 61 OFFCURVE",
"112 229 CURVE SMOOTH",
"112 405 OFFCURVE",
"227 533 OFFCURVE",
"420 533 CURVE SMOOTH",
"614 533 OFFCURVE",
"735 404 OFFCURVE",
"735 225 CURVE SMOOTH",
"735 182 OFFCURVE",
"728 64 OFFCURVE",
"665 64 CURVE SMOOTH",
"618 64 OFFCURVE",
"616 129 OFFCURVE",
"616 188 CURVE SMOOTH",
"616 255 LINE SMOOTH",
"616 342 OFFCURVE",
"612 468 OFFCURVE",
"419 468 CURVE SMOOTH",
"353 468 OFFCURVE",
"292 453 OFFCURVE",
"241 419 CURVE",
"273 322 LINE",
"300 347 OFFCURVE",
"344 363 OFFCURVE",
"400 363 CURVE SMOOTH",
"484 363 OFFCURVE",
"506 326 OFFCURVE",
"506 272 CURVE",
"488 281 OFFCURVE",
"455 295 OFFCURVE",
"401 295 CURVE SMOOTH",
"309 295 OFFCURVE",
"206 255 OFFCURVE",
"206 136 CURVE SMOOTH",
"206 53 OFFCURVE",
"257 -13 OFFCURVE",
"367 -13 CURVE SMOOTH",
"438 -13 OFFCURVE",
"497 15 OFFCURVE",
"542 57 CURVE",
"547 27 OFFCURVE",
"571 -16 OFFCURVE",
"646 -16 CURVE SMOOTH",
"800 -16 OFFCURVE",
"808 166 OFFCURVE",
"808 221 CURVE SMOOTH",
"808 487 OFFCURVE",
"622 603 OFFCURVE",
"426 603 CURVE SMOOTH"
);
},
{
closed = 1;
nodes = (
"436 95 OFFCURVE",
"404 86 OFFCURVE",
"378 86 CURVE SMOOTH",
"325 86 OFFCURVE",
"319 125 OFFCURVE",
"319 144 CURVE SMOOTH",
"319 188 OFFCURVE",
"352 208 OFFCURVE",
"406 208 CURVE SMOOTH",
"445 208 OFFCURVE",
"485 197 OFFCURVE",
"505 189 CURVE",
"505 166 LINE SMOOTH",
"505 140 OFFCURVE",
"492 122 OFFCURVE",
"461 107 CURVE SMOOTH"
);
}
);
width = 845;
}
);
leftKerningGroup = at;
rightKerningGroup = at;
unicode = 0040;
},
{
color = 4;
glyphname = atilde;
lastChange = "2014-10-28 14:19:48 +0100";
layers = (
{
layerId = "AE853CD8-C74C-4F9A-A7CF-4083D549EAB1";
name = Bold;
paths = (
{
closed = 1;
nodes = (
"447 572 OFFCURVE",
"487 707 OFFCURVE",
"487 730 CURVE",
"387 730 LINE",
"387 727 OFFCURVE",
"381 679 OFFCURVE",
"337 679 CURVE SMOOTH",
"291 679 OFFCURVE",
"267 730 OFFCURVE",
"202 730 CURVE SMOOTH",
"102 730 OFFCURVE",
"63 607 OFFCURVE",
"63 572 CURVE",
"164 572 LINE",
"164 574 OFFCURVE",
"165 620 OFFCURVE",
"210 620 CURVE SMOOTH",
"255 620 OFFCURVE",
"283 572 OFFCURVE",
"344 572 CURVE SMOOTH"
);
},
{
closed = 1;
nodes = (
"542 0 LINE",
"542 312 LINE SMOOTH",
"542 460 OFFCURVE",
"447 536 OFFCURVE",
"280 536 CURVE SMOOTH",
"190 536 OFFCURVE",
"113 514 OFFCURVE",
"43 469 CURVE",
"98 351 LINE",
"154 388 OFFCURVE",
"202 408 OFFCURVE",
"261 408 CURVE SMOOTH",
"325 408 OFFCURVE",
"352 384 OFFCURVE",
"352 335 CURVE SMOOTH",
"352 319 LINE",
"325 332 OFFCURVE",
"287 339 OFFCURVE",
"246 339 CURVE SMOOTH",
"113 339 OFFCURVE",
"19 265 OFFCURVE",
"19 159 CURVE SMOOTH",
"19 62 OFFCURVE",
"98 -10 OFFCURVE",
"203 -10 CURVE SMOOTH",
"272 -10 OFFCURVE",
"325 16 OFFCURVE",
"359 65 CURVE",
"359 0 LINE"
);
},
{
closed = 1;
nodes = (
"309 134 OFFCURVE",
"283 126 OFFCURVE",
"260 126 CURVE SMOOTH",
"224 126 OFFCURVE",
"198 147 OFFCURVE",
"198 176 CURVE SMOOTH",
"198 210 OFFCURVE",
"233 236 OFFCURVE",
"279 236 CURVE SMOOTH",
"300 236 OFFCURVE",
"330 230 OFFCURVE",
"352 222 CURVE",
"352 183 LINE SMOOTH",
"352 170 OFFCURVE",
"342 156 OFFCURVE",
"327 146 CURVE SMOOTH"
);
}
);
width = 584;
}
);
leftKerningGroup = a;
rightKerningGroup = a;
unicode = 00E3;
},
{
glyphname = b;
layers = (
{
layerId = "AE853CD8-C74C-4F9A-A7CF-4083D549EAB1";
name = Bold;
paths = (
{
closed = 1;
nodes = (
"523 -10 OFFCURVE",
"627 105 OFFCURVE",
"627 261 CURVE SMOOTH",
"627 419 OFFCURVE",
"531 536 OFFCURVE",
"402 536 CURVE SMOOTH",
"326 536 OFFCURVE",
"268 505 OFFCURVE",
"238 448 CURVE",
"238 730 LINE",
"48 730 LINE",
"48 0 LINE",
"213 0 LINE",
"213 82 LINE",
"246 22 OFFCURVE",
"304 -10 OFFCURVE",
"383 -10 CURVE SMOOTH"
);
},
{
closed = 1;
nodes = (
"292 150 OFFCURVE",
"263 168 OFFCURVE",
"238 204 CURVE",
"238 298 LINE",
"256 344 OFFCURVE",
"296 376 OFFCURVE",
"336 376 CURVE SMOOTH",
"391 376 OFFCURVE",
"432 324 OFFCURVE",
"432 260 CURVE SMOOTH",
"432 194 OFFCURVE",
"390 150 OFFCURVE",
"328 150 CURVE SMOOTH"
);
}
);
width = 647;
}
);
leftKerningGroup = b;
rightKerningGroup = b;
unicode = 0062;
},
{
glyphname = backslash;
layers = (
{
layerId = "AE853CD8-C74C-4F9A-A7CF-4083D549EAB1";
name = Bold;
paths = (
{
closed = 1;
nodes = (
"25 710 LINE",
"461 0 LINE",
"670 0 LINE",
"235 710 LINE"
);
}
);
width = 697;
}
);
leftKerningGroup = backslash;
rightKerningGroup = backslash;
unicode = 005C;
},
{
glyphname = bar;
layers = (
{
layerId = "AE853CD8-C74C-4F9A-A7CF-4083D549EAB1";
name = Bold;
paths = (
{
closed = 1;
nodes = (
"219 -130 LINE",
"219 775 LINE",
"59 775 LINE",
"59 -130 LINE"
);
}
);
width = 278;
}
);
rightKerningGroup = A.sc;
unicode = 007C;
},
{
glyphname = braceleft;
layers = (
{
layerId = "AE853CD8-C74C-4F9A-A7CF-4083D549EAB1";
name = Bold;
paths = (
{
closed = 1;
nodes = (
"312 590 LINE",
"312 740 LINE",
"110 740 LINE SMOOTH",
"102 740 OFFCURVE",
"87 734 OFFCURVE",
"87 710 CURVE SMOOTH",
"87 501 LINE SMOOTH",
"87 464 OFFCURVE",
"55 426 OFFCURVE",
"27 426 CURVE",
"27 296 LINE",
"55 290 OFFCURVE",
"87 261 OFFCURVE",
"87 219 CURVE SMOOTH",
"87 -1 LINE SMOOTH",
"87 -26 OFFCURVE",
"102 -31 OFFCURVE",
"110 -31 CURVE SMOOTH",
"312 -31 LINE",
"312 119 LINE",
"257 119 LINE",
"257 284 LINE SMOOTH",
"257 320 OFFCURVE",
"236 342 OFFCURVE",
"216 360 CURVE",
"237 379 OFFCURVE",
"257 399 OFFCURVE",
"257 436 CURVE SMOOTH",
"257 590 LINE"
);
}
);
width = 352;
}
);
rightKerningGroup = braceleft;
unicode = 007B;
},
{
glyphname = braceright;
layers = (
{
layerId = "AE853CD8-C74C-4F9A-A7CF-4083D549EAB1";
name = Bold;
paths = (
{
closed = 1;
nodes = (
"95 590 LINE",
"95 436 LINE SMOOTH",
"95 399 OFFCURVE",
"115 379 OFFCURVE",
"136 360 CURVE",
"116 342 OFFCURVE",
"95 320 OFFCURVE",
"95 284 CURVE SMOOTH",
"95 119 LINE",
"40 119 LINE",
"40 -31 LINE",
"242 -31 LINE SMOOTH",
"250 -31 OFFCURVE",
"265 -26 OFFCURVE",
"265 -1 CURVE SMOOTH",
"265 219 LINE SMOOTH",
"265 261 OFFCURVE",
"297 290 OFFCURVE",
"325 296 CURVE",
"325 426 LINE",
"297 426 OFFCURVE",
"265 464 OFFCURVE",
"265 501 CURVE SMOOTH",
"265 710 LINE SMOOTH",
"265 734 OFFCURVE",
"250 740 OFFCURVE",
"242 740 CURVE SMOOTH",
"40 740 LINE",
"40 590 LINE"
);
}
);
width = 352;
}
);
leftKerningGroup = braceright;
rightKerningGroup = A.sc;
unicode = 007D;
},
{
glyphname = bracketleft;
layers = (
{
layerId = "AE853CD8-C74C-4F9A-A7CF-4083D549EAB1";
name = Bold;
paths = (
{
closed = 1;
nodes = (
"306 -40 LINE",
"306 110 LINE",
"236 110 LINE",
"236 590 LINE",
"306 590 LINE",
"306 740 LINE",
"61 740 LINE",
"61 -40 LINE"
);
}
);
width = 345;
}
);
rightKerningGroup = bracketleft;
unicode = 005B;
},
{
glyphname = bracketright;
layers = (
{
layerId = "AE853CD8-C74C-4F9A-A7CF-4083D549EAB1";
name = Bold;
paths = (
{
closed = 1;
nodes = (
"284 -40 LINE",
"284 740 LINE",
"39 740 LINE",
"39 590 LINE",
"109 590 LINE",
"109 110 LINE",
"39 110 LINE",
"39 -40 LINE"
);
}
);
width = 345;
}
);
leftKerningGroup = bracketright;
rightKerningGroup = A.sc;
unicode = 005D;
},
{
glyphname = brokenbar;
layers = (
{
layerId = "AE853CD8-C74C-4F9A-A7CF-4083D549EAB1";
name = Bold;
paths = (
{
closed = 1;
nodes = (
"61 254 LINE",
"61 -130 LINE",
"221 -130 LINE",
"221 254 LINE"
);
},
{
closed = 1;
nodes = (
"61 775 LINE",
"61 391 LINE",
"221 391 LINE",
"221 775 LINE"
);
}
);
width = 282;
}
);
rightKerningGroup = A.sc;
unicode = 00A6;
},
{
glyphname = bullet;
layers = (
{
layerId = "AE853CD8-C74C-4F9A-A7CF-4083D549EAB1";
name = Bold;
paths = (
{
closed = 1;
nodes = (
"302 417 OFFCURVE",
"250 470 OFFCURVE",
"185 470 CURVE SMOOTH",
"121 470 OFFCURVE",
"68 417 OFFCURVE",
"68 353 CURVE SMOOTH",
"68 288 OFFCURVE",
"121 236 OFFCURVE",
"185 236 CURVE SMOOTH",
"250 236 OFFCURVE",
"302 288 OFFCURVE",
"302 353 CURVE SMOOTH"
);
}
);
width = 370;
}
);
rightKerningGroup = A.sc;
unicode = 2022;
},
{
glyphname = c;
layers = (
{
layerId = "AE853CD8-C74C-4F9A-A7CF-4083D549EAB1";
name = Bold;
paths = (
{
closed = 1;
nodes = (
"19 119 OFFCURVE",
"122 -10 OFFCURVE",
"308 -10 CURVE SMOOTH",
"435 -10 OFFCURVE",
"522 49 OFFCURVE",
"565 133 CURVE",
"380 189 LINE",
"363 164 OFFCURVE",
"338 150 OFFCURVE",
"307 150 CURVE SMOOTH",
"255 150 OFFCURVE",
"214 192 OFFCURVE",
"214 263 CURVE SMOOTH",
"214 334 OFFCURVE",
"255 376 OFFCURVE",
"307 376 CURVE SMOOTH",
"338 376 OFFCURVE",
"363 362 OFFCURVE",
"380 337 CURVE",
"565 393 LINE",
"522 477 OFFCURVE",
"435 536 OFFCURVE",
"308 536 CURVE SMOOTH",
"122 536 OFFCURVE",
"19 407 OFFCURVE",
"19 263 CURVE SMOOTH"
);
}
);
width = 576;
}
);
leftKerningGroup = c;
rightKerningGroup = c;
unicode = 0063;
},
{
glyphname = cacute;
layers = (
{
layerId = "AE853CD8-C74C-4F9A-A7CF-4083D549EAB1";
name = Bold;
paths = (
{
closed = 1;
nodes = (
"19 119 OFFCURVE",
"122 -10 OFFCURVE",
"308 -10 CURVE SMOOTH",
"435 -10 OFFCURVE",
"522 49 OFFCURVE",
"565 133 CURVE",
"380 189 LINE",
"363 164 OFFCURVE",
"338 150 OFFCURVE",
"307 150 CURVE SMOOTH",
"255 150 OFFCURVE",
"214 192 OFFCURVE",
"214 263 CURVE SMOOTH",
"214 334 OFFCURVE",
"255 376 OFFCURVE",
"307 376 CURVE SMOOTH",
"338 376 OFFCURVE",
"363 362 OFFCURVE",
"380 337 CURVE",
"565 393 LINE",
"522 477 OFFCURVE",
"435 536 OFFCURVE",
"308 536 CURVE SMOOTH",
"122 536 OFFCURVE",
"19 407 OFFCURVE",
"19 263 CURVE SMOOTH"
);
},
{
closed = 1;
nodes = (
"465 730 LINE",
"296 730 LINE",
"246 588 LINE",
"366 556 LINE"
);
}
);
width = 576;
}
);
leftKerningGroup = c;
rightKerningGroup = c;
unicode = 0107;
},
{
glyphname = caron.alt;
layers = (
{
layerId = "AE853CD8-C74C-4F9A-A7CF-4083D549EAB1";
name = Bold;
paths = (
{
closed = 1;
nodes = (
"264 730 LINE",
"95 730 LINE",
"45 588 LINE",
"165 556 LINE"
);
}
);
width = 284;
}
);
rightKerningGroup = A.sc;
},
{
glyphname = ccaron;
layers = (
{
layerId = "AE853CD8-C74C-4F9A-A7CF-4083D549EAB1";
name = Bold;
paths = (
{
closed = 1;
nodes = (
"19 119 OFFCURVE",
"122 -10 OFFCURVE",
"308 -10 CURVE SMOOTH",
"435 -10 OFFCURVE",
"522 49 OFFCURVE",
"565 133 CURVE",
"380 189 LINE",
"363 164 OFFCURVE",
"338 150 OFFCURVE",
"307 150 CURVE SMOOTH",
"255 150 OFFCURVE",
"214 192 OFFCURVE",
"214 263 CURVE SMOOTH",
"214 334 OFFCURVE",
"255 376 OFFCURVE",
"307 376 CURVE SMOOTH",
"338 376 OFFCURVE",
"363 362 OFFCURVE",
"380 337 CURVE",
"565 393 LINE",
"522 477 OFFCURVE",
"435 536 OFFCURVE",
"308 536 CURVE SMOOTH",
"122 536 OFFCURVE",
"19 407 OFFCURVE",
"19 263 CURVE SMOOTH"
);
},
{
closed = 1;
nodes = (
"127 688 LINE",
"240 573 LINE",
"376 573 LINE",
"489 688 LINE",
"393 730 LINE",
"308 667 LINE",
"223 730 LINE"
);
}
);
width = 576;
}
);
leftKerningGroup = c;
rightKerningGroup = c;
unicode = 010D;
},
{
glyphname = ccedilla;
layers = (
{
layerId = "AE853CD8-C74C-4F9A-A7CF-4083D549EAB1";
name = Bold;
paths = (
{
closed = 1;
nodes = (
"192 -192 LINE",
"219 -203 OFFCURVE",
"257 -213 OFFCURVE",
"305 -213 CURVE SMOOTH",
"410 -213 OFFCURVE",
"457 -166 OFFCURVE",
"457 -110 CURVE SMOOTH",
"457 -54 OFFCURVE",
"411 -32 OFFCURVE",
"363 -32 CURVE SMOOTH",
"353 -32 OFFCURVE",
"344 -33 OFFCURVE",
"336 -34 CURVE",
"354 -7 LINE",
"457 5 OFFCURVE",
"528 59 OFFCURVE",
"566 133 CURVE",
"381 189 LINE",
"364 164 OFFCURVE",
"339 150 OFFCURVE",
"308 150 CURVE SMOOTH",
"256 150 OFFCURVE",
"215 192 OFFCURVE",
"215 263 CURVE SMOOTH",
"215 334 OFFCURVE",
"256 376 OFFCURVE",
"308 376 CURVE SMOOTH",
"339 376 OFFCURVE",
"364 362 OFFCURVE",
"381 337 CURVE",
"566 393 LINE",
"523 477 OFFCURVE",
"436 536 OFFCURVE",
"309 536 CURVE SMOOTH",
"123 536 OFFCURVE",
"20 407 OFFCURVE",
"20 263 CURVE SMOOTH",
"20 126 OFFCURVE",
"112 3 OFFCURVE",
"281 -9 CURVE",
"239 -96 LINE",
"254 -93 OFFCURVE",
"290 -87 OFFCURVE",
"318 -87 CURVE SMOOTH",
"351 -87 OFFCURVE",
"373 -95 OFFCURVE",
"373 -117 CURVE SMOOTH",
"373 -140 OFFCURVE",
"348 -148 OFFCURVE",
"317 -148 CURVE SMOOTH",
"281 -148 OFFCURVE",
"241 -137 OFFCURVE",
"227 -128 CURVE"
);
}
);
width = 578;
}
);
leftKerningGroup = c;
rightKerningGroup = c;
unicode = 00E7;
},
{
glyphname = ccircumflex;
layers = (
{
layerId = "AE853CD8-C74C-4F9A-A7CF-4083D549EAB1";
name = Bold;
paths = (
{
closed = 1;
nodes = (
"19 119 OFFCURVE",
"122 -10 OFFCURVE",
"308 -10 CURVE SMOOTH",
"435 -10 OFFCURVE",
"522 49 OFFCURVE",
"565 133 CURVE",
"380 189 LINE",
"363 164 OFFCURVE",
"338 150 OFFCURVE",
"307 150 CURVE SMOOTH",
"255 150 OFFCURVE",
"214 192 OFFCURVE",
"214 263 CURVE SMOOTH",
"214 334 OFFCURVE",
"255 376 OFFCURVE",
"307 376 CURVE SMOOTH",
"338 376 OFFCURVE",
"363 362 OFFCURVE",
"380 337 CURVE",
"565 393 LINE",
"522 477 OFFCURVE",
"435 536 OFFCURVE",
"308 536 CURVE SMOOTH",
"122 536 OFFCURVE",
"19 407 OFFCURVE",
"19 263 CURVE SMOOTH"
);
},
{
closed = 1;
nodes = (
"223 573 LINE",
"308 636 LINE",
"393 573 LINE",
"489 615 LINE",
"376 730 LINE",
"240 730 LINE",
"127 615 LINE"
);
}
);
width = 576;
}
);
leftKerningGroup = c;
rightKerningGroup = c;
unicode = 0109;
},
{
glyphname = cdotaccent;
layers = (
{
layerId = "AE853CD8-C74C-4F9A-A7CF-4083D549EAB1";
name = Bold;
paths = (
{
closed = 1;
nodes = (
"19 119 OFFCURVE",
"122 -10 OFFCURVE",
"308 -10 CURVE SMOOTH",
"435 -10 OFFCURVE",
"522 49 OFFCURVE",
"565 133 CURVE",
"380 189 LINE",
"363 164 OFFCURVE",
"338 150 OFFCURVE",
"307 150 CURVE SMOOTH",
"255 150 OFFCURVE",
"214 192 OFFCURVE",
"214 263 CURVE SMOOTH",
"214 334 OFFCURVE",
"255 376 OFFCURVE",
"307 376 CURVE SMOOTH",
"338 376 OFFCURVE",
"363 362 OFFCURVE",
"380 337 CURVE",
"565 393 LINE",
"522 477 OFFCURVE",
"435 536 OFFCURVE",
"308 536 CURVE SMOOTH",
"122 536 OFFCURVE",
"19 407 OFFCURVE",
"19 263 CURVE SMOOTH"
);
},
{
closed = 1;
nodes = (
"393 580 LINE",
"393 730 LINE",
"223 730 LINE",
"223 580 LINE"
);
}
);
width = 576;
}
);
leftKerningGroup = c;
rightKerningGroup = c;
unicode = 010B;
},
{
glyphname = cent;
layers = (
{
layerId = "AE853CD8-C74C-4F9A-A7CF-4083D549EAB1";
name = Bold;
paths = (
{
closed = 1;
nodes = (
"357 -120 LINE",
"357 -10 LINE",
"422 -10 OFFCURVE",
"539 37 OFFCURVE",
"584 133 CURVE",
"399 189 LINE",
"391 176 OFFCURVE",
"378 164 OFFCURVE",
"357 155 CURVE",
"357 370 LINE",
"371 367 OFFCURVE",
"390 353 OFFCURVE",
"399 337 CURVE",
"584 393 LINE",
"535 486 OFFCURVE",
"445 531 OFFCURVE",
"357 534 CURVE",
"357 645 LINE",
"277 645 LINE",
"277 534 LINE",
"117 505 OFFCURVE",
"37 393 OFFCURVE",
"37 258 CURVE SMOOTH",
"37 131 OFFCURVE",
"137 2 OFFCURVE",
"277 -9 CURVE",
"277 -120 LINE"
);
},
{
closed = 1;
nodes = (
"233 307 OFFCURVE",
"250 346 OFFCURVE",
"277 361 CURVE",
"277 164 LINE",
"247 186 OFFCURVE",
"233 221 OFFCURVE",
"233 258 CURVE SMOOTH"
);
}
);
width = 619;
}
);
rightKerningGroup = A.sc;
unicode = 00A2;
},
{
glyphname = colon;
layers = (
{
layerId = "AE853CD8-C74C-4F9A-A7CF-4083D549EAB1";
name = Bold;
paths = (
{
closed = 1;
nodes = (
"218 335 LINE",
"218 519 LINE",
"64 519 LINE",
"64 335 LINE"
);
},
{
closed = 1;
nodes = (
"218 0 LINE",
"218 184 LINE",
"64 184 LINE",
"64 0 LINE"
);
}
);
width = 282;
}
);
leftKerningGroup = colon;
rightKerningGroup = colon;
unicode = 003A;
},
{
glyphname = comma;
layers = (
{
layerId = "AE853CD8-C74C-4F9A-A7CF-4083D549EAB1";
name = Bold;
paths = (
{
closed = 1;
nodes = (
"13 -153 LINE",
"94 -153 OFFCURVE",
"210 -126 OFFCURVE",
"210 -18 CURVE SMOOTH",
"210 184 LINE",
"56 184 LINE",
"56 20 LINE",
"54 -16 OFFCURVE",
"21 -20 OFFCURVE",
"13 -20 CURVE"
);
}
);
width = 263;
}
);
leftKerningGroup = comma;
rightKerningGroup = comma;
unicode = 002C;
},
{
glyphname = copyright;
layers = (
{
layerId = "AE853CD8-C74C-4F9A-A7CF-4083D549EAB1";
name = Bold;
paths = (
{
closed = 1;
nodes = (
"644 -7 OFFCURVE",
"810 148 OFFCURVE",
"810 355 CURVE SMOOTH",
"810 561 OFFCURVE",
"644 715 OFFCURVE",
"419 715 CURVE SMOOTH",
"200 715 OFFCURVE",
"38 561 OFFCURVE",
"38 355 CURVE SMOOTH",
"38 148 OFFCURVE",
"200 -7 OFFCURVE",
"419 -7 CURVE SMOOTH"
);
},
{
closed = 1;
nodes = (
"241 57 OFFCURVE",
"108 189 OFFCURVE",
"108 355 CURVE SMOOTH",
"108 519 OFFCURVE",
"242 651 OFFCURVE",
"419 651 CURVE SMOOTH",
"603 651 OFFCURVE",
"740 519 OFFCURVE",
"740 355 CURVE SMOOTH",
"740 179 OFFCURVE",
"599 57 OFFCURVE",
"419 57 CURVE SMOOTH"
);
},
{
closed = 1;
nodes = (
"551 111 OFFCURVE",
"635 170 OFFCURVE",
"676 254 CURVE",
"491 310 LINE",
"476 285 OFFCURVE",
"455 271 OFFCURVE",
"428 271 CURVE SMOOTH",
"388 271 OFFCURVE",
"355 301 OFFCURVE",
"355 354 CURVE SMOOTH",
"355 407 OFFCURVE",
"388 437 OFFCURVE",
"428 437 CURVE SMOOTH",
"455 437 OFFCURVE",
"476 423 OFFCURVE",
"491 398 CURVE",
"676 454 LINE",
"635 538 OFFCURVE",
"551 597 OFFCURVE",
"429 597 CURVE SMOOTH",
"255 597 OFFCURVE",
"160 483 OFFCURVE",
"160 354 CURVE SMOOTH",
"160 225 OFFCURVE",
"255 111 OFFCURVE",
"429 111 CURVE SMOOTH"
);
}
);
width = 847;
}
);
leftKerningGroup = copyright;
rightKerningGroup = A.sc;
unicode = 00A9;
},
{
color = 4;
glyphname = d;
lastChange = "2014-10-28 14:20:59 +0100";
layers = (
{
layerId = "AE853CD8-C74C-4F9A-A7CF-4083D549EAB1";
name = Bold;
paths = (
{
closed = 1;
nodes = (
"599 0 LINE",
"599 730 LINE",
"409 730 LINE",
"409 448 LINE",
"379 503 OFFCURVE",
"319 536 OFFCURVE",
"249 536 CURVE SMOOTH",
"116 536 OFFCURVE",
"20 419 OFFCURVE",
"20 264 CURVE SMOOTH",
"20 103 OFFCURVE",
"123 -10 OFFCURVE",
"268 -10 CURVE SMOOTH",
"337 -10 OFFCURVE",
"380 16 OFFCURVE",
"410 69 CURVE",
"410 0 LINE"
);
},
{
closed = 1;
nodes = (
"410 204 LINE",
"385 168 OFFCURVE",
"357 150 OFFCURVE",
"319 150 CURVE SMOOTH",
"259 150 OFFCURVE",
"216 194 OFFCURVE",
"216 260 CURVE SMOOTH",
"216 323 OFFCURVE",
"257 376 OFFCURVE",
"311 376 CURVE SMOOTH",
"351 376 OFFCURVE",
"391 346 OFFCURVE",
"410 298 CURVE"
);
}
);
width = 647;
}
);
leftKerningGroup = a.alt;
rightKerningGroup = d;
unicode = 0064;
},
{
glyphname = dagger;
layers = (
{
layerId = "AE853CD8-C74C-4F9A-A7CF-4083D549EAB1";
name = Bold;
paths = (
{
closed = 1;
nodes = (
"345 -130 LINE",
"345 186 LINE",
"476 186 LINE",
"476 356 LINE",
"345 356 LINE",
"345 775 LINE",
"165 775 LINE",
"165 356 LINE",
"33 356 LINE",
"33 186 LINE",
"165 186 LINE",
"165 -130 LINE"
);
}
);
width = 509;
}
);
rightKerningGroup = A.sc;
unicode = 2020;
},
{
glyphname = daggerdbl;
layers = (
{
layerId = "AE853CD8-C74C-4F9A-A7CF-4083D549EAB1";
name = Bold;
paths = (
{
closed = 1;
nodes = (
"351 -130 LINE",
"351 53 LINE",
"482 53 LINE",
"482 223 LINE",
"351 223 LINE",
"351 336 LINE",
"482 336 LINE",
"482 506 LINE",
"351 506 LINE",
"351 775 LINE",
"171 775 LINE",
"171 506 LINE",
"39 506 LINE",
"39 336 LINE",
"171 336 LINE",
"171 223 LINE",
"39 223 LINE",
"39 53 LINE",
"171 53 LINE",
"171 -130 LINE"
);
}
);
width = 521;
}
);
rightKerningGroup = A.sc;
unicode = 2021;
},
{
color = 4;
glyphname = dcaron;
lastChange = "2014-10-28 14:21:41 +0100";
layers = (
{
layerId = "AE853CD8-C74C-4F9A-A7CF-4083D549EAB1";
name = Bold;
paths = (
{
closed = 1;
nodes = (
"838 730 LINE",
"669 730 LINE",
"619 588 LINE",
"739 556 LINE"
);
},
{
closed = 1;
nodes = (
"599 0 LINE",
"599 730 LINE",
"409 730 LINE",
"409 448 LINE",
"379 503 OFFCURVE",
"319 536 OFFCURVE",
"249 536 CURVE SMOOTH",
"116 536 OFFCURVE",
"20 419 OFFCURVE",
"20 264 CURVE SMOOTH",
"20 103 OFFCURVE",
"123 -10 OFFCURVE",
"268 -10 CURVE SMOOTH",
"337 -10 OFFCURVE",
"380 16 OFFCURVE",
"410 69 CURVE",
"410 0 LINE"
);
},
{
closed = 1;
nodes = (
"410 204 LINE",
"385 168 OFFCURVE",
"357 150 OFFCURVE",
"319 150 CURVE SMOOTH",
"259 150 OFFCURVE",
"216 194 OFFCURVE",
"216 260 CURVE SMOOTH",
"216 323 OFFCURVE",
"257 376 OFFCURVE",
"311 376 CURVE SMOOTH",
"351 376 OFFCURVE",
"391 346 OFFCURVE",
"410 298 CURVE"
);
}
);
width = 672;
}
);
leftKerningGroup = a.alt;
rightKerningGroup = d;
unicode = 010F;
},
{
color = 4;
glyphname = dcroat;
lastChange = "2014-10-28 14:21:41 +0100";
layers = (
{
layerId = "AE853CD8-C74C-4F9A-A7CF-4083D549EAB1";
name = Bold;
paths = (
{
closed = 1;
nodes = (
"323 579 LINE",
"657 579 LINE",
"657 686 LINE",
"323 686 LINE"
);
},
{
closed = 1;
nodes = (
"599 0 LINE",
"599 730 LINE",
"409 730 LINE",
"409 448 LINE",
"379 503 OFFCURVE",
"319 536 OFFCURVE",
"249 536 CURVE SMOOTH",
"116 536 OFFCURVE",
"20 419 OFFCURVE",
"20 264 CURVE SMOOTH",
"20 103 OFFCURVE",
"123 -10 OFFCURVE",
"268 -10 CURVE SMOOTH",
"337 -10 OFFCURVE",
"380 16 OFFCURVE",
"410 69 CURVE",
"410 0 LINE"
);
},
{
closed = 1;
nodes = (
"410 204 LINE",
"385 168 OFFCURVE",
"357 150 OFFCURVE",
"319 150 CURVE SMOOTH",
"259 150 OFFCURVE",
"216 194 OFFCURVE",
"216 260 CURVE SMOOTH",
"216 323 OFFCURVE",
"257 376 OFFCURVE",
"311 376 CURVE SMOOTH",
"351 376 OFFCURVE",
"391 346 OFFCURVE",
"410 298 CURVE"
);
}
);
width = 672;
}
);
leftKerningGroup = a.alt;
rightKerningGroup = d;
unicode = 0111;
},
{
glyphname = degree;
layers = (
{
layerId = "AE853CD8-C74C-4F9A-A7CF-4083D549EAB1";
name = Bold;
paths = (
{
closed = 1;
nodes = (
"33 537 OFFCURVE",
"82 486 OFFCURVE",
"152 486 CURVE SMOOTH",
"222 486 OFFCURVE",
"271 534 OFFCURVE",
"271 610 CURVE SMOOTH",
"271 675 OFFCURVE",
"222 724 OFFCURVE",
"152 724 CURVE SMOOTH",
"82 724 OFFCURVE",
"33 675 OFFCURVE",
"33 610 CURVE SMOOTH"
);
},
{
closed = 1;
nodes = (
"169 636 OFFCURVE",
"183 624 OFFCURVE",
"183 605 CURVE SMOOTH",
"183 588 OFFCURVE",
"169 573 OFFCURVE",
"152 573 CURVE SMOOTH",
"135 573 OFFCURVE",
"120 587 OFFCURVE",
"120 605 CURVE SMOOTH",
"120 624 OFFCURVE",
"136 636 OFFCURVE",
"152 636 CURVE SMOOTH"
);
}
);
width = 304;
}
);
rightKerningGroup = A.sc;
unicode = 00B0;
},
{
glyphname = divide;
layers = (
{
layerId = "AE853CD8-C74C-4F9A-A7CF-4083D549EAB1";
name = Bold;
paths = (
{
closed = 1;
nodes = (
"323 435 LINE",
"323 595 LINE",
"164 595 LINE",
"164 435 LINE"
);
},
{
closed = 1;
nodes = (
"323 27 LINE",
"323 187 LINE",
"164 187 LINE",
"164 27 LINE"
);
},
{
closed = 1;
nodes = (
"445 235 LINE",
"445 385 LINE",
"41 385 LINE",
"41 235 LINE"
);
}
);
width = 486;
}
);
rightKerningGroup = A.sc;
unicode = 00F7;
},
{
glyphname = dollar;
layers = (
{
layerId = "AE853CD8-C74C-4F9A-A7CF-4083D549EAB1";
name = Bold;
paths = (
{
closed = 1;
nodes = (
"594 639 LINE",
"539 666 OFFCURVE",
"458 703 OFFCURVE",
"371 713 CURVE",
"371 815 LINE",
"291 815 LINE",
"291 714 LINE",
"166 700 OFFCURVE",
"63 619 OFFCURVE",
"63 476 CURVE SMOOTH",
"63 372 OFFCURVE",
"118 319 OFFCURVE",
"243 277 CURVE SMOOTH",
"265 269 OFFCURVE",
"285 263 OFFCURVE",
"305 258 CURVE",
"305 170 LINE",
"209 184 OFFCURVE",
"116 245 OFFCURVE",
"116 245 CURVE",
"32 74 LINE",
"103 32 OFFCURVE",
"200 2 OFFCURVE",
"291 -6 CURVE",
"291 -129 LINE",
"371 -129 LINE",
"371 -8 LINE",
"493 0 OFFCURVE",
"611 59 OFFCURVE",
"611 217 CURVE SMOOTH",
"611 350 OFFCURVE",
"528 396 OFFCURVE",
"397 437 CURVE",
"382 441 OFFCURVE",
"369 446 OFFCURVE",
"357 449 CURVE",
"357 539 LINE",
"432 526 OFFCURVE",
"510 478 OFFCURVE",
"510 478 CURVE"
);
},
{
closed = 1;
nodes = (
"401 181 OFFCURVE",
"389 170 OFFCURVE",
"357 167 CURVE",
"357 241 LINE",
"384 230 OFFCURVE",
"401 217 OFFCURVE",
"401 198 CURVE SMOOTH"
);
},
{
closed = 1;
nodes = (
"265 528 OFFCURVE",
"280 539 OFFCURVE",
"305 542 CURVE",
"305 466 LINE",
"279 477 OFFCURVE",
"265 488 OFFCURVE",
"265 508 CURVE SMOOTH"
);
}
);
width = 649;
}
);
rightKerningGroup = A.sc;
unicode = 0024;
},
{
glyphname = dotlessi;
layers = (
{
layerId = "AE853CD8-C74C-4F9A-A7CF-4083D549EAB1";
name = Bold;
paths = (
{
closed = 1;
nodes = (
"238 0 LINE",
"238 526 LINE",
"48 526 LINE",
"48 0 LINE"
);
}
);
width = 286;
}
);
leftKerningGroup = dotlessi;
rightKerningGroup = dotlessi;
unicode = 0131;
},
{
glyphname = dotlessj;
layers = (
{
layerId = "AE853CD8-C74C-4F9A-A7CF-4083D549EAB1";
name = Bold;
paths = (
{
closed = 1;
nodes = (
"153 -209 OFFCURVE",
"238 -119 OFFCURVE",
"238 12 CURVE SMOOTH",
"238 526 LINE",
"48 526 LINE",
"48 -3 LINE SMOOTH",
"48 -30 OFFCURVE",
"33 -46 OFFCURVE",
"8 -46 CURVE SMOOTH",
"-10 -46 OFFCURVE",
"-28 -38 OFFCURVE",
"-39 -26 CURVE",
"-117 -155 LINE",
"-76 -190 OFFCURVE",
"-23 -209 OFFCURVE",
"32 -209 CURVE SMOOTH"
);
}
);
width = 286;
}
);
leftKerningGroup = dotlessi;
rightKerningGroup = dotlessi;
unicode = 0237;
},
{
glyphname = e;
layers = (
{
layerId = "AE853CD8-C74C-4F9A-A7CF-4083D549EAB1";
name = Bold;
paths = (
{
closed = 1;
nodes = (
"435 -10 OFFCURVE",
"526 49 OFFCURVE",
"569 133 CURVE",
"408 179 LINE",
"396 146 OFFCURVE",
"354 126 OFFCURVE",
"313 126 CURVE SMOOTH",
"269 126 OFFCURVE",
"225 149 OFFCURVE",
"221 205 CURVE",
"590 205 LINE",
"593 221 OFFCURVE",
"595 243 OFFCURVE",
"595 263 CURVE SMOOTH",
"595 408 OFFCURVE",
"495 536 OFFCURVE",
"307 536 CURVE SMOOTH",
"119 536 OFFCURVE",
"19 408 OFFCURVE",
"19 256 CURVE SMOOTH",
"19 115 OFFCURVE",
"122 -10 OFFCURVE",
"307 -10 CURVE SMOOTH"
);
},
{
closed = 1;
nodes = (
"217 319 LINE",
"223 370 OFFCURVE",
"256 401 OFFCURVE",
"304 401 CURVE SMOOTH",
"352 401 OFFCURVE",
"385 370 OFFCURVE",
"391 319 CURVE"
);
}
);
width = 610;
}
);
leftKerningGroup = c;
rightKerningGroup = ae;
unicode = 0065;
},
{
glyphname = eacute;
layers = (
{
layerId = "AE853CD8-C74C-4F9A-A7CF-4083D549EAB1";
name = Bold;
paths = (
{
closed = 1;
nodes = (
"435 -10 OFFCURVE",
"526 49 OFFCURVE",
"569 133 CURVE",
"408 179 LINE",
"396 146 OFFCURVE",
"354 126 OFFCURVE",
"313 126 CURVE SMOOTH",
"269 126 OFFCURVE",
"225 149 OFFCURVE",
"221 205 CURVE",
"590 205 LINE",
"593 221 OFFCURVE",
"595 243 OFFCURVE",
"595 263 CURVE SMOOTH",
"595 408 OFFCURVE",
"495 536 OFFCURVE",
"307 536 CURVE SMOOTH",
"119 536 OFFCURVE",
"19 408 OFFCURVE",
"19 256 CURVE SMOOTH",
"19 115 OFFCURVE",
"122 -10 OFFCURVE",
"307 -10 CURVE SMOOTH"
);
},
{
closed = 1;
nodes = (
"217 319 LINE",
"223 370 OFFCURVE",
"256 401 OFFCURVE",
"304 401 CURVE SMOOTH",
"352 401 OFFCURVE",
"385 370 OFFCURVE",
"391 319 CURVE"
);
},
{
closed = 1;
nodes = (
"464 730 LINE",
"295 730 LINE",
"245 588 LINE",
"365 556 LINE"
);
}
);
width = 610;
}
);
leftKerningGroup = c;
rightKerningGroup = ae;
unicode = 00E9;
},
{
glyphname = ebreve;
layers = (
{
layerId = "AE853CD8-C74C-4F9A-A7CF-4083D549EAB1";
name = Bold;
paths = (
{
closed = 1;
nodes = (
"435 -10 OFFCURVE",
"526 49 OFFCURVE",
"569 133 CURVE",
"408 179 LINE",
"396 146 OFFCURVE",
"354 126 OFFCURVE",
"313 126 CURVE SMOOTH",
"269 126 OFFCURVE",
"225 149 OFFCURVE",
"221 205 CURVE",
"590 205 LINE",
"593 221 OFFCURVE",
"595 243 OFFCURVE",
"595 263 CURVE SMOOTH",
"595 408 OFFCURVE",
"495 536 OFFCURVE",
"307 536 CURVE SMOOTH",
"119 536 OFFCURVE",
"19 408 OFFCURVE",
"19 256 CURVE SMOOTH",
"19 115 OFFCURVE",
"122 -10 OFFCURVE",
"307 -10 CURVE SMOOTH"
);
},
{
closed = 1;
nodes = (
"217 319 LINE",
"223 370 OFFCURVE",
"256 401 OFFCURVE",
"304 401 CURVE SMOOTH",
"352 401 OFFCURVE",
"385 370 OFFCURVE",
"391 319 CURVE"
);
},
{
closed = 1;
nodes = (
"274 649 OFFCURVE",
"246 686 OFFCURVE",
"246 730 CURVE",
"148 730 LINE",
"148 635 OFFCURVE",
"213 568 OFFCURVE",
"307 568 CURVE SMOOTH",
"401 568 OFFCURVE",
"466 635 OFFCURVE",
"466 730 CURVE",
"368 730 LINE",
"364 683 OFFCURVE",
"338 649 OFFCURVE",
"307 649 CURVE SMOOTH"
);
}
);
width = 610;
}
);
leftKerningGroup = c;
rightKerningGroup = ae;
unicode = 0115;
},
{
glyphname = ecaron;
layers = (
{
layerId = "AE853CD8-C74C-4F9A-A7CF-4083D549EAB1";
name = Bold;
paths = (
{
closed = 1;
nodes = (
"435 -10 OFFCURVE",
"526 49 OFFCURVE",
"569 133 CURVE",
"408 179 LINE",
"396 146 OFFCURVE",
"354 126 OFFCURVE",
"313 126 CURVE SMOOTH",
"269 126 OFFCURVE",
"225 149 OFFCURVE",
"221 205 CURVE",
"590 205 LINE",
"593 221 OFFCURVE",
"595 243 OFFCURVE",
"595 263 CURVE SMOOTH",
"595 408 OFFCURVE",
"495 536 OFFCURVE",
"307 536 CURVE SMOOTH",
"119 536 OFFCURVE",
"19 408 OFFCURVE",
"19 256 CURVE SMOOTH",
"19 115 OFFCURVE",
"122 -10 OFFCURVE",
"307 -10 CURVE SMOOTH"
);
},
{
closed = 1;
nodes = (
"217 319 LINE",
"223 370 OFFCURVE",
"256 401 OFFCURVE",
"304 401 CURVE SMOOTH",
"352 401 OFFCURVE",
"385 370 OFFCURVE",
"391 319 CURVE"
);
},
{
closed = 1;
nodes = (
"126 688 LINE",
"239 573 LINE",
"375 573 LINE",
"488 688 LINE",
"392 730 LINE",
"307 667 LINE",
"222 730 LINE"
);
}
);
width = 610;
}
);
leftKerningGroup = c;
rightKerningGroup = ae;
unicode = 011B;
},
{
glyphname = ecircumflex;
layers = (
{
layerId = "AE853CD8-C74C-4F9A-A7CF-4083D549EAB1";
name = Bold;
paths = (
{
closed = 1;
nodes = (
"435 -10 OFFCURVE",
"526 49 OFFCURVE",
"569 133 CURVE",
"408 179 LINE",
"396 146 OFFCURVE",
"354 126 OFFCURVE",
"313 126 CURVE SMOOTH",
"269 126 OFFCURVE",
"225 149 OFFCURVE",
"221 205 CURVE",
"590 205 LINE",
"593 221 OFFCURVE",
"595 243 OFFCURVE",
"595 263 CURVE SMOOTH",
"595 408 OFFCURVE",
"495 536 OFFCURVE",
"307 536 CURVE SMOOTH",
"119 536 OFFCURVE",
"19 408 OFFCURVE",
"19 256 CURVE SMOOTH",
"19 115 OFFCURVE",
"122 -10 OFFCURVE",
"307 -10 CURVE SMOOTH"
);
},
{
closed = 1;
nodes = (
"217 319 LINE",
"223 370 OFFCURVE",
"256 401 OFFCURVE",
"304 401 CURVE SMOOTH",
"352 401 OFFCURVE",
"385 370 OFFCURVE",
"391 319 CURVE"
);
},
{
closed = 1;
nodes = (
"222 573 LINE",
"307 636 LINE",
"392 573 LINE",
"488 615 LINE",
"375 730 LINE",
"239 730 LINE",
"126 615 LINE"
);
}
);
width = 610;
}
);
leftKerningGroup = c;
rightKerningGroup = ae;
unicode = 00EA;
},
{
glyphname = edieresis;
layers = (
{
layerId = "AE853CD8-C74C-4F9A-A7CF-4083D549EAB1";
name = Bold;
paths = (
{
closed = 1;
nodes = (
"435 -10 OFFCURVE",
"526 49 OFFCURVE",
"569 133 CURVE",
"408 179 LINE",
"396 146 OFFCURVE",
"354 126 OFFCURVE",
"313 126 CURVE SMOOTH",
"269 126 OFFCURVE",
"225 149 OFFCURVE",
"221 205 CURVE",
"590 205 LINE",
"593 221 OFFCURVE",
"595 243 OFFCURVE",
"595 263 CURVE SMOOTH",
"595 408 OFFCURVE",
"495 536 OFFCURVE",
"307 536 CURVE SMOOTH",
"119 536 OFFCURVE",
"19 408 OFFCURVE",
"19 256 CURVE SMOOTH",
"19 115 OFFCURVE",
"122 -10 OFFCURVE",
"307 -10 CURVE SMOOTH"
);
},
{
closed = 1;
nodes = (
"217 319 LINE",
"223 370 OFFCURVE",
"256 401 OFFCURVE",
"304 401 CURVE SMOOTH",
"352 401 OFFCURVE",
"385 370 OFFCURVE",
"391 319 CURVE"
);
},
{
closed = 1;
nodes = (
"270 581 LINE",
"270 721 LINE",
"114 721 LINE",
"114 581 LINE"
);
},
{
closed = 1;
nodes = (
"500 581 LINE",
"500 721 LINE",
"344 721 LINE",
"344 581 LINE"
);
}
);
width = 610;
}
);
leftKerningGroup = c;
rightKerningGroup = ae;
unicode = 00EB;
},
{
glyphname = edotaccent;
layers = (
{
layerId = "AE853CD8-C74C-4F9A-A7CF-4083D549EAB1";
name = Bold;
paths = (
{
closed = 1;
nodes = (
"435 -10 OFFCURVE",
"526 49 OFFCURVE",
"569 133 CURVE",
"408 179 LINE",
"396 146 OFFCURVE",
"354 126 OFFCURVE",
"313 126 CURVE SMOOTH",
"269 126 OFFCURVE",
"225 149 OFFCURVE",
"221 205 CURVE",
"590 205 LINE",
"593 221 OFFCURVE",
"595 243 OFFCURVE",
"595 263 CURVE SMOOTH",
"595 408 OFFCURVE",
"495 536 OFFCURVE",
"307 536 CURVE SMOOTH",
"119 536 OFFCURVE",
"19 408 OFFCURVE",
"19 256 CURVE SMOOTH",
"19 115 OFFCURVE",
"122 -10 OFFCURVE",
"307 -10 CURVE SMOOTH"
);
},
{
closed = 1;
nodes = (
"217 319 LINE",
"223 370 OFFCURVE",
"256 401 OFFCURVE",
"304 401 CURVE SMOOTH",
"352 401 OFFCURVE",
"385 370 OFFCURVE",
"391 319 CURVE"
);
},
{
closed = 1;
nodes = (
"392 580 LINE",
"392 730 LINE",
"222 730 LINE",
"222 580 LINE"
);
}
);
width = 610;
}
);
leftKerningGroup = c;
rightKerningGroup = ae;
unicode = 0117;
},
{
glyphname = egrave;
layers = (
{
layerId = "AE853CD8-C74C-4F9A-A7CF-4083D549EAB1";
name = Bold;
paths = (
{
closed = 1;
nodes = (
"435 -10 OFFCURVE",
"526 49 OFFCURVE",
"569 133 CURVE",
"408 179 LINE",
"396 146 OFFCURVE",
"354 126 OFFCURVE",
"313 126 CURVE SMOOTH",
"269 126 OFFCURVE",
"225 149 OFFCURVE",
"221 205 CURVE",
"590 205 LINE",
"593 221 OFFCURVE",
"595 243 OFFCURVE",
"595 263 CURVE SMOOTH",
"595 408 OFFCURVE",
"495 536 OFFCURVE",
"307 536 CURVE SMOOTH",
"119 536 OFFCURVE",
"19 408 OFFCURVE",
"19 256 CURVE SMOOTH",
"19 115 OFFCURVE",
"122 -10 OFFCURVE",
"307 -10 CURVE SMOOTH"
);
},
{
closed = 1;
nodes = (
"217 319 LINE",
"223 370 OFFCURVE",
"256 401 OFFCURVE",
"304 401 CURVE SMOOTH",
"352 401 OFFCURVE",
"385 370 OFFCURVE",
"391 319 CURVE"
);
},
{
closed = 1;
nodes = (
"249 557 LINE",
"369 589 LINE",
"319 731 LINE",
"150 731 LINE"
);
}
);
width = 610;
}
);
leftKerningGroup = c;
rightKerningGroup = ae;
unicode = 00E8;
},
{
glyphname = eight;
lastChange = "2014-10-26 20:43:59 +0100";
layers = (
{
layerId = "AE853CD8-C74C-4F9A-A7CF-4083D549EAB1";
name = Bold;
paths = (
{
closed = 1;
nodes = (
"574 296 OFFCURVE",
"528 349 OFFCURVE",
"488 379 CURVE",
"526 401 OFFCURVE",
"555 455 OFFCURVE",
"555 501 CURVE SMOOTH",
"555 638 OFFCURVE",
"416 710 OFFCURVE",
"306 710 CURVE SMOOTH",
"196 710 OFFCURVE",
"58 636 OFFCURVE",
"58 499 CURVE SMOOTH",
"58 453 OFFCURVE",
"86 402 OFFCURVE",
"124 379 CURVE",
"85 350 OFFCURVE",
"38 298 OFFCURVE",
"38 227 CURVE SMOOTH",
"38 82 OFFCURVE",
"165 -10 OFFCURVE",
"306 -10 CURVE SMOOTH",
"454 -10 OFFCURVE",
"574 82 OFFCURVE",
"574 221 CURVE SMOOTH"
);
},
{
closed = 1;
nodes = (
"381 194 OFFCURVE",
"350 163 OFFCURVE",
"306 163 CURVE SMOOTH",
"264 163 OFFCURVE",
"231 193 OFFCURVE",
"231 232 CURVE SMOOTH",
"231 274 OFFCURVE",
"262 301 OFFCURVE",
"306 301 CURVE SMOOTH",
"349 301 OFFCURVE",
"381 276 OFFCURVE",
"381 232 CURVE SMOOTH"
);
},
{
closed = 1;
nodes = (
"251 521 OFFCURVE",
"273 543 OFFCURVE",
"306 543 CURVE SMOOTH",
"339 543 OFFCURVE",
"362 521 OFFCURVE",
"362 495 CURVE SMOOTH",
"362 459 OFFCURVE",
"333 442 OFFCURVE",
"306 442 CURVE SMOOTH",
"279 442 OFFCURVE",
"251 459 OFFCURVE",
"251 495 CURVE SMOOTH"
);
}
);
width = 612;
}
);
rightKerningGroup = A.sc;
unicode = 0038;
},
{
glyphname = eightinferior;
layers = (
{
layerId = "AE853CD8-C74C-4F9A-A7CF-4083D549EAB1";
name = Bold;
paths = (
{
closed = 1;
nodes = (
"412 182 OFFCURVE",
"379 212 OFFCURVE",
"333 235 CURVE",
"369 251 OFFCURVE",
"396 278 OFFCURVE",
"396 317 CURVE SMOOTH",
"396 389 OFFCURVE",
"302 440 OFFCURVE",
"219 440 CURVE SMOOTH",
"136 440 OFFCURVE",
"44 388 OFFCURVE",
"44 315 CURVE SMOOTH",
"44 274 OFFCURVE",
"73 249 OFFCURVE",
"106 235 CURVE",
"63 213 OFFCURVE",
"27 187 OFFCURVE",
"27 135 CURVE SMOOTH",
"27 54 OFFCURVE",
"115 -6 OFFCURVE",
"220 -6 CURVE SMOOTH",
"324 -6 OFFCURVE",
"412 53 OFFCURVE",
"412 133 CURVE SMOOTH"
);
},
{
closed = 1;
nodes = (
"302 121 OFFCURVE",
"263 103 OFFCURVE",
"220 103 CURVE SMOOTH",
"179 103 OFFCURVE",
"137 120 OFFCURVE",
"137 145 CURVE SMOOTH",
"137 169 OFFCURVE",
"174 186 OFFCURVE",
"219 186 CURVE SMOOTH",
"262 186 OFFCURVE",
"302 170 OFFCURVE",
"302 145 CURVE SMOOTH"
);
},
{
closed = 1;
nodes = (
"152 323 OFFCURVE",
"183 335 OFFCURVE",
"219 335 CURVE SMOOTH",
"255 335 OFFCURVE",
"287 323 OFFCURVE",
"287 305 CURVE SMOOTH",
"287 286 OFFCURVE",
"251 275 OFFCURVE",
"219 275 CURVE SMOOTH",
"187 275 OFFCURVE",
"152 286 OFFCURVE",
"152 305 CURVE SMOOTH"
);
}
);
width = 440;
}
);
rightKerningGroup = A.sc;
unicode = 2088;
},
{
glyphname = eightsuperior;
layers = (
{
layerId = "AE853CD8-C74C-4F9A-A7CF-4083D549EAB1";
name = Bold;
paths = (
{
closed = 1;
nodes = (
"412 472 OFFCURVE",
"379 502 OFFCURVE",
"333 525 CURVE",
"369 541 OFFCURVE",
"396 568 OFFCURVE",
"396 607 CURVE SMOOTH",
"396 679 OFFCURVE",
"302 730 OFFCURVE",
"219 730 CURVE SMOOTH",
"136 730 OFFCURVE",
"44 678 OFFCURVE",
"44 605 CURVE SMOOTH",
"44 564 OFFCURVE",
"73 539 OFFCURVE",
"106 525 CURVE",
"63 503 OFFCURVE",
"27 477 OFFCURVE",
"27 425 CURVE SMOOTH",
"27 344 OFFCURVE",
"115 284 OFFCURVE",
"220 284 CURVE SMOOTH",
"324 284 OFFCURVE",
"412 343 OFFCURVE",
"412 423 CURVE SMOOTH"
);
},
{
closed = 1;
nodes = (
"302 411 OFFCURVE",
"263 393 OFFCURVE",
"220 393 CURVE SMOOTH",
"179 393 OFFCURVE",
"137 410 OFFCURVE",
"137 435 CURVE SMOOTH",
"137 459 OFFCURVE",
"174 476 OFFCURVE",
"219 476 CURVE SMOOTH",
"262 476 OFFCURVE",
"302 460 OFFCURVE",
"302 435 CURVE SMOOTH"
);
},
{
closed = 1;
nodes = (
"152 613 OFFCURVE",
"183 625 OFFCURVE",
"219 625 CURVE SMOOTH",
"255 625 OFFCURVE",
"287 613 OFFCURVE",
"287 595 CURVE SMOOTH",
"287 576 OFFCURVE",
"251 565 OFFCURVE",
"219 565 CURVE SMOOTH",
"187 565 OFFCURVE",
"152 576 OFFCURVE",
"152 595 CURVE SMOOTH"
);
}
);
width = 440;
}
);
rightKerningGroup = A.sc;
unicode = 2078;
},
{
glyphname = ellipsis;
layers = (
{
layerId = "AE853CD8-C74C-4F9A-A7CF-4083D549EAB1";
name = Bold;
paths = (
{
closed = 1;
nodes = (
"204 0 LINE",
"204 184 LINE",
"50 184 LINE",
"50 0 LINE"
);
},
{
closed = 1;
nodes = (
"438 0 LINE",
"438 184 LINE",
"284 184 LINE",
"284 0 LINE"
);
},
{
closed = 1;
nodes = (
"672 0 LINE",
"672 184 LINE",
"518 184 LINE",
"518 0 LINE"
);
}
);
width = 722;
}
);
leftKerningGroup = comma;
rightKerningGroup = A.sc;
unicode = 2026;
},
{
glyphname = emacron;
layers = (
{
layerId = "AE853CD8-C74C-4F9A-A7CF-4083D549EAB1";
name = Bold;
paths = (
{
closed = 1;
nodes = (
"435 -10 OFFCURVE",
"526 49 OFFCURVE",
"569 133 CURVE",
"408 179 LINE",
"396 146 OFFCURVE",
"354 126 OFFCURVE",
"313 126 CURVE SMOOTH",
"269 126 OFFCURVE",
"225 149 OFFCURVE",
"221 205 CURVE",
"590 205 LINE",
"593 221 OFFCURVE",
"595 243 OFFCURVE",
"595 263 CURVE SMOOTH",
"595 408 OFFCURVE",
"495 536 OFFCURVE",
"307 536 CURVE SMOOTH",
"119 536 OFFCURVE",
"19 408 OFFCURVE",
"19 256 CURVE SMOOTH",
"19 115 OFFCURVE",
"122 -10 OFFCURVE",
"307 -10 CURVE SMOOTH"
);
},
{
closed = 1;
nodes = (
"217 319 LINE",
"223 370 OFFCURVE",
"256 401 OFFCURVE",
"304 401 CURVE SMOOTH",
"352 401 OFFCURVE",
"385 370 OFFCURVE",
"391 319 CURVE"
);
},
{
closed = 1;
nodes = (
"463 607 LINE",
"463 720 LINE",
"153 720 LINE",
"153 607 LINE"
);
}
);
width = 610;
}
);
leftKerningGroup = c;
rightKerningGroup = ae;
unicode = 0113;
},
{
glyphname = emdash;
layers = (
{
layerId = "AE853CD8-C74C-4F9A-A7CF-4083D549EAB1";
name = Bold;
paths = (
{
closed = 1;
nodes = (
"898 191 LINE",
"898 361 LINE",
"50 361 LINE",
"50 191 LINE"
);
}
);
width = 948;
}
);
leftKerningGroup = emdash;
rightKerningGroup = emdash;
unicode = 2014;
},
{
glyphname = endash;
layers = (
{
layerId = "AE853CD8-C74C-4F9A-A7CF-4083D549EAB1";
name = Bold;
paths = (
{
closed = 1;
nodes = (
"579 191 LINE",
"579 361 LINE",
"50 361 LINE",
"50 191 LINE"
);
}
);
width = 629;
}
);
leftKerningGroup = emdash;
rightKerningGroup = emdash;
unicode = 2013;
},
{
glyphname = eng;
layers = (
{
layerId = "AE853CD8-C74C-4F9A-A7CF-4083D549EAB1";
name = Bold;
paths = (
{
closed = 1;
nodes = (
"489 -209 OFFCURVE",
"576 -119 OFFCURVE",
"576 12 CURVE SMOOTH",
"576 346 LINE SMOOTH",
"576 418 OFFCURVE",
"561 536 OFFCURVE",
"417 536 CURVE SMOOTH",
"326 536 OFFCURVE",
"256 505 OFFCURVE",
"219 448 CURVE",
"219 526 LINE",
"48 526 LINE",
"48 0 LINE",
"238 0 LINE",
"238 295 LINE",
"255 339 OFFCURVE",
"297 370 OFFCURVE",
"329 370 CURVE SMOOTH",
"360 370 OFFCURVE",
"387 348 OFFCURVE",
"387 296 CURVE SMOOTH",
"387 -3 LINE SMOOTH",
"387 -30 OFFCURVE",
"371 -46 OFFCURVE",
"346 -46 CURVE SMOOTH",
"328 -46 OFFCURVE",
"310 -38 OFFCURVE",
"299 -26 CURVE",
"221 -155 LINE",
"262 -190 OFFCURVE",
"315 -209 OFFCURVE",
"370 -209 CURVE SMOOTH"
);
}
);
width = 620;
}
);
leftKerningGroup = eng;
rightKerningGroup = eng;
unicode = 014B;
},
{
glyphname = eogonek;
layers = (
{
layerId = "AE853CD8-C74C-4F9A-A7CF-4083D549EAB1";
name = Bold;
paths = (
{
closed = 1;
nodes = (
"388 -123 LINE",
"340 -123 OFFCURVE",
"318 -108 OFFCURVE",
"318 -86 CURVE SMOOTH",
"318 -60 OFFCURVE",
"346 -29 OFFCURVE",
"397 0 CURVE",
"479 21 OFFCURVE",
"538 70 OFFCURVE",
"570 133 CURVE",
"409 179 LINE",
"397 146 OFFCURVE",
"355 126 OFFCURVE",
"314 126 CURVE SMOOTH",
"270 126 OFFCURVE",
"226 149 OFFCURVE",
"222 205 CURVE",
"591 205 LINE",
"594 221 OFFCURVE",
"596 243 OFFCURVE",
"596 263 CURVE SMOOTH",
"596 408 OFFCURVE",
"496 536 OFFCURVE",
"308 536 CURVE SMOOTH",
"120 536 OFFCURVE",
"20 408 OFFCURVE",
"20 256 CURVE SMOOTH",
"20 120 OFFCURVE",
"116 -1 OFFCURVE",
"289 -9 CURVE",
"244 -41 OFFCURVE",
"221 -78 OFFCURVE",
"221 -113 CURVE SMOOTH",
"221 -160 OFFCURVE",
"264 -201 OFFCURVE",
"353 -213 CURVE"
);
},
{
closed = 1;
nodes = (
"218 319 LINE",
"224 370 OFFCURVE",
"257 401 OFFCURVE",
"305 401 CURVE SMOOTH",
"353 401 OFFCURVE",
"386 370 OFFCURVE",
"392 319 CURVE"
);
}
);
width = 612;
}
);
leftKerningGroup = c;
rightKerningGroup = ae;
unicode = 0119;
},
{
glyphname = equal;
layers = (
{
layerId = "AE853CD8-C74C-4F9A-A7CF-4083D549EAB1";
name = Bold;
paths = (
{
closed = 1;
nodes = (
"378 101 LINE",
"378 221 LINE",
"55 221 LINE",
"55 101 LINE"
);
},
{
closed = 1;
nodes = (
"378 331 LINE",
"378 451 LINE",
"55 451 LINE",
"55 331 LINE"
);
}
);
width = 433;
}
);
rightKerningGroup = A.sc;
unicode = 003D;
},
{
glyphname = eth;
layers = (
{
layerId = "AE853CD8-C74C-4F9A-A7CF-4083D549EAB1";
name = Bold;
paths = (
{
closed = 1;
nodes = (
"499 712 LINE",
"427 674 LINE",
"399 698 OFFCURVE",
"369 716 OFFCURVE",
"338 730 CURVE",
"108 730 LINE",
"180 694 OFFCURVE",
"238 656 OFFCURVE",
"283 615 CURVE",
"216 581 LINE",
"268 510 LINE",
"344 548 LINE",
"372 510 OFFCURVE",
"391 469 OFFCURVE",
"403 425 CURVE",
"365 454 OFFCURVE",
"313 471 OFFCURVE",
"260 471 CURVE SMOOTH",
"126 471 OFFCURVE",
"22 367 OFFCURVE",
"22 234 CURVE SMOOTH",
"22 91 OFFCURVE",
"141 -10 OFFCURVE",
"310 -10 CURVE SMOOTH",
"489 -10 OFFCURVE",
"598 103 OFFCURVE",
"598 291 CURVE SMOOTH",
"598 407 OFFCURVE",
"556 522 OFFCURVE",
"489 609 CURVE",
"551 641 LINE"
);
},
{
closed = 1;
nodes = (
"217 286 OFFCURVE",
"254 320 OFFCURVE",
"310 320 CURVE SMOOTH",
"366 320 OFFCURVE",
"403 286 OFFCURVE",
"403 235 CURVE SMOOTH",
"403 184 OFFCURVE",
"366 150 OFFCURVE",
"310 150 CURVE SMOOTH",
"254 150 OFFCURVE",
"217 184 OFFCURVE",
"217 235 CURVE SMOOTH"
);
}
);
width = 622;
}
);
leftKerningGroup = eth;
rightKerningGroup = eth;
unicode = 00F0;
},
{
glyphname = etilde;
layers = (
{
layerId = "AE853CD8-C74C-4F9A-A7CF-4083D549EAB1";
name = Bold;
paths = (
{
closed = 1;
nodes = (
"435 -10 OFFCURVE",
"526 49 OFFCURVE",
"569 133 CURVE",
"408 179 LINE",
"396 146 OFFCURVE",
"354 126 OFFCURVE",
"313 126 CURVE SMOOTH",
"269 126 OFFCURVE",
"225 149 OFFCURVE",
"221 205 CURVE",
"590 205 LINE",
"593 221 OFFCURVE",
"595 243 OFFCURVE",
"595 263 CURVE SMOOTH",
"595 408 OFFCURVE",
"495 536 OFFCURVE",
"307 536 CURVE SMOOTH",
"119 536 OFFCURVE",
"19 408 OFFCURVE",
"19 256 CURVE SMOOTH",
"19 115 OFFCURVE",
"122 -10 OFFCURVE",
"307 -10 CURVE SMOOTH"
);
},
{
closed = 1;
nodes = (
"217 319 LINE",
"223 370 OFFCURVE",
"256 401 OFFCURVE",
"304 401 CURVE SMOOTH",
"352 401 OFFCURVE",
"385 370 OFFCURVE",
"391 319 CURVE"
);
},
{
closed = 1;
nodes = (
"474 572 OFFCURVE",
"514 707 OFFCURVE",
"514 730 CURVE",
"414 730 LINE",
"414 727 OFFCURVE",
"408 679 OFFCURVE",
"364 679 CURVE SMOOTH",
"318 679 OFFCURVE",
"294 730 OFFCURVE",
"229 730 CURVE SMOOTH",
"129 730 OFFCURVE",
"90 607 OFFCURVE",
"90 572 CURVE",
"191 572 LINE",
"191 574 OFFCURVE",
"192 620 OFFCURVE",
"237 620 CURVE SMOOTH",
"282 620 OFFCURVE",
"310 572 OFFCURVE",
"371 572 CURVE SMOOTH"
);
}
);
width = 610;
}
);
leftKerningGroup = c;
rightKerningGroup = ae;
unicode = 1EBD;
},
{
glyphname = exclam;
layers = (
{
layerId = "AE853CD8-C74C-4F9A-A7CF-4083D549EAB1";
name = Bold;
paths = (
{
closed = 1;
nodes = (
"259 300 LINE",
"259 717 LINE",
"69 717 LINE",
"69 300 LINE"
);
},
{
closed = 1;
nodes = (
"259 0 LINE",
"259 184 LINE",
"69 184 LINE",
"69 0 LINE"
);
}
);
width = 328;
}
);
rightKerningGroup = A.sc;
unicode = 0021;
},
{
glyphname = exclamdown;
layers = (
{
layerId = "AE853CD8-C74C-4F9A-A7CF-4083D549EAB1";
name = Bold;
paths = (
{
closed = 1;
nodes = (
"69 410 LINE",
"69 -7 LINE",
"259 -7 LINE",
"259 410 LINE"
);
},
{
closed = 1;
nodes = (
"69 710 LINE",
"69 526 LINE",
"259 526 LINE",
"259 710 LINE"
);
}
);
width = 328;
}
);
rightKerningGroup = A.sc;
unicode = 00A1;
},
{
glyphname = f;
layers = (
{
layerId = "AE853CD8-C74C-4F9A-A7CF-4083D549EAB1";
name = Bold;
paths = (
{
closed = 1;
nodes = (
"278 0 LINE",
"278 322 LINE",
"393 322 LINE",
"393 465 LINE",
"278 465 LINE",
"278 529 LINE SMOOTH",
"278 563 OFFCURVE",
"293 580 OFFCURVE",
"324 580 CURVE SMOOTH",
"344 580 OFFCURVE",
"373 574 OFFCURVE",
"395 566 CURVE",
"427 710 LINE",
"374 730 OFFCURVE",
"326 740 OFFCURVE",
"281 740 CURVE SMOOTH",
"165 740 OFFCURVE",
"88 654 OFFCURVE",
"88 522 CURVE SMOOTH",
"88 465 LINE",
"23 465 LINE",
"23 322 LINE",
"88 322 LINE",
"88 0 LINE"
);
}
);
width = 411;
}
);
leftKerningGroup = f;
rightKerningGroup = f;
unicode = 0066;
},
{
glyphname = five;
lastChange = "2014-10-26 20:43:57 +0100";
layers = (
{
layerId = "AE853CD8-C74C-4F9A-A7CF-4083D549EAB1";
name = Bold;
paths = (
{
closed = 1;
nodes = (
"273 466 OFFCURVE",
"259 461 OFFCURVE",
"259 461 CURVE",
"270 538 LINE",
"489 538 LINE",
"489 711 LINE",
"133 711 LINE",
"49 269 LINE",
"212 269 LINE",
"224 290 OFFCURVE",
"249 304 OFFCURVE",
"277 304 CURVE SMOOTH",
"318 304 OFFCURVE",
"346 275 OFFCURVE",
"346 231 CURVE SMOOTH",
"346 186 OFFCURVE",
"316 157 OFFCURVE",
"267 157 CURVE SMOOTH",
"222 157 OFFCURVE",
"171 182 OFFCURVE",
"133 223 CURVE",
"29 103 LINE",
"74 32 OFFCURVE",
"162 -9 OFFCURVE",
"266 -9 CURVE SMOOTH",
"429 -9 OFFCURVE",
"541 91 OFFCURVE",
"541 235 CURVE SMOOTH",
"541 371 OFFCURVE",
"443 466 OFFCURVE",
"305 466 CURVE SMOOTH"
);
}
);
width = 576;
}
);
rightKerningGroup = A.sc;
unicode = 0035;
},
{
glyphname = fiveeighths;
layers = (
{
layerId = "AE853CD8-C74C-4F9A-A7CF-4083D549EAB1";
name = Bold;
paths = (
{
closed = 1;
nodes = (
"1036 182 OFFCURVE",
"1003 212 OFFCURVE",
"957 235 CURVE",
"993 251 OFFCURVE",
"1020 278 OFFCURVE",
"1020 317 CURVE SMOOTH",
"1020 389 OFFCURVE",
"926 440 OFFCURVE",
"843 440 CURVE SMOOTH",
"760 440 OFFCURVE",
"668 388 OFFCURVE",
"668 315 CURVE SMOOTH",
"668 274 OFFCURVE",
"697 249 OFFCURVE",
"730 235 CURVE",
"687 213 OFFCURVE",
"651 187 OFFCURVE",
"651 135 CURVE SMOOTH",
"651 54 OFFCURVE",
"739 -6 OFFCURVE",
"844 -6 CURVE SMOOTH",
"948 -6 OFFCURVE",
"1036 53 OFFCURVE",
"1036 133 CURVE SMOOTH"
);
},
{
closed = 1;
nodes = (
"926 121 OFFCURVE",
"887 103 OFFCURVE",
"844 103 CURVE SMOOTH",
"803 103 OFFCURVE",
"761 120 OFFCURVE",
"761 145 CURVE SMOOTH",
"761 169 OFFCURVE",
"798 186 OFFCURVE",
"843 186 CURVE SMOOTH",
"886 186 OFFCURVE",
"926 170 OFFCURVE",
"926 145 CURVE SMOOTH"
);
},
{
closed = 1;
nodes = (
"776 323 OFFCURVE",
"807 335 OFFCURVE",
"843 335 CURVE SMOOTH",
"879 335 OFFCURVE",
"911 323 OFFCURVE",
"911 305 CURVE SMOOTH",
"911 286 OFFCURVE",
"875 275 OFFCURVE",
"843 275 CURVE SMOOTH",
"811 275 OFFCURVE",
"776 286 OFFCURVE",
"776 305 CURVE SMOOTH"
);
},
{
closed = 1;
nodes = (
"196 579 OFFCURVE",
"177 573 OFFCURVE",
"168 571 CURVE",
"185 622 LINE",
"365 622 LINE",
"365 731 LINE",
"107 731 LINE",
"91 638 OFFCURVE",
"63 548 OFFCURVE",
"46 456 CURVE",
"140 456 LINE",
"153 481 OFFCURVE",
"191 499 OFFCURVE",
"221 499 CURVE SMOOTH",
"250 499 OFFCURVE",
"290 483 OFFCURVE",
"290 442 CURVE SMOOTH",
"290 402 OFFCURVE",
"254 389 OFFCURVE",
"210 389 CURVE SMOOTH",
"162 389 OFFCURVE",
"122 404 OFFCURVE",
"94 429 CURVE",
"32 353 LINE",
"65 310 OFFCURVE",
"130 284 OFFCURVE",
"203 284 CURVE SMOOTH",
"319 284 OFFCURVE",
"401 347 OFFCURVE",
"401 436 CURVE SMOOTH",
"401 520 OFFCURVE",
"327 579 OFFCURVE",
"228 579 CURVE SMOOTH"
);
},
{
closed = 1;
nodes = (
"305 -10 LINE",
"568 337 LINE",
"839 646 LINE",
"756 721 LINE",
"505 384 LINE",
"222 65 LINE"
);
}
);
width = 1071;
}
);
rightKerningGroup = A.sc;
unicode = 215D;
},
{
glyphname = fivesuperior;
layers = (
{
layerId = "AE853CD8-C74C-4F9A-A7CF-4083D549EAB1";
name = Bold;
paths = (
{
closed = 1;
nodes = (
"184 579 OFFCURVE",
"165 573 OFFCURVE",
"156 571 CURVE",
"173 622 LINE",
"353 622 LINE",
"353 731 LINE",
"95 731 LINE",
"79 638 OFFCURVE",
"51 548 OFFCURVE",
"34 456 CURVE",
"128 456 LINE",
"141 481 OFFCURVE",
"179 499 OFFCURVE",
"209 499 CURVE SMOOTH",
"238 499 OFFCURVE",
"278 483 OFFCURVE",
"278 442 CURVE SMOOTH",
"278 402 OFFCURVE",
"242 389 OFFCURVE",
"198 389 CURVE SMOOTH",
"150 389 OFFCURVE",
"110 404 OFFCURVE",
"82 429 CURVE",
"20 353 LINE",
"53 310 OFFCURVE",
"118 284 OFFCURVE",
"191 284 CURVE SMOOTH",
"307 284 OFFCURVE",
"389 347 OFFCURVE",
"389 436 CURVE SMOOTH",
"389 520 OFFCURVE",
"315 579 OFFCURVE",
"216 579 CURVE SMOOTH"
);
}
);
width = 412;
}
);
rightKerningGroup = A.sc;
unicode = 2075;
},
{
glyphname = fraction;
layers = (
{
layerId = "AE853CD8-C74C-4F9A-A7CF-4083D549EAB1";
name = Bold;
paths = (
{
closed = 1;
nodes = (
"-105 -10 LINE",
"158 337 LINE",
"429 646 LINE",
"346 721 LINE",
"95 384 LINE",
"-188 65 LINE"
);
}
);
width = 240;
}
);
rightKerningGroup = A.sc;
unicode = 2044;
},
{
glyphname = fiveinferior;
layers = (
{
layerId = "AE853CD8-C74C-4F9A-A7CF-4083D549EAB1";
name = Bold;
paths = (
{
closed = 1;
nodes = (
"183 289 OFFCURVE",
"164 283 OFFCURVE",
"155 281 CURVE",
"172 332 LINE",
"352 332 LINE",
"352 441 LINE",
"94 441 LINE",
"78 348 OFFCURVE",
"50 258 OFFCURVE",
"33 166 CURVE",
"127 166 LINE",
"140 191 OFFCURVE",
"178 209 OFFCURVE",
"208 209 CURVE SMOOTH",
"237 209 OFFCURVE",
"277 193 OFFCURVE",
"277 152 CURVE SMOOTH",
"277 112 OFFCURVE",
"241 99 OFFCURVE",
"197 99 CURVE SMOOTH",
"149 99 OFFCURVE",
"109 114 OFFCURVE",
"81 139 CURVE",
"19 63 LINE",
"52 20 OFFCURVE",
"117 -6 OFFCURVE",
"190 -6 CURVE SMOOTH",
"306 -6 OFFCURVE",
"388 57 OFFCURVE",
"388 146 CURVE SMOOTH",
"388 230 OFFCURVE",
"314 289 OFFCURVE",
"215 289 CURVE SMOOTH"
);
}
);
width = 412;
}
);
rightKerningGroup = A.sc;
unicode = 2085;
},
{
glyphname = florin;
layers = (
{
layerId = "AE853CD8-C74C-4F9A-A7CF-4083D549EAB1";
name = Bold;
paths = (
{
closed = 1;
nodes = (
"295 -209 OFFCURVE",
"383 -123 OFFCURVE",
"383 2 CURVE SMOOTH",
"383 322 LINE",
"498 322 LINE",
"498 465 LINE",
"383 465 LINE",
"383 529 LINE SMOOTH",
"383 563 OFFCURVE",
"398 580 OFFCURVE",
"429 580 CURVE SMOOTH",
"449 580 OFFCURVE",
"478 574 OFFCURVE",
"500 566 CURVE",
"532 710 LINE",
"479 730 OFFCURVE",
"431 740 OFFCURVE",
"386 740 CURVE SMOOTH",
"270 740 OFFCURVE",
"193 654 OFFCURVE",
"193 522 CURVE SMOOTH",
"193 465 LINE",
"128 465 LINE",
"128 322 LINE",
"193 322 LINE",
"193 -3 LINE SMOOTH",
"193 -30 OFFCURVE",
"178 -46 OFFCURVE",
"153 -46 CURVE SMOOTH",
"135 -46 OFFCURVE",
"117 -38 OFFCURVE",
"106 -26 CURVE",
"28 -155 LINE",
"69 -190 OFFCURVE",
"122 -209 OFFCURVE",
"177 -209 CURVE SMOOTH"
);
}
);
width = 567;
}
);
rightKerningGroup = A.sc;
unicode = 0192;
},
{
glyphname = four;
lastChange = "2014-10-26 20:43:54 +0100";
layers = (
{
layerId = "AE853CD8-C74C-4F9A-A7CF-4083D549EAB1";
name = Bold;
paths = (
{
closed = 1;
nodes = (
"472 1 LINE",
"472 137 LINE",
"560 137 LINE",
"560 307 LINE",
"472 307 LINE",
"472 711 LINE",
"342 711 LINE",
"25 307 LINE",
"25 137 LINE",
"282 137 LINE",
"282 1 LINE"
);
},
{
closed = 1;
nodes = (
"304 427 LINE",
"304 307 LINE",
"212 307 LINE"
);
}
);
width = 597;
}
);
leftKerningGroup = four.lnum;
rightKerningGroup = four.lnum;
unicode = 0034;
},
{
glyphname = fourinferior;
layers = (
{
layerId = "AE853CD8-C74C-4F9A-A7CF-4083D549EAB1";
name = Bold;
paths = (
{
closed = 1;
nodes = (
"342 1 LINE",
"342 84 LINE",
"406 84 LINE",
"406 191 LINE",
"342 191 LINE",
"342 441 LINE",
"268 441 LINE",
"19 191 LINE",
"19 84 LINE",
"234 84 LINE",
"234 1 LINE"
);
},
{
closed = 1;
nodes = (
"238 312 LINE",
"238 191 LINE",
"120 191 LINE"
);
}
);
width = 431;
}
);
rightKerningGroup = A.sc;
unicode = 2084;
},
{
glyphname = foursuperior;
layers = (
{
layerId = "AE853CD8-C74C-4F9A-A7CF-4083D549EAB1";
name = Bold;
paths = (
{
closed = 1;
nodes = (
"342 291 LINE",
"342 374 LINE",
"406 374 LINE",
"406 481 LINE",
"342 481 LINE",
"342 731 LINE",
"268 731 LINE",
"19 481 LINE",
"19 374 LINE",
"234 374 LINE",
"234 291 LINE"
);
},
{
closed = 1;
nodes = (
"238 602 LINE",
"238 481 LINE",
"120 481 LINE"
);
}
);
width = 431;
}
);
rightKerningGroup = A.sc;
unicode = 2074;
},
{
glyphname = g;
layers = (
{
layerId = "AE853CD8-C74C-4F9A-A7CF-4083D549EAB1";
name = Bold;
paths = (
{
closed = 1;
nodes = (
"317 0 OFFCURVE",
"379 27 OFFCURVE",
"409 82 CURVE",
"409 48 LINE SMOOTH",
"409 -46 OFFCURVE",
"348 -82 OFFCURVE",
"279 -82 CURVE SMOOTH",
"218 -82 OFFCURVE",
"161 -54 OFFCURVE",
"123 -18 CURVE",
"23 -122 LINE",
"87 -187 OFFCURVE",
"168 -223 OFFCURVE",
"279 -223 CURVE SMOOTH",
"471 -223 OFFCURVE",
"599 -116 OFFCURVE",
"599 48 CURVE SMOOTH",
"599 526 LINE",
"434 526 LINE",
"434 448 LINE",
"401 505 OFFCURVE",
"341 536 OFFCURVE",
"266 536 CURVE SMOOTH",
"122 536 OFFCURVE",
"21 421 OFFCURVE",
"21 264 CURVE SMOOTH",
"21 115 OFFCURVE",
"113 0 OFFCURVE",
"250 0 CURVE SMOOTH"
);
},
{
closed = 1;
nodes = (
"258 150 OFFCURVE",
"215 194 OFFCURVE",
"215 259 CURVE SMOOTH",
"215 323 OFFCURVE",
"256 376 OFFCURVE",
"310 376 CURVE SMOOTH",
"350 376 OFFCURVE",
"390 346 OFFCURVE",
"409 298 CURVE",
"409 204 LINE",
"384 168 OFFCURVE",
"356 150 OFFCURVE",
"318 150 CURVE SMOOTH"
);
}
);
width = 647;
}
);
leftKerningGroup = a.alt;
rightKerningGroup = a.alt;
unicode = 0067;
},
{
glyphname = gbreve;
layers = (
{
layerId = "AE853CD8-C74C-4F9A-A7CF-4083D549EAB1";
name = Bold;
paths = (
{
closed = 1;
nodes = (
"317 0 OFFCURVE",
"379 27 OFFCURVE",
"409 82 CURVE",
"409 48 LINE SMOOTH",
"409 -46 OFFCURVE",
"348 -82 OFFCURVE",
"279 -82 CURVE SMOOTH",
"218 -82 OFFCURVE",
"161 -54 OFFCURVE",
"123 -18 CURVE",
"23 -122 LINE",
"87 -187 OFFCURVE",
"168 -223 OFFCURVE",
"279 -223 CURVE SMOOTH",
"471 -223 OFFCURVE",
"599 -116 OFFCURVE",
"599 48 CURVE SMOOTH",
"599 526 LINE",
"434 526 LINE",
"434 448 LINE",
"401 505 OFFCURVE",
"341 536 OFFCURVE",
"266 536 CURVE SMOOTH",
"122 536 OFFCURVE",
"21 421 OFFCURVE",
"21 264 CURVE SMOOTH",
"21 115 OFFCURVE",
"113 0 OFFCURVE",
"250 0 CURVE SMOOTH"
);
},
{
closed = 1;
nodes = (
"258 150 OFFCURVE",
"215 194 OFFCURVE",
"215 259 CURVE SMOOTH",
"215 323 OFFCURVE",
"256 376 OFFCURVE",
"310 376 CURVE SMOOTH",
"350 376 OFFCURVE",
"390 346 OFFCURVE",
"409 298 CURVE",
"409 204 LINE",
"384 168 OFFCURVE",
"356 150 OFFCURVE",
"318 150 CURVE SMOOTH"
);
},
{
closed = 1;
nodes = (
"320 649 OFFCURVE",
"292 686 OFFCURVE",
"292 730 CURVE",
"194 730 LINE",
"194 635 OFFCURVE",
"259 568 OFFCURVE",
"353 568 CURVE SMOOTH",
"447 568 OFFCURVE",
"512 635 OFFCURVE",
"512 730 CURVE",
"414 730 LINE",
"410 683 OFFCURVE",
"384 649 OFFCURVE",
"353 649 CURVE SMOOTH"
);
}
);
width = 647;
}
);
leftKerningGroup = a.alt;
rightKerningGroup = a.alt;
unicode = 011F;
},
{
glyphname = gcircumflex;
layers = (
{
layerId = "AE853CD8-C74C-4F9A-A7CF-4083D549EAB1";
name = Bold;
paths = (
{
closed = 1;
nodes = (
"317 0 OFFCURVE",
"379 27 OFFCURVE",
"409 82 CURVE",
"409 48 LINE SMOOTH",
"409 -46 OFFCURVE",
"348 -82 OFFCURVE",
"279 -82 CURVE SMOOTH",
"218 -82 OFFCURVE",
"161 -54 OFFCURVE",
"123 -18 CURVE",
"23 -122 LINE",
"87 -187 OFFCURVE",
"168 -223 OFFCURVE",
"279 -223 CURVE SMOOTH",
"471 -223 OFFCURVE",
"599 -116 OFFCURVE",
"599 48 CURVE SMOOTH",
"599 526 LINE",
"434 526 LINE",
"434 448 LINE",
"401 505 OFFCURVE",
"341 536 OFFCURVE",
"266 536 CURVE SMOOTH",
"122 536 OFFCURVE",
"21 421 OFFCURVE",
"21 264 CURVE SMOOTH",
"21 115 OFFCURVE",
"113 0 OFFCURVE",
"250 0 CURVE SMOOTH"
);
},
{
closed = 1;
nodes = (
"258 150 OFFCURVE",
"215 194 OFFCURVE",
"215 259 CURVE SMOOTH",
"215 323 OFFCURVE",
"256 376 OFFCURVE",
"310 376 CURVE SMOOTH",
"350 376 OFFCURVE",
"390 346 OFFCURVE",
"409 298 CURVE",
"409 204 LINE",
"384 168 OFFCURVE",
"356 150 OFFCURVE",
"318 150 CURVE SMOOTH"
);
},
{
closed = 1;
nodes = (
"268 573 LINE",
"353 636 LINE",
"438 573 LINE",
"534 615 LINE",
"421 730 LINE",
"285 730 LINE",
"172 615 LINE"
);
}
);
width = 647;
}
);
leftKerningGroup = a.alt;
rightKerningGroup = a.alt;
unicode = 011D;
},
{
glyphname = gcommaaccent;
layers = (
{
layerId = "AE853CD8-C74C-4F9A-A7CF-4083D549EAB1";
name = Bold;
paths = (
{
closed = 1;
nodes = (
"317 0 OFFCURVE",
"379 27 OFFCURVE",
"409 82 CURVE",
"409 48 LINE SMOOTH",
"409 -46 OFFCURVE",
"348 -82 OFFCURVE",
"279 -82 CURVE SMOOTH",
"218 -82 OFFCURVE",
"161 -54 OFFCURVE",
"123 -18 CURVE",
"23 -122 LINE",
"87 -187 OFFCURVE",
"168 -223 OFFCURVE",
"279 -223 CURVE SMOOTH",
"471 -223 OFFCURVE",
"599 -116 OFFCURVE",
"599 48 CURVE SMOOTH",
"599 526 LINE",
"434 526 LINE",
"434 448 LINE",
"401 505 OFFCURVE",
"341 536 OFFCURVE",
"266 536 CURVE SMOOTH",
"122 536 OFFCURVE",
"21 421 OFFCURVE",
"21 264 CURVE SMOOTH",
"21 115 OFFCURVE",
"113 0 OFFCURVE",
"250 0 CURVE SMOOTH"
);
},
{
closed = 1;
nodes = (
"258 150 OFFCURVE",
"215 194 OFFCURVE",
"215 259 CURVE SMOOTH",
"215 323 OFFCURVE",
"256 376 OFFCURVE",
"310 376 CURVE SMOOTH",
"350 376 OFFCURVE",
"390 346 OFFCURVE",
"409 298 CURVE",
"409 204 LINE",
"384 168 OFFCURVE",
"356 150 OFFCURVE",
"318 150 CURVE SMOOTH"
);
},
{
closed = 1;
nodes = (
"510 730 LINE",
"341 730 LINE",
"291 588 LINE",
"411 556 LINE"
);
}
);
width = 647;
}
);
leftKerningGroup = a.alt;
rightKerningGroup = a.alt;
unicode = 0123;
},
{
glyphname = gdotaccent;
layers = (
{
layerId = "AE853CD8-C74C-4F9A-A7CF-4083D549EAB1";
name = Bold;
paths = (
{
closed = 1;
nodes = (
"317 0 OFFCURVE",
"379 27 OFFCURVE",
"409 82 CURVE",
"409 48 LINE SMOOTH",
"409 -46 OFFCURVE",
"348 -82 OFFCURVE",
"279 -82 CURVE SMOOTH",
"218 -82 OFFCURVE",
"161 -54 OFFCURVE",
"123 -18 CURVE",
"23 -122 LINE",
"87 -187 OFFCURVE",
"168 -223 OFFCURVE",
"279 -223 CURVE SMOOTH",
"471 -223 OFFCURVE",
"599 -116 OFFCURVE",
"599 48 CURVE SMOOTH",
"599 526 LINE",
"434 526 LINE",
"434 448 LINE",
"401 505 OFFCURVE",
"341 536 OFFCURVE",
"266 536 CURVE SMOOTH",
"122 536 OFFCURVE",
"21 421 OFFCURVE",
"21 264 CURVE SMOOTH",
"21 115 OFFCURVE",
"113 0 OFFCURVE",
"250 0 CURVE SMOOTH"
);
},
{
closed = 1;
nodes = (
"258 150 OFFCURVE",
"215 194 OFFCURVE",
"215 259 CURVE SMOOTH",
"215 323 OFFCURVE",
"256 376 OFFCURVE",
"310 376 CURVE SMOOTH",
"350 376 OFFCURVE",
"390 346 OFFCURVE",
"409 298 CURVE",
"409 204 LINE",
"384 168 OFFCURVE",
"356 150 OFFCURVE",
"318 150 CURVE SMOOTH"
);
},
{
closed = 1;
nodes = (
"438 580 LINE",
"438 730 LINE",
"268 730 LINE",
"268 580 LINE"
);
}
);
width = 647;
}
);
leftKerningGroup = a.alt;
rightKerningGroup = a.alt;
unicode = 0121;
},
{
glyphname = germandbls;
layers = (
{
layerId = "AE853CD8-C74C-4F9A-A7CF-4083D549EAB1";
name = Bold;
paths = (
{
closed = 1;
nodes = (
"254 -6 LINE",
"389 -6 OFFCURVE",
"544 40 OFFCURVE",
"544 213 CURVE SMOOTH",
"544 309 OFFCURVE",
"496 374 OFFCURVE",
"421 403 CURVE",
"458 422 OFFCURVE",
"492 479 OFFCURVE",
"492 546 CURVE SMOOTH",
"492 653 OFFCURVE",
"406 714 OFFCURVE",
"288 714 CURVE SMOOTH",
"153 714 OFFCURVE",
"48 635 OFFCURVE",
"48 529 CURVE SMOOTH",
"48 0 LINE",
"228 0 LINE",
"228 494 LINE SMOOTH",
"228 507 OFFCURVE",
"228 554 OFFCURVE",
"269 554 CURVE SMOOTH",
"271 554 OFFCURVE",
"312 554 OFFCURVE",
"312 512 CURVE SMOOTH",
"312 490 OFFCURVE",
"301 473 OFFCURVE",
"273 473 CURVE SMOOTH",
"252 473 LINE",
"252 303 LINE",
"275 303 LINE SMOOTH",
"298 303 OFFCURVE",
"344 285 OFFCURVE",
"344 237 CURVE SMOOTH",
"344 192 OFFCURVE",
"303 168 OFFCURVE",
"254 168 CURVE"
);
}
);
width = 563;
}
);
leftKerningGroup = b;
rightKerningGroup = germandbls;
unicode = 00DF;
},
{
glyphname = greater;
layers = (
{
layerId = "AE853CD8-C74C-4F9A-A7CF-4083D549EAB1";
name = Bold;
paths = (
{
closed = 1;
nodes = (
"481 298 LINE",
"57 556 LINE",
"57 354 LINE",
"205 259 LINE",
"57 172 LINE",
"57 -40 LINE",
"481 210 LINE"
);
}
);
width = 512;
}
);
rightKerningGroup = A.sc;
unicode = 003E;
},
{
glyphname = guillemotleft;
layers = (
{
layerId = "AE853CD8-C74C-4F9A-A7CF-4083D549EAB1";
name = Bold;
paths = (
{
closed = 1;
nodes = (
"30 210 LINE",
"307 30 LINE",
"307 182 LINE",
"179 259 LINE",
"307 344 LINE",
"307 496 LINE",
"30 298 LINE"
);
},
{
closed = 1;
nodes = (
"381 210 LINE",
"658 30 LINE",
"658 182 LINE",
"530 259 LINE",
"658 344 LINE",
"658 496 LINE",
"381 298 LINE"
);
}
);
width = 709;
}
);
leftKerningGroup = guillemotleft;
rightKerningGroup = guillemotleft;
unicode = 00AB;
},
{
glyphname = guillemotright;
layers = (
{
layerId = "AE853CD8-C74C-4F9A-A7CF-4083D549EAB1";
name = Bold;
paths = (
{
closed = 1;
nodes = (
"679 298 LINE",
"402 496 LINE",
"402 344 LINE",
"530 259 LINE",
"402 182 LINE",
"402 30 LINE",
"679 210 LINE"
);
},
{
closed = 1;
nodes = (
"328 298 LINE",
"51 496 LINE",
"51 344 LINE",
"179 259 LINE",
"51 182 LINE",
"51 30 LINE",
"328 210 LINE"
);
}
);
width = 709;
}
);
leftKerningGroup = guillemotright;
rightKerningGroup = guillemotright;
unicode = 00BB;
},
{
glyphname = guilsinglleft;
layers = (
{
layerId = "AE853CD8-C74C-4F9A-A7CF-4083D549EAB1";
name = Bold;
paths = (
{
closed = 1;
nodes = (
"30 210 LINE",
"307 30 LINE",
"307 182 LINE",
"179 259 LINE",
"307 344 LINE",
"307 496 LINE",
"30 298 LINE"
);
}
);
width = 358;
}
);
leftKerningGroup = guillemotleft;
rightKerningGroup = guillemotleft;
unicode = 2039;
},
{
glyphname = guilsinglright;
layers = (
{
layerId = "AE853CD8-C74C-4F9A-A7CF-4083D549EAB1";
name = Bold;
paths = (
{
closed = 1;
nodes = (
"328 298 LINE",
"51 496 LINE",
"51 344 LINE",
"179 259 LINE",
"51 182 LINE",
"51 30 LINE",
"328 210 LINE"
);
}
);
width = 358;
}
);
leftKerningGroup = guillemotright;
rightKerningGroup = guillemotright;
unicode = 203A;
},
{
glyphname = h;
layers = (
{
layerId = "AE853CD8-C74C-4F9A-A7CF-4083D549EAB1";
name = Bold;
paths = (
{
closed = 1;
nodes = (
"577 346 LINE SMOOTH",
"577 423 OFFCURVE",
"560 536 OFFCURVE",
"412 536 CURVE SMOOTH",
"338 536 OFFCURVE",
"275 505 OFFCURVE",
"238 448 CURVE",
"238 730 LINE",
"48 730 LINE",
"48 0 LINE",
"238 0 LINE",
"238 295 LINE",
"256 341 OFFCURVE",
"301 370 OFFCURVE",
"326 370 CURVE SMOOTH",
"361 370 OFFCURVE",
"387 348 OFFCURVE",
"387 296 CURVE SMOOTH",
"387 0 LINE",
"577 0 LINE"
);
}
);
width = 621;
}
);
leftKerningGroup = b;
rightKerningGroup = h;
unicode = 0068;
},
{
glyphname = hbar;
layers = (
{
layerId = "AE853CD8-C74C-4F9A-A7CF-4083D549EAB1";
name = Bold;
paths = (
{
closed = 1;
nodes = (
"577 346 LINE SMOOTH",
"577 423 OFFCURVE",
"560 536 OFFCURVE",
"412 536 CURVE SMOOTH",
"338 536 OFFCURVE",
"275 505 OFFCURVE",
"238 448 CURVE",
"238 579 LINE",
"353 579 LINE",
"353 688 LINE",
"238 688 LINE",
"238 730 LINE",
"48 730 LINE",
"48 688 LINE",
"18 688 LINE",
"18 579 LINE",
"48 579 LINE",
"48 0 LINE",
"238 0 LINE",
"238 295 LINE",
"256 341 OFFCURVE",
"301 370 OFFCURVE",
"326 370 CURVE SMOOTH",
"361 370 OFFCURVE",
"387 348 OFFCURVE",
"387 296 CURVE SMOOTH",
"387 0 LINE",
"577 0 LINE"
);
}
);
width = 621;
}
);
leftKerningGroup = b;
rightKerningGroup = h;
unicode = 0127;
},
{
glyphname = hcircumflex;
layers = (
{
layerId = "AE853CD8-C74C-4F9A-A7CF-4083D549EAB1";
name = Bold;
paths = (
{
closed = 1;
nodes = (
"577 346 LINE SMOOTH",
"577 423 OFFCURVE",
"560 536 OFFCURVE",
"412 536 CURVE SMOOTH",
"338 536 OFFCURVE",
"275 505 OFFCURVE",
"238 448 CURVE",
"238 730 LINE",
"48 730 LINE",
"48 0 LINE",
"238 0 LINE",
"238 295 LINE",
"256 341 OFFCURVE",
"301 370 OFFCURVE",
"326 370 CURVE SMOOTH",
"361 370 OFFCURVE",
"387 348 OFFCURVE",
"387 296 CURVE SMOOTH",
"387 0 LINE",
"577 0 LINE"
);
},
{
closed = 1;
nodes = (
"345 577 LINE",
"414 638 LINE",
"484 577 LINE",
"562 617 LINE",
"470 729 LINE",
"359 729 LINE",
"266 617 LINE"
);
}
);
width = 621;
}
);
leftKerningGroup = b;
rightKerningGroup = h;
unicode = 0125;
},
{
glyphname = hyphen;
layers = (
{
layerId = "AE853CD8-C74C-4F9A-A7CF-4083D549EAB1";
name = Bold;
paths = (
{
closed = 1;
nodes = (
"363 191 LINE",
"363 361 LINE",
"50 361 LINE",
"50 191 LINE"
);
}
);
width = 413;
}
);
leftKerningGroup = emdash;
rightKerningGroup = emdash;
unicode = 002D;
},
{
glyphname = i;
layers = (
{
layerId = "AE853CD8-C74C-4F9A-A7CF-4083D549EAB1";
name = Bold;
paths = (
{
closed = 1;
nodes = (
"238 0 LINE",
"238 526 LINE",
"48 526 LINE",
"48 0 LINE"
);
},
{
closed = 1;
nodes = (
"238 570 LINE",
"238 730 LINE",
"48 730 LINE",
"48 570 LINE"
);
}
);
width = 286;
}
);
leftKerningGroup = dotlessi;
rightKerningGroup = dotlessi;
unicode = 0069;
},
{
glyphname = iacute;
layers = (
{
layerId = "AE853CD8-C74C-4F9A-A7CF-4083D549EAB1";
name = Bold;
paths = (
{
closed = 1;
nodes = (
"238 0 LINE",
"238 526 LINE",
"48 526 LINE",
"48 0 LINE"
);
},
{
closed = 1;
nodes = (
"300 730 LINE",
"131 730 LINE",
"81 588 LINE",
"201 556 LINE"
);
}
);
width = 286;
}
);
leftKerningGroup = dotlessi;
rightKerningGroup = dotlessi;
unicode = 00ED;
},
{
glyphname = ibreve;
layers = (
{
layerId = "AE853CD8-C74C-4F9A-A7CF-4083D549EAB1";
name = Bold;
paths = (
{
closed = 1;
nodes = (
"238 0 LINE",
"238 526 LINE",
"48 526 LINE",
"48 0 LINE"
);
},
{
closed = 1;
nodes = (
"110 649 OFFCURVE",
"82 686 OFFCURVE",
"82 730 CURVE",
"-16 730 LINE",
"-16 635 OFFCURVE",
"49 568 OFFCURVE",
"143 568 CURVE SMOOTH",
"237 568 OFFCURVE",
"302 635 OFFCURVE",
"302 730 CURVE",
"204 730 LINE",
"200 683 OFFCURVE",
"174 649 OFFCURVE",
"143 649 CURVE SMOOTH"
);
}
);
width = 286;
}
);
leftKerningGroup = dotlessi;
rightKerningGroup = dotlessi;
unicode = 012D;
},
{
glyphname = icircumflex;
layers = (
{
layerId = "AE853CD8-C74C-4F9A-A7CF-4083D549EAB1";
name = Bold;
paths = (
{
closed = 1;
nodes = (
"238 0 LINE",
"238 526 LINE",
"48 526 LINE",
"48 0 LINE"
);
},
{
closed = 1;
nodes = (
"58 573 LINE",
"143 636 LINE",
"228 573 LINE",
"324 615 LINE",
"211 730 LINE",
"75 730 LINE",
"-38 615 LINE"
);
}
);
width = 286;
}
);
leftKerningGroup = dotlessi;
rightKerningGroup = dotlessi;
unicode = 00EE;
},
{
glyphname = idieresis;
layers = (
{
layerId = "AE853CD8-C74C-4F9A-A7CF-4083D549EAB1";
name = Bold;
paths = (
{
closed = 1;
nodes = (
"238 0 LINE",
"238 526 LINE",
"48 526 LINE",
"48 0 LINE"
);
},
{
closed = 1;
nodes = (
"106 581 LINE",
"106 721 LINE",
"-50 721 LINE",
"-50 581 LINE"
);
},
{
closed = 1;
nodes = (
"336 581 LINE",
"336 721 LINE",
"180 721 LINE",
"180 581 LINE"
);
}
);
width = 286;
}
);
leftKerningGroup = dotlessi;
rightKerningGroup = dotlessi;
unicode = 00EF;
},
{
glyphname = igrave;
layers = (
{
layerId = "AE853CD8-C74C-4F9A-A7CF-4083D549EAB1";
name = Bold;
paths = (
{
closed = 1;
nodes = (
"238 0 LINE",
"238 526 LINE",
"48 526 LINE",
"48 0 LINE"
);
},
{
closed = 1;
nodes = (
"85 557 LINE",
"205 589 LINE",
"155 731 LINE",
"-14 731 LINE"
);
}
);
width = 286;
}
);
leftKerningGroup = dotlessi;
rightKerningGroup = dotlessi;
unicode = 00EC;
},
{
glyphname = ij;
layers = (
{
layerId = "AE853CD8-C74C-4F9A-A7CF-4083D549EAB1";
name = Bold;
paths = (
{
closed = 1;
nodes = (
"238 0 LINE",
"238 526 LINE",
"48 526 LINE",
"48 0 LINE"
);
},
{
closed = 1;
nodes = (
"238 570 LINE",
"238 730 LINE",
"48 730 LINE",
"48 570 LINE"
);
},
{
closed = 1;
nodes = (
"439 -209 OFFCURVE",
"524 -119 OFFCURVE",
"524 12 CURVE SMOOTH",
"524 526 LINE",
"334 526 LINE",
"334 -3 LINE SMOOTH",
"334 -30 OFFCURVE",
"319 -46 OFFCURVE",
"294 -46 CURVE SMOOTH",
"276 -46 OFFCURVE",
"258 -38 OFFCURVE",
"247 -26 CURVE",
"169 -155 LINE",
"210 -190 OFFCURVE",
"263 -209 OFFCURVE",
"318 -209 CURVE SMOOTH"
);
},
{
closed = 1;
nodes = (
"524 570 LINE",
"524 730 LINE",
"334 730 LINE",
"334 570 LINE"
);
}
);
width = 572;
}
);
leftKerningGroup = dotlessi;
rightKerningGroup = dotlessi;
unicode = 0133;
},
{
color = 4;
glyphname = j;
lastChange = "2014-10-28 14:23:11 +0100";
layers = (
{
layerId = "AE853CD8-C74C-4F9A-A7CF-4083D549EAB1";
name = Bold;
paths = (
{
closed = 1;
nodes = (
"48 -213 LINE",
"238 -213 LINE",
"238 517 LINE",
"48 517 LINE"
);
},
{
closed = 1;
nodes = (
"48 570 LINE",
"237 570 LINE",
"237 730 LINE",
"48 730 LINE"
);
}
);
width = 286;
}
);
leftKerningGroup = dotlessi;
rightKerningGroup = dotlessi;
unicode = 006A;
},
{
glyphname = imacron;
layers = (
{
layerId = "AE853CD8-C74C-4F9A-A7CF-4083D549EAB1";
name = Bold;
paths = (
{
closed = 1;
nodes = (
"238 0 LINE",
"238 526 LINE",
"48 526 LINE",
"48 0 LINE"
);
},
{
closed = 1;
nodes = (
"299 607 LINE",
"299 720 LINE",
"-11 720 LINE",
"-11 607 LINE"
);
}
);
width = 286;
}
);
leftKerningGroup = dotlessi;
rightKerningGroup = dotlessi;
unicode = 012B;
},
{
glyphname = iogonek;
layers = (
{
layerId = "AE853CD8-C74C-4F9A-A7CF-4083D549EAB1";
name = Bold;
paths = (
{
closed = 1;
nodes = (
"226 -125 LINE",
"178 -125 OFFCURVE",
"156 -110 OFFCURVE",
"156 -88 CURVE SMOOTH",
"156 -62 OFFCURVE",
"185 -30 OFFCURVE",
"238 0 CURVE",
"238 526 LINE",
"48 526 LINE",
"48 0 LINE",
"145 0 LINE",
"88 -34 OFFCURVE",
"59 -76 OFFCURVE",
"59 -115 CURVE SMOOTH",
"59 -162 OFFCURVE",
"102 -203 OFFCURVE",
"191 -215 CURVE"
);
},
{
closed = 1;
nodes = (
"238 570 LINE",
"238 730 LINE",
"48 730 LINE",
"48 570 LINE"
);
}
);
width = 286;
}
);
leftKerningGroup = dotlessi;
rightKerningGroup = dotlessi;
unicode = 012F;
},
{
glyphname = itilde;
layers = (
{
layerId = "AE853CD8-C74C-4F9A-A7CF-4083D549EAB1";
name = Bold;
paths = (
{
closed = 1;
nodes = (
"238 0 LINE",
"238 526 LINE",
"48 526 LINE",
"48 0 LINE"
);
},
{
closed = 1;
nodes = (
"310 572 OFFCURVE",
"350 707 OFFCURVE",
"350 730 CURVE",
"250 730 LINE",
"250 727 OFFCURVE",
"244 679 OFFCURVE",
"200 679 CURVE SMOOTH",
"154 679 OFFCURVE",
"130 730 OFFCURVE",
"65 730 CURVE SMOOTH",
"-35 730 OFFCURVE",
"-74 607 OFFCURVE",
"-74 572 CURVE",
"27 572 LINE",
"27 574 OFFCURVE",
"28 620 OFFCURVE",
"73 620 CURVE SMOOTH",
"118 620 OFFCURVE",
"146 572 OFFCURVE",
"207 572 CURVE SMOOTH"
);
}
);
width = 286;
}
);
leftKerningGroup = dotlessi;
rightKerningGroup = dotlessi;
unicode = 0129;
},
{
color = 4;
glyphname = jcircumflex;
lastChange = "2014-10-28 14:23:23 +0100";
layers = (
{
layerId = "AE853CD8-C74C-4F9A-A7CF-4083D549EAB1";
name = Bold;
paths = (
{
closed = 1;
nodes = (
"58 573 LINE",
"143 636 LINE",
"228 573 LINE",
"324 615 LINE",
"211 730 LINE",
"75 730 LINE",
"-38 615 LINE"
);
},
{
closed = 1;
nodes = (
"48 -213 LINE",
"238 -213 LINE",
"238 517 LINE",
"48 517 LINE"
);
}
);
width = 286;
}
);
leftKerningGroup = dotlessi;
rightKerningGroup = dotlessi;
unicode = 0135;
},
{
glyphname = k;
layers = (
{
layerId = "AE853CD8-C74C-4F9A-A7CF-4083D549EAB1";
name = Bold;
paths = (
{
closed = 1;
nodes = (
"596 0 LINE",
"397 296 LINE",
"578 526 LINE",
"378 526 LINE",
"238 331 LINE",
"238 730 LINE",
"48 730 LINE",
"48 0 LINE",
"238 0 LINE",
"238 150 LINE",
"276 192 LINE",
"395 0 LINE"
);
}
);
width = 582;
}
);
leftKerningGroup = b;
rightKerningGroup = k;
unicode = 006B;
},
{
glyphname = kcommaaccent;
layers = (
{
layerId = "AE853CD8-C74C-4F9A-A7CF-4083D549EAB1";
name = Bold;
paths = (
{
closed = 1;
nodes = (
"596 0 LINE",
"397 296 LINE",
"578 526 LINE",
"378 526 LINE",
"238 331 LINE",
"238 730 LINE",
"48 730 LINE",
"48 0 LINE",
"238 0 LINE",
"238 150 LINE",
"276 192 LINE",
"395 0 LINE"
);
},
{
closed = 1;
nodes = (
"178 -213 LINE",
"289 -213 OFFCURVE",
"375 -206 OFFCURVE",
"375 -118 CURVE SMOOTH",
"375 -46 LINE",
"221 -46 LINE",
"221 -110 LINE SMOOTH",
"221 -131 OFFCURVE",
"206 -140 OFFCURVE",
"178 -140 CURVE"
);
}
);
width = 582;
}
);
leftKerningGroup = b;
rightKerningGroup = k;
unicode = 0137;
},
